<mxfile host="Electron" modified="2024-12-07T13:46:28.424Z" agent="Mozilla/5.0 (Windows NT 10.0; Win64; x64) AppleWebKit/537.36 (KHTML, like Gecko) draw.io/24.6.4 Chrome/124.0.6367.207 Electron/30.0.6 Safari/537.36" etag="Cv8E7mNLPWHw_gxS6f8t" version="24.6.4" type="device">
  <diagram name="第 1 页" id="Nt2RVUM6r9WE5MwWlcPU">
    <mxGraphModel dx="2190" dy="2193" grid="1" gridSize="10" guides="1" tooltips="1" connect="1" arrows="1" fold="1" page="1" pageScale="1" pageWidth="827" pageHeight="1169" math="0" shadow="0">
      <root>
        <mxCell id="0" />
        <mxCell id="1" parent="0" />
        <mxCell id="Z1-ZFgRToC5Ef57HQQPl-2" value="&lt;div style=&quot;font-size: 10px;&quot;&gt;&lt;font style=&quot;font-size: 10px;&quot;&gt;S0&lt;/font&gt;&lt;/div&gt;" style="ellipse;whiteSpace=wrap;html=1;aspect=fixed;fontSize=10;" parent="1" vertex="1">
          <mxGeometry x="-600" y="100" width="30" height="30" as="geometry" />
        </mxCell>
        <mxCell id="Z1-ZFgRToC5Ef57HQQPl-3" value="&lt;div style=&quot;font-size: 10px;&quot;&gt;&lt;font style=&quot;font-size: 10px;&quot;&gt;S1&lt;/font&gt;&lt;/div&gt;" style="ellipse;whiteSpace=wrap;html=1;aspect=fixed;fontSize=10;" parent="1" vertex="1">
          <mxGeometry x="-510" y="-340" width="30" height="30" as="geometry" />
        </mxCell>
        <mxCell id="Z1-ZFgRToC5Ef57HQQPl-6" value="&lt;div style=&quot;font-size: 10px;&quot;&gt;&lt;font style=&quot;font-size: 10px;&quot;&gt;S2&lt;/font&gt;&lt;/div&gt;" style="ellipse;whiteSpace=wrap;html=1;aspect=fixed;fontSize=10;" parent="1" vertex="1">
          <mxGeometry x="-500" y="-210" width="30" height="30" as="geometry" />
        </mxCell>
        <mxCell id="Z1-ZFgRToC5Ef57HQQPl-11" value="&lt;div style=&quot;font-size: 10px;&quot;&gt;&lt;font style=&quot;font-size: 10px;&quot;&gt;S3&lt;/font&gt;&lt;/div&gt;" style="ellipse;whiteSpace=wrap;html=1;aspect=fixed;fontSize=10;" parent="1" vertex="1">
          <mxGeometry x="-490" y="20" width="30" height="30" as="geometry" />
        </mxCell>
        <mxCell id="Z1-ZFgRToC5Ef57HQQPl-14" value="" style="endArrow=classic;html=1;rounded=0;exitX=1;exitY=0.5;exitDx=0;exitDy=0;entryX=0.5;entryY=0;entryDx=0;entryDy=0;" parent="1" source="Z1-ZFgRToC5Ef57HQQPl-2" target="Z1-ZFgRToC5Ef57HQQPl-11" edge="1">
          <mxGeometry width="50" height="50" relative="1" as="geometry">
            <mxPoint x="20" y="210" as="sourcePoint" />
            <mxPoint x="-475" y="20" as="targetPoint" />
          </mxGeometry>
        </mxCell>
        <mxCell id="Z1-ZFgRToC5Ef57HQQPl-15" value="if" style="edgeLabel;html=1;align=center;verticalAlign=middle;resizable=0;points=[];" parent="Z1-ZFgRToC5Ef57HQQPl-14" vertex="1" connectable="0">
          <mxGeometry x="-0.2545" y="-1" relative="1" as="geometry">
            <mxPoint as="offset" />
          </mxGeometry>
        </mxCell>
        <mxCell id="Z1-ZFgRToC5Ef57HQQPl-16" value="&lt;div style=&quot;font-size: 10px;&quot;&gt;&lt;font style=&quot;font-size: 10px;&quot;&gt;S4&lt;/font&gt;&lt;/div&gt;" style="ellipse;whiteSpace=wrap;html=1;aspect=fixed;fontSize=10;" parent="1" vertex="1">
          <mxGeometry x="-480" y="300" width="30" height="30" as="geometry" />
        </mxCell>
        <mxCell id="Z1-ZFgRToC5Ef57HQQPl-17" value="" style="endArrow=classic;html=1;rounded=0;exitX=1;exitY=0.5;exitDx=0;exitDy=0;entryX=0;entryY=0;entryDx=0;entryDy=0;" parent="1" source="Z1-ZFgRToC5Ef57HQQPl-2" target="Z1-ZFgRToC5Ef57HQQPl-16" edge="1">
          <mxGeometry width="50" height="50" relative="1" as="geometry">
            <mxPoint x="-180" y="36" as="sourcePoint" />
            <mxPoint x="104" y="130" as="targetPoint" />
          </mxGeometry>
        </mxCell>
        <mxCell id="Z1-ZFgRToC5Ef57HQQPl-18" value="while" style="edgeLabel;html=1;align=center;verticalAlign=middle;resizable=0;points=[];" parent="Z1-ZFgRToC5Ef57HQQPl-17" vertex="1" connectable="0">
          <mxGeometry x="-0.2545" y="-1" relative="1" as="geometry">
            <mxPoint as="offset" />
          </mxGeometry>
        </mxCell>
        <mxCell id="Z1-ZFgRToC5Ef57HQQPl-19" value="&lt;div style=&quot;font-size: 10px;&quot;&gt;&lt;font style=&quot;font-size: 10px;&quot;&gt;S5&lt;/font&gt;&lt;/div&gt;" style="ellipse;whiteSpace=wrap;html=1;aspect=fixed;fontSize=10;" parent="1" vertex="1">
          <mxGeometry x="-370" y="-360" width="30" height="30" as="geometry" />
        </mxCell>
        <mxCell id="Z1-ZFgRToC5Ef57HQQPl-24" value="&lt;div style=&quot;font-size: 10px;&quot;&gt;&lt;font style=&quot;font-size: 10px;&quot;&gt;acc&lt;/font&gt;&lt;/div&gt;" style="ellipse;whiteSpace=wrap;html=1;aspect=fixed;fontSize=10;" parent="1" vertex="1">
          <mxGeometry x="-370" y="-430" width="30" height="30" as="geometry" />
        </mxCell>
        <mxCell id="Z1-ZFgRToC5Ef57HQQPl-25" value="" style="endArrow=classic;html=1;rounded=0;exitX=1;exitY=0.5;exitDx=0;exitDy=0;entryX=0;entryY=0.5;entryDx=0;entryDy=0;endSize=1;startSize=1;" parent="1" source="Z1-ZFgRToC5Ef57HQQPl-3" target="Z1-ZFgRToC5Ef57HQQPl-24" edge="1">
          <mxGeometry width="50" height="50" relative="1" as="geometry">
            <mxPoint x="30" y="160" as="sourcePoint" />
            <mxPoint x="-110" y="40" as="targetPoint" />
          </mxGeometry>
        </mxCell>
        <mxCell id="Z1-ZFgRToC5Ef57HQQPl-26" value="#" style="edgeLabel;html=1;align=center;verticalAlign=middle;resizable=0;points=[];" parent="Z1-ZFgRToC5Ef57HQQPl-25" vertex="1" connectable="0">
          <mxGeometry x="0.0368" y="-2" relative="1" as="geometry">
            <mxPoint as="offset" />
          </mxGeometry>
        </mxCell>
        <mxCell id="Z1-ZFgRToC5Ef57HQQPl-27" value="&lt;div style=&quot;font-size: 10px;&quot;&gt;&lt;font style=&quot;font-size: 10px;&quot;&gt;S6&lt;/font&gt;&lt;/div&gt;" style="ellipse;whiteSpace=wrap;html=1;aspect=fixed;fontSize=10;" parent="1" vertex="1">
          <mxGeometry x="-330" y="-270" width="30" height="30" as="geometry" />
        </mxCell>
        <mxCell id="Z1-ZFgRToC5Ef57HQQPl-30" value="&lt;div style=&quot;font-size: 10px;&quot;&gt;&lt;font style=&quot;font-size: 10px;&quot;&gt;S9&lt;/font&gt;&lt;/div&gt;" style="ellipse;whiteSpace=wrap;html=1;aspect=fixed;fontSize=10;" parent="1" vertex="1">
          <mxGeometry x="-147.43" width="30" height="30" as="geometry" />
        </mxCell>
        <mxCell id="Z1-ZFgRToC5Ef57HQQPl-47" value="&lt;div style=&quot;font-size: 10px;&quot;&gt;&lt;font style=&quot;font-size: 10px;&quot;&gt;S8&lt;/font&gt;&lt;/div&gt;" style="ellipse;whiteSpace=wrap;html=1;aspect=fixed;fontSize=10;" parent="1" vertex="1">
          <mxGeometry x="-147.43" y="-70" width="30" height="30" as="geometry" />
        </mxCell>
        <mxCell id="Z1-ZFgRToC5Ef57HQQPl-48" value="" style="endArrow=classic;html=1;rounded=0;exitX=1;exitY=0.5;exitDx=0;exitDy=0;entryX=0;entryY=0.5;entryDx=0;entryDy=0;" parent="1" source="Z1-ZFgRToC5Ef57HQQPl-11" target="Z1-ZFgRToC5Ef57HQQPl-47" edge="1">
          <mxGeometry width="50" height="50" relative="1" as="geometry">
            <mxPoint x="-40" y="150" as="sourcePoint" />
            <mxPoint x="10" y="100" as="targetPoint" />
          </mxGeometry>
        </mxCell>
        <mxCell id="Z1-ZFgRToC5Ef57HQQPl-49" value="-" style="edgeLabel;html=1;align=center;verticalAlign=middle;resizable=0;points=[];" parent="Z1-ZFgRToC5Ef57HQQPl-48" vertex="1" connectable="0">
          <mxGeometry x="-0.0065" y="1" relative="1" as="geometry">
            <mxPoint as="offset" />
          </mxGeometry>
        </mxCell>
        <mxCell id="Z1-ZFgRToC5Ef57HQQPl-53" value="&lt;div style=&quot;font-size: 10px;&quot;&gt;&lt;font style=&quot;font-size: 10px;&quot;&gt;S10&lt;/font&gt;&lt;/div&gt;" style="ellipse;whiteSpace=wrap;html=1;aspect=fixed;fontSize=10;" parent="1" vertex="1">
          <mxGeometry x="-147.43" y="60" width="30" height="30" as="geometry" />
        </mxCell>
        <mxCell id="Z1-ZFgRToC5Ef57HQQPl-54" value="" style="endArrow=classic;html=1;rounded=0;entryX=0;entryY=0.5;entryDx=0;entryDy=0;exitX=1;exitY=0.5;exitDx=0;exitDy=0;" parent="1" source="Z1-ZFgRToC5Ef57HQQPl-11" target="Z1-ZFgRToC5Ef57HQQPl-53" edge="1">
          <mxGeometry width="50" height="50" relative="1" as="geometry">
            <mxPoint x="-225" y="160" as="sourcePoint" />
            <mxPoint x="20" y="110" as="targetPoint" />
          </mxGeometry>
        </mxCell>
        <mxCell id="Z1-ZFgRToC5Ef57HQQPl-55" value="not" style="edgeLabel;html=1;align=center;verticalAlign=middle;resizable=0;points=[];" parent="Z1-ZFgRToC5Ef57HQQPl-54" vertex="1" connectable="0">
          <mxGeometry x="-0.0065" y="1" relative="1" as="geometry">
            <mxPoint as="offset" />
          </mxGeometry>
        </mxCell>
        <mxCell id="Z1-ZFgRToC5Ef57HQQPl-59" value="" style="endArrow=classic;html=1;rounded=0;exitX=1;exitY=0.5;exitDx=0;exitDy=0;entryX=0;entryY=1;entryDx=0;entryDy=0;" parent="1" source="Z1-ZFgRToC5Ef57HQQPl-2" target="Z1-ZFgRToC5Ef57HQQPl-3" edge="1">
          <mxGeometry width="50" height="50" relative="1" as="geometry">
            <mxPoint x="90" y="110" as="sourcePoint" />
            <mxPoint x="140" y="60" as="targetPoint" />
          </mxGeometry>
        </mxCell>
        <mxCell id="Z1-ZFgRToC5Ef57HQQPl-60" value="S" style="edgeLabel;html=1;align=center;verticalAlign=middle;resizable=0;points=[];" parent="Z1-ZFgRToC5Ef57HQQPl-59" vertex="1" connectable="0">
          <mxGeometry x="-0.1235" y="1" relative="1" as="geometry">
            <mxPoint as="offset" />
          </mxGeometry>
        </mxCell>
        <mxCell id="Z1-ZFgRToC5Ef57HQQPl-61" value="" style="endArrow=classic;html=1;rounded=0;exitX=1;exitY=0.5;exitDx=0;exitDy=0;entryX=0;entryY=0.5;entryDx=0;entryDy=0;" parent="1" source="Z1-ZFgRToC5Ef57HQQPl-3" target="Z1-ZFgRToC5Ef57HQQPl-19" edge="1">
          <mxGeometry width="50" height="50" relative="1" as="geometry">
            <mxPoint x="90" y="110" as="sourcePoint" />
            <mxPoint x="140" y="60" as="targetPoint" />
          </mxGeometry>
        </mxCell>
        <mxCell id="Z1-ZFgRToC5Ef57HQQPl-62" value=";" style="edgeLabel;html=1;align=center;verticalAlign=middle;resizable=0;points=[];" parent="Z1-ZFgRToC5Ef57HQQPl-61" vertex="1" connectable="0">
          <mxGeometry x="0.1351" y="-1" relative="1" as="geometry">
            <mxPoint as="offset" />
          </mxGeometry>
        </mxCell>
        <mxCell id="Z1-ZFgRToC5Ef57HQQPl-63" value="" style="endArrow=classic;html=1;rounded=0;exitX=1;exitY=0.5;exitDx=0;exitDy=0;entryX=0;entryY=1;entryDx=0;entryDy=0;" parent="1" source="Z1-ZFgRToC5Ef57HQQPl-2" target="Z1-ZFgRToC5Ef57HQQPl-6" edge="1">
          <mxGeometry width="50" height="50" relative="1" as="geometry">
            <mxPoint x="90" y="110" as="sourcePoint" />
            <mxPoint x="-230" y="70" as="targetPoint" />
          </mxGeometry>
        </mxCell>
        <mxCell id="Z1-ZFgRToC5Ef57HQQPl-64" value="id" style="edgeLabel;html=1;align=center;verticalAlign=middle;resizable=0;points=[];" parent="Z1-ZFgRToC5Ef57HQQPl-63" vertex="1" connectable="0">
          <mxGeometry x="-0.0089" relative="1" as="geometry">
            <mxPoint as="offset" />
          </mxGeometry>
        </mxCell>
        <mxCell id="Z1-ZFgRToC5Ef57HQQPl-65" value="" style="endArrow=classic;html=1;rounded=0;entryX=0;entryY=0.5;entryDx=0;entryDy=0;exitX=1;exitY=0.5;exitDx=0;exitDy=0;" parent="1" source="Z1-ZFgRToC5Ef57HQQPl-6" target="Z1-ZFgRToC5Ef57HQQPl-27" edge="1">
          <mxGeometry width="50" height="50" relative="1" as="geometry">
            <mxPoint x="-230" y="180" as="sourcePoint" />
            <mxPoint x="-215" y="140" as="targetPoint" />
          </mxGeometry>
        </mxCell>
        <mxCell id="Z1-ZFgRToC5Ef57HQQPl-66" value=":=" style="edgeLabel;html=1;align=center;verticalAlign=middle;resizable=0;points=[];" parent="Z1-ZFgRToC5Ef57HQQPl-65" vertex="1" connectable="0">
          <mxGeometry x="-0.0089" relative="1" as="geometry">
            <mxPoint as="offset" />
          </mxGeometry>
        </mxCell>
        <mxCell id="Z1-ZFgRToC5Ef57HQQPl-67" value="" style="endArrow=classic;html=1;rounded=0;exitX=1;exitY=0.5;exitDx=0;exitDy=0;entryX=0;entryY=0.5;entryDx=0;entryDy=0;" parent="1" source="Z1-ZFgRToC5Ef57HQQPl-11" target="Z1-ZFgRToC5Ef57HQQPl-30" edge="1">
          <mxGeometry width="50" height="50" relative="1" as="geometry">
            <mxPoint x="-275" y="80" as="sourcePoint" />
            <mxPoint x="-275" y="140" as="targetPoint" />
          </mxGeometry>
        </mxCell>
        <mxCell id="Z1-ZFgRToC5Ef57HQQPl-68" value="id" style="edgeLabel;html=1;align=center;verticalAlign=middle;resizable=0;points=[];" parent="Z1-ZFgRToC5Ef57HQQPl-67" vertex="1" connectable="0">
          <mxGeometry x="-0.0089" relative="1" as="geometry">
            <mxPoint as="offset" />
          </mxGeometry>
        </mxCell>
        <mxCell id="Z1-ZFgRToC5Ef57HQQPl-69" value="(" style="endArrow=classic;html=1;rounded=0;entryX=0;entryY=0;entryDx=0;entryDy=0;exitX=1;exitY=0.5;exitDx=0;exitDy=0;" parent="1" source="Z1-ZFgRToC5Ef57HQQPl-11" target="Z1-ZFgRToC5Ef57HQQPl-71" edge="1">
          <mxGeometry width="50" height="50" relative="1" as="geometry">
            <mxPoint x="-220" y="135" as="sourcePoint" />
            <mxPoint x="-140" y="160" as="targetPoint" />
          </mxGeometry>
        </mxCell>
        <mxCell id="Z1-ZFgRToC5Ef57HQQPl-70" value="(" style="edgeLabel;html=1;align=center;verticalAlign=middle;resizable=0;points=[];" parent="Z1-ZFgRToC5Ef57HQQPl-69" vertex="1" connectable="0">
          <mxGeometry x="-0.0089" relative="1" as="geometry">
            <mxPoint as="offset" />
          </mxGeometry>
        </mxCell>
        <mxCell id="Z1-ZFgRToC5Ef57HQQPl-71" value="&lt;div style=&quot;font-size: 10px;&quot;&gt;&lt;font style=&quot;font-size: 10px;&quot;&gt;S11&lt;/font&gt;&lt;/div&gt;" style="ellipse;whiteSpace=wrap;html=1;aspect=fixed;fontSize=10;" parent="1" vertex="1">
          <mxGeometry x="-147.43" y="140" width="30" height="30" as="geometry" />
        </mxCell>
        <mxCell id="Z1-ZFgRToC5Ef57HQQPl-78" value="" style="endArrow=classic;html=1;rounded=0;entryX=0;entryY=0.5;entryDx=0;entryDy=0;exitX=1;exitY=0.5;exitDx=0;exitDy=0;" parent="1" source="Z1-ZFgRToC5Ef57HQQPl-86" target="Z1-ZFgRToC5Ef57HQQPl-47" edge="1">
          <mxGeometry width="50" height="50" relative="1" as="geometry">
            <mxPoint x="-260" y="40" as="sourcePoint" />
            <mxPoint x="-485" y="451" as="targetPoint" />
          </mxGeometry>
        </mxCell>
        <mxCell id="Z1-ZFgRToC5Ef57HQQPl-205" value="-" style="edgeLabel;html=1;align=center;verticalAlign=middle;resizable=0;points=[];" parent="Z1-ZFgRToC5Ef57HQQPl-78" vertex="1" connectable="0">
          <mxGeometry x="0.3073" relative="1" as="geometry">
            <mxPoint as="offset" />
          </mxGeometry>
        </mxCell>
        <mxCell id="Z1-ZFgRToC5Ef57HQQPl-80" value="&lt;div style=&quot;font-size: 10px;&quot;&gt;&lt;font style=&quot;font-size: 10px;&quot;&gt;S27&lt;/font&gt;&lt;/div&gt;" style="ellipse;whiteSpace=wrap;html=1;aspect=fixed;fontSize=10;" parent="1" vertex="1">
          <mxGeometry y="-430" width="30" height="30" as="geometry" />
        </mxCell>
        <mxCell id="Z1-ZFgRToC5Ef57HQQPl-85" value="" style="endArrow=classic;html=1;rounded=0;entryX=0;entryY=0.5;entryDx=0;entryDy=0;exitX=1;exitY=0.5;exitDx=0;exitDy=0;" parent="1" source="Z1-ZFgRToC5Ef57HQQPl-16" target="Z1-ZFgRToC5Ef57HQQPl-86" edge="1">
          <mxGeometry width="50" height="50" relative="1" as="geometry">
            <mxPoint x="-220" y="280" as="sourcePoint" />
            <mxPoint x="-150" y="300" as="targetPoint" />
          </mxGeometry>
        </mxCell>
        <mxCell id="Z1-ZFgRToC5Ef57HQQPl-87" value="M" style="edgeLabel;html=1;align=center;verticalAlign=middle;resizable=0;points=[];" parent="Z1-ZFgRToC5Ef57HQQPl-85" vertex="1" connectable="0">
          <mxGeometry x="-0.0233" y="1" relative="1" as="geometry">
            <mxPoint as="offset" />
          </mxGeometry>
        </mxCell>
        <mxCell id="Z1-ZFgRToC5Ef57HQQPl-86" value="&lt;div style=&quot;font-size: 10px;&quot;&gt;&lt;font style=&quot;font-size: 10px;&quot;&gt;S14&lt;/font&gt;&lt;/div&gt;" style="ellipse;whiteSpace=wrap;html=1;aspect=fixed;fontSize=10;" parent="1" vertex="1">
          <mxGeometry x="-410" y="340" width="30" height="30" as="geometry" />
        </mxCell>
        <mxCell id="Z1-ZFgRToC5Ef57HQQPl-88" value="" style="endArrow=classic;html=1;rounded=0;entryX=0;entryY=0.5;entryDx=0;entryDy=0;exitX=1;exitY=0.5;exitDx=0;exitDy=0;" parent="1" source="Z1-ZFgRToC5Ef57HQQPl-19" target="Z1-ZFgRToC5Ef57HQQPl-89" edge="1">
          <mxGeometry width="50" height="50" relative="1" as="geometry">
            <mxPoint x="-120" y="-30" as="sourcePoint" />
            <mxPoint x="-50" as="targetPoint" />
          </mxGeometry>
        </mxCell>
        <mxCell id="Z1-ZFgRToC5Ef57HQQPl-90" value="M" style="edgeLabel;html=1;align=center;verticalAlign=middle;resizable=0;points=[];" parent="Z1-ZFgRToC5Ef57HQQPl-88" vertex="1" connectable="0">
          <mxGeometry x="-0.0967" relative="1" as="geometry">
            <mxPoint as="offset" />
          </mxGeometry>
        </mxCell>
        <mxCell id="Z1-ZFgRToC5Ef57HQQPl-89" value="&lt;div style=&quot;font-size: 10px;&quot;&gt;&lt;font style=&quot;font-size: 10px;&quot;&gt;S15&lt;/font&gt;&lt;/div&gt;" style="ellipse;whiteSpace=wrap;html=1;aspect=fixed;fontSize=10;" parent="1" vertex="1">
          <mxGeometry x="-270" y="-360" width="30" height="30" as="geometry" />
        </mxCell>
        <mxCell id="Z1-ZFgRToC5Ef57HQQPl-91" value="" style="endArrow=classic;html=1;rounded=0;entryX=0;entryY=0;entryDx=0;entryDy=0;exitX=0.5;exitY=1;exitDx=0;exitDy=0;" parent="1" source="Z1-ZFgRToC5Ef57HQQPl-27" target="Z1-ZFgRToC5Ef57HQQPl-112" edge="1">
          <mxGeometry width="50" height="50" relative="1" as="geometry">
            <mxPoint x="-200" y="30" as="sourcePoint" />
            <mxPoint x="-270" y="-295" as="targetPoint" />
            <Array as="points" />
          </mxGeometry>
        </mxCell>
        <mxCell id="Z1-ZFgRToC5Ef57HQQPl-93" value="True" style="edgeLabel;html=1;align=center;verticalAlign=middle;resizable=0;points=[];" parent="Z1-ZFgRToC5Ef57HQQPl-91" vertex="1" connectable="0">
          <mxGeometry x="0.0667" y="-3" relative="1" as="geometry">
            <mxPoint x="-1" as="offset" />
          </mxGeometry>
        </mxCell>
        <mxCell id="Z1-ZFgRToC5Ef57HQQPl-94" value="" style="endArrow=classic;html=1;rounded=0;exitX=0.5;exitY=1;exitDx=0;exitDy=0;entryX=0;entryY=0.5;entryDx=0;entryDy=0;" parent="1" source="Z1-ZFgRToC5Ef57HQQPl-27" target="Z1-ZFgRToC5Ef57HQQPl-30" edge="1">
          <mxGeometry width="50" height="50" relative="1" as="geometry">
            <mxPoint x="-40" y="70" as="sourcePoint" />
            <mxPoint x="-160" y="80" as="targetPoint" />
            <Array as="points" />
          </mxGeometry>
        </mxCell>
        <mxCell id="Z1-ZFgRToC5Ef57HQQPl-95" value="id" style="edgeLabel;html=1;align=center;verticalAlign=middle;resizable=0;points=[];" parent="Z1-ZFgRToC5Ef57HQQPl-94" vertex="1" connectable="0">
          <mxGeometry x="-0.5396" relative="1" as="geometry">
            <mxPoint as="offset" />
          </mxGeometry>
        </mxCell>
        <mxCell id="Z1-ZFgRToC5Ef57HQQPl-96" value="" style="endArrow=classic;html=1;rounded=0;exitX=0.5;exitY=1;exitDx=0;exitDy=0;entryX=0;entryY=0.5;entryDx=0;entryDy=0;" parent="1" source="Z1-ZFgRToC5Ef57HQQPl-27" target="Z1-ZFgRToC5Ef57HQQPl-53" edge="1">
          <mxGeometry width="50" height="50" relative="1" as="geometry">
            <mxPoint x="-40" y="70" as="sourcePoint" />
            <mxPoint x="-140" y="40" as="targetPoint" />
            <Array as="points" />
          </mxGeometry>
        </mxCell>
        <mxCell id="Z1-ZFgRToC5Ef57HQQPl-97" value="not" style="edgeLabel;html=1;align=center;verticalAlign=middle;resizable=0;points=[];" parent="Z1-ZFgRToC5Ef57HQQPl-96" vertex="1" connectable="0">
          <mxGeometry x="-0.605" relative="1" as="geometry">
            <mxPoint x="69" y="91" as="offset" />
          </mxGeometry>
        </mxCell>
        <mxCell id="Z1-ZFgRToC5Ef57HQQPl-98" value="" style="endArrow=classic;html=1;rounded=0;exitX=0.5;exitY=1;exitDx=0;exitDy=0;entryX=0;entryY=0;entryDx=0;entryDy=0;" parent="1" source="Z1-ZFgRToC5Ef57HQQPl-27" target="Z1-ZFgRToC5Ef57HQQPl-71" edge="1">
          <mxGeometry width="50" height="50" relative="1" as="geometry">
            <mxPoint x="-40" y="70" as="sourcePoint" />
            <mxPoint x="-150" y="60" as="targetPoint" />
            <Array as="points" />
          </mxGeometry>
        </mxCell>
        <mxCell id="Z1-ZFgRToC5Ef57HQQPl-100" value="(" style="edgeLabel;html=1;align=center;verticalAlign=middle;resizable=0;points=[];" parent="Z1-ZFgRToC5Ef57HQQPl-98" vertex="1" connectable="0">
          <mxGeometry x="-0.2131" y="1" relative="1" as="geometry">
            <mxPoint as="offset" />
          </mxGeometry>
        </mxCell>
        <mxCell id="Z1-ZFgRToC5Ef57HQQPl-101" value="" style="endArrow=classic;html=1;rounded=0;entryX=0;entryY=0.5;entryDx=0;entryDy=0;exitX=0.5;exitY=1;exitDx=0;exitDy=0;" parent="1" source="Z1-ZFgRToC5Ef57HQQPl-27" target="Z1-ZFgRToC5Ef57HQQPl-47" edge="1">
          <mxGeometry width="50" height="50" relative="1" as="geometry">
            <mxPoint x="-410" y="-285" as="sourcePoint" />
            <mxPoint x="-110" y="50" as="targetPoint" />
            <Array as="points" />
          </mxGeometry>
        </mxCell>
        <mxCell id="Z1-ZFgRToC5Ef57HQQPl-102" value="-" style="edgeLabel;html=1;align=center;verticalAlign=middle;resizable=0;points=[];" parent="Z1-ZFgRToC5Ef57HQQPl-101" vertex="1" connectable="0">
          <mxGeometry x="-0.06" relative="1" as="geometry">
            <mxPoint as="offset" />
          </mxGeometry>
        </mxCell>
        <mxCell id="Z1-ZFgRToC5Ef57HQQPl-103" value="" style="endArrow=classic;html=1;rounded=0;entryX=0;entryY=0;entryDx=0;entryDy=0;exitX=0.5;exitY=1;exitDx=0;exitDy=0;" parent="1" source="Z1-ZFgRToC5Ef57HQQPl-27" target="Z1-ZFgRToC5Ef57HQQPl-114" edge="1">
          <mxGeometry width="50" height="50" relative="1" as="geometry">
            <mxPoint x="-40" y="70" as="sourcePoint" />
            <mxPoint x="-270" y="-215" as="targetPoint" />
            <Array as="points" />
          </mxGeometry>
        </mxCell>
        <mxCell id="Z1-ZFgRToC5Ef57HQQPl-106" value="False" style="edgeLabel;html=1;align=center;verticalAlign=middle;resizable=0;points=[];" parent="Z1-ZFgRToC5Ef57HQQPl-103" vertex="1" connectable="0">
          <mxGeometry x="-0.014" y="1" relative="1" as="geometry">
            <mxPoint as="offset" />
          </mxGeometry>
        </mxCell>
        <mxCell id="Z1-ZFgRToC5Ef57HQQPl-108" value="" style="endArrow=classic;html=1;rounded=0;entryX=0;entryY=1;entryDx=0;entryDy=0;exitX=1;exitY=0.5;exitDx=0;exitDy=0;" parent="1" source="Z1-ZFgRToC5Ef57HQQPl-11" target="Z1-ZFgRToC5Ef57HQQPl-109" edge="1">
          <mxGeometry width="50" height="50" relative="1" as="geometry">
            <mxPoint x="-230" y="150" as="sourcePoint" />
            <mxPoint x="-160" y="170" as="targetPoint" />
          </mxGeometry>
        </mxCell>
        <mxCell id="Z1-ZFgRToC5Ef57HQQPl-110" value="E" style="edgeLabel;html=1;align=center;verticalAlign=middle;resizable=0;points=[];" parent="Z1-ZFgRToC5Ef57HQQPl-108" vertex="1" connectable="0">
          <mxGeometry x="-0.1257" y="1" relative="1" as="geometry">
            <mxPoint as="offset" />
          </mxGeometry>
        </mxCell>
        <mxCell id="Z1-ZFgRToC5Ef57HQQPl-109" value="&lt;div style=&quot;font-size: 10px;&quot;&gt;&lt;font style=&quot;font-size: 10px;&quot;&gt;S7&lt;/font&gt;&lt;/div&gt;" style="ellipse;whiteSpace=wrap;html=1;aspect=fixed;fontSize=10;" parent="1" vertex="1">
          <mxGeometry x="-190" y="-190" width="30" height="30" as="geometry" />
        </mxCell>
        <mxCell id="Z1-ZFgRToC5Ef57HQQPl-111" value="" style="endArrow=classic;html=1;rounded=0;entryX=0;entryY=0;entryDx=0;entryDy=0;exitX=1;exitY=0.5;exitDx=0;exitDy=0;" parent="1" source="Z1-ZFgRToC5Ef57HQQPl-11" target="Z1-ZFgRToC5Ef57HQQPl-112" edge="1">
          <mxGeometry width="50" height="50" relative="1" as="geometry">
            <mxPoint x="-40" y="70" as="sourcePoint" />
            <mxPoint x="30" y="90" as="targetPoint" />
          </mxGeometry>
        </mxCell>
        <mxCell id="Z1-ZFgRToC5Ef57HQQPl-115" value="True" style="edgeLabel;html=1;align=center;verticalAlign=middle;resizable=0;points=[];" parent="Z1-ZFgRToC5Ef57HQQPl-111" vertex="1" connectable="0">
          <mxGeometry x="0.3108" relative="1" as="geometry">
            <mxPoint as="offset" />
          </mxGeometry>
        </mxCell>
        <mxCell id="Z1-ZFgRToC5Ef57HQQPl-112" value="&lt;div style=&quot;font-size: 10px;&quot;&gt;&lt;font style=&quot;font-size: 10px;&quot;&gt;S12&lt;/font&gt;&lt;/div&gt;" style="ellipse;whiteSpace=wrap;html=1;aspect=fixed;fontSize=10;" parent="1" vertex="1">
          <mxGeometry x="-147.43" y="210" width="30" height="30" as="geometry" />
        </mxCell>
        <mxCell id="Z1-ZFgRToC5Ef57HQQPl-113" value="" style="endArrow=classic;html=1;rounded=0;entryX=0;entryY=0;entryDx=0;entryDy=0;exitX=1;exitY=0.5;exitDx=0;exitDy=0;" parent="1" source="Z1-ZFgRToC5Ef57HQQPl-11" target="Z1-ZFgRToC5Ef57HQQPl-114" edge="1">
          <mxGeometry width="50" height="50" relative="1" as="geometry">
            <mxPoint x="-295" y="230" as="sourcePoint" />
            <mxPoint x="25" y="205" as="targetPoint" />
          </mxGeometry>
        </mxCell>
        <mxCell id="Z1-ZFgRToC5Ef57HQQPl-116" value="False" style="edgeLabel;html=1;align=center;verticalAlign=middle;resizable=0;points=[];" parent="Z1-ZFgRToC5Ef57HQQPl-113" vertex="1" connectable="0">
          <mxGeometry x="0.3073" y="-2" relative="1" as="geometry">
            <mxPoint x="1" as="offset" />
          </mxGeometry>
        </mxCell>
        <mxCell id="Z1-ZFgRToC5Ef57HQQPl-114" value="&lt;div style=&quot;font-size: 10px;&quot;&gt;S13&lt;/div&gt;" style="ellipse;whiteSpace=wrap;html=1;aspect=fixed;fontSize=10;" parent="1" vertex="1">
          <mxGeometry x="-147.43" y="270" width="30" height="30" as="geometry" />
        </mxCell>
        <mxCell id="Z1-ZFgRToC5Ef57HQQPl-125" value="" style="endArrow=classic;html=1;rounded=0;entryX=0;entryY=0.5;entryDx=0;entryDy=0;exitX=1;exitY=0.5;exitDx=0;exitDy=0;" parent="1" source="Z1-ZFgRToC5Ef57HQQPl-27" target="Z1-ZFgRToC5Ef57HQQPl-126" edge="1">
          <mxGeometry width="50" height="50" relative="1" as="geometry">
            <mxPoint x="-17.430000000000007" y="-40" as="sourcePoint" />
            <mxPoint x="52.56999999999999" y="-20" as="targetPoint" />
            <Array as="points" />
          </mxGeometry>
        </mxCell>
        <mxCell id="Z1-ZFgRToC5Ef57HQQPl-127" value="E" style="edgeLabel;html=1;align=center;verticalAlign=middle;resizable=0;points=[];" parent="Z1-ZFgRToC5Ef57HQQPl-125" vertex="1" connectable="0">
          <mxGeometry x="-0.0339" y="-1" relative="1" as="geometry">
            <mxPoint as="offset" />
          </mxGeometry>
        </mxCell>
        <mxCell id="Z1-ZFgRToC5Ef57HQQPl-126" value="&lt;div style=&quot;font-size: 10px;&quot;&gt;&lt;font style=&quot;font-size: 10px;&quot;&gt;S16&lt;/font&gt;&lt;/div&gt;" style="ellipse;whiteSpace=wrap;html=1;aspect=fixed;fontSize=10;" parent="1" vertex="1">
          <mxGeometry x="-47.43000000000001" y="-260" width="30" height="30" as="geometry" />
        </mxCell>
        <mxCell id="Z1-ZFgRToC5Ef57HQQPl-128" value="" style="endArrow=classic;html=1;rounded=0;entryX=0;entryY=0.5;entryDx=0;entryDy=0;exitX=1;exitY=0.5;exitDx=0;exitDy=0;" parent="1" source="Z1-ZFgRToC5Ef57HQQPl-109" target="Z1-ZFgRToC5Ef57HQQPl-129" edge="1">
          <mxGeometry width="50" height="50" relative="1" as="geometry">
            <mxPoint x="-47.43000000000001" y="-120" as="sourcePoint" />
            <mxPoint x="112.57" y="-55" as="targetPoint" />
          </mxGeometry>
        </mxCell>
        <mxCell id="Z1-ZFgRToC5Ef57HQQPl-130" value="+" style="edgeLabel;html=1;align=center;verticalAlign=middle;resizable=0;points=[];" parent="Z1-ZFgRToC5Ef57HQQPl-128" vertex="1" connectable="0">
          <mxGeometry x="-0.0769" y="1" relative="1" as="geometry">
            <mxPoint as="offset" />
          </mxGeometry>
        </mxCell>
        <mxCell id="Z1-ZFgRToC5Ef57HQQPl-129" value="&lt;div style=&quot;font-size: 10px;&quot;&gt;&lt;font style=&quot;font-size: 10px;&quot;&gt;S18&lt;/font&gt;&lt;/div&gt;" style="ellipse;whiteSpace=wrap;html=1;aspect=fixed;fontSize=10;" parent="1" vertex="1">
          <mxGeometry x="179.99999999999994" y="-160" width="30" height="30" as="geometry" />
        </mxCell>
        <mxCell id="Z1-ZFgRToC5Ef57HQQPl-131" value="" style="endArrow=classic;html=1;rounded=0;entryX=0;entryY=0.5;entryDx=0;entryDy=0;exitX=1;exitY=0.5;exitDx=0;exitDy=0;fontStyle=1" parent="1" source="Z1-ZFgRToC5Ef57HQQPl-109" target="Z1-ZFgRToC5Ef57HQQPl-132" edge="1">
          <mxGeometry width="50" height="50" relative="1" as="geometry">
            <mxPoint x="-87.43" y="-60" as="sourcePoint" />
            <mxPoint x="-17.430000000000007" y="-40" as="targetPoint" />
          </mxGeometry>
        </mxCell>
        <mxCell id="Z1-ZFgRToC5Ef57HQQPl-135" value="*" style="edgeLabel;html=1;align=center;verticalAlign=middle;resizable=0;points=[];" parent="Z1-ZFgRToC5Ef57HQQPl-131" vertex="1" connectable="0">
          <mxGeometry x="0.066" y="2" relative="1" as="geometry">
            <mxPoint as="offset" />
          </mxGeometry>
        </mxCell>
        <mxCell id="Z1-ZFgRToC5Ef57HQQPl-132" value="&lt;div style=&quot;font-size: 10px;&quot;&gt;&lt;font style=&quot;font-size: 10px;&quot;&gt;S19&lt;/font&gt;&lt;/div&gt;" style="ellipse;whiteSpace=wrap;html=1;aspect=fixed;fontSize=10;" parent="1" vertex="1">
          <mxGeometry x="179.99999999999994" y="-80" width="30" height="30" as="geometry" />
        </mxCell>
        <mxCell id="Z1-ZFgRToC5Ef57HQQPl-133" value="" style="endArrow=classic;html=1;rounded=0;entryX=0;entryY=0.5;entryDx=0;entryDy=0;exitX=1;exitY=0.5;exitDx=0;exitDy=0;" parent="1" source="Z1-ZFgRToC5Ef57HQQPl-109" target="p_1b_5cENNqRYTXuGcnv-3" edge="1">
          <mxGeometry width="50" height="50" relative="1" as="geometry">
            <mxPoint x="-87.43" as="sourcePoint" />
            <mxPoint x="-17.430000000000007" y="20" as="targetPoint" />
          </mxGeometry>
        </mxCell>
        <mxCell id="Z1-ZFgRToC5Ef57HQQPl-136" value="||" style="edgeLabel;html=1;align=center;verticalAlign=middle;resizable=0;points=[];" parent="Z1-ZFgRToC5Ef57HQQPl-133" vertex="1" connectable="0">
          <mxGeometry x="0.0956" y="-1" relative="1" as="geometry">
            <mxPoint as="offset" />
          </mxGeometry>
        </mxCell>
        <mxCell id="Z1-ZFgRToC5Ef57HQQPl-134" value="&lt;div style=&quot;font-size: 10px;&quot;&gt;&lt;font style=&quot;font-size: 10px;&quot;&gt;S20&lt;/font&gt;&lt;/div&gt;" style="ellipse;whiteSpace=wrap;html=1;aspect=fixed;fontSize=10;" parent="1" vertex="1">
          <mxGeometry x="179.99999999999994" y="-10" width="30" height="30" as="geometry" />
        </mxCell>
        <mxCell id="Z1-ZFgRToC5Ef57HQQPl-137" value="" style="endArrow=classic;html=1;rounded=0;entryX=0;entryY=0.5;entryDx=0;entryDy=0;exitX=1;exitY=0.5;exitDx=0;exitDy=0;" parent="1" source="Z1-ZFgRToC5Ef57HQQPl-109" target="p_1b_5cENNqRYTXuGcnv-5" edge="1">
          <mxGeometry width="50" height="50" relative="1" as="geometry">
            <mxPoint x="-87.43" y="40" as="sourcePoint" />
            <mxPoint x="-17.430000000000007" y="60" as="targetPoint" />
          </mxGeometry>
        </mxCell>
        <mxCell id="Z1-ZFgRToC5Ef57HQQPl-139" value="&amp;amp;&amp;amp;" style="edgeLabel;html=1;align=center;verticalAlign=middle;resizable=0;points=[];" parent="Z1-ZFgRToC5Ef57HQQPl-137" vertex="1" connectable="0">
          <mxGeometry x="0.0028" y="2" relative="1" as="geometry">
            <mxPoint x="-1" as="offset" />
          </mxGeometry>
        </mxCell>
        <mxCell id="Z1-ZFgRToC5Ef57HQQPl-138" value="&lt;div style=&quot;font-size: 10px;&quot;&gt;&lt;font style=&quot;font-size: 10px;&quot;&gt;S21&lt;/font&gt;&lt;/div&gt;" style="ellipse;whiteSpace=wrap;html=1;aspect=fixed;fontSize=10;" parent="1" vertex="1">
          <mxGeometry x="179.99999999999994" y="130" width="30" height="30" as="geometry" />
        </mxCell>
        <mxCell id="Z1-ZFgRToC5Ef57HQQPl-140" value="" style="endArrow=classic;html=1;rounded=0;entryX=0;entryY=0.5;entryDx=0;entryDy=0;exitX=1;exitY=0.5;exitDx=0;exitDy=0;" parent="1" source="Z1-ZFgRToC5Ef57HQQPl-109" target="Z1-ZFgRToC5Ef57HQQPl-141" edge="1">
          <mxGeometry width="50" height="50" relative="1" as="geometry">
            <mxPoint x="-77.43" y="80" as="sourcePoint" />
            <mxPoint x="-7.430000000000007" y="100" as="targetPoint" />
          </mxGeometry>
        </mxCell>
        <mxCell id="Z1-ZFgRToC5Ef57HQQPl-142" value="rop" style="edgeLabel;html=1;align=center;verticalAlign=middle;resizable=0;points=[];" parent="Z1-ZFgRToC5Ef57HQQPl-140" vertex="1" connectable="0">
          <mxGeometry x="0.2087" y="-2" relative="1" as="geometry">
            <mxPoint as="offset" />
          </mxGeometry>
        </mxCell>
        <mxCell id="Z1-ZFgRToC5Ef57HQQPl-141" value="&lt;div style=&quot;font-size: 10px;&quot;&gt;&lt;font style=&quot;font-size: 10px;&quot;&gt;S22&lt;/font&gt;&lt;/div&gt;" style="ellipse;whiteSpace=wrap;html=1;aspect=fixed;fontSize=10;" parent="1" vertex="1">
          <mxGeometry x="179.99999999999994" y="210" width="30" height="30" as="geometry" />
        </mxCell>
        <mxCell id="Z1-ZFgRToC5Ef57HQQPl-143" value="" style="endArrow=classic;html=1;rounded=0;entryX=0;entryY=0.5;entryDx=0;entryDy=0;exitX=1;exitY=0.5;exitDx=0;exitDy=0;" parent="1" source="Z1-ZFgRToC5Ef57HQQPl-109" target="Z1-ZFgRToC5Ef57HQQPl-144" edge="1">
          <mxGeometry width="50" height="50" relative="1" as="geometry">
            <mxPoint x="-107.43" y="-170" as="sourcePoint" />
            <mxPoint x="-37.43000000000001" y="-150" as="targetPoint" />
          </mxGeometry>
        </mxCell>
        <mxCell id="Z1-ZFgRToC5Ef57HQQPl-145" value="then" style="edgeLabel;html=1;align=center;verticalAlign=middle;resizable=0;points=[];" parent="Z1-ZFgRToC5Ef57HQQPl-143" vertex="1" connectable="0">
          <mxGeometry x="0.0519" relative="1" as="geometry">
            <mxPoint y="-1" as="offset" />
          </mxGeometry>
        </mxCell>
        <mxCell id="Z1-ZFgRToC5Ef57HQQPl-144" value="&lt;div style=&quot;font-size: 10px;&quot;&gt;&lt;font style=&quot;font-size: 10px;&quot;&gt;S17&lt;/font&gt;&lt;/div&gt;" style="ellipse;whiteSpace=wrap;html=1;aspect=fixed;fontSize=10;" parent="1" vertex="1">
          <mxGeometry x="-47.43000000000001" y="-210" width="30" height="30" as="geometry" />
        </mxCell>
        <mxCell id="Z1-ZFgRToC5Ef57HQQPl-146" value="" style="endArrow=classic;html=1;rounded=0;entryX=1;entryY=0;entryDx=0;entryDy=0;exitX=0.5;exitY=0;exitDx=0;exitDy=0;" parent="1" source="Z1-ZFgRToC5Ef57HQQPl-53" target="Z1-ZFgRToC5Ef57HQQPl-53" edge="1">
          <mxGeometry width="50" height="50" relative="1" as="geometry">
            <mxPoint x="82.57" y="120" as="sourcePoint" />
            <mxPoint x="132.57" y="160" as="targetPoint" />
            <Array as="points">
              <mxPoint x="-107.43" y="40" />
            </Array>
          </mxGeometry>
        </mxCell>
        <mxCell id="Z1-ZFgRToC5Ef57HQQPl-147" value="&lt;div style=&quot;font-size: 10px;&quot;&gt;&lt;font style=&quot;font-size: 10px;&quot;&gt;S24&lt;/font&gt;&lt;/div&gt;" style="ellipse;whiteSpace=wrap;html=1;aspect=fixed;fontSize=10;" parent="1" vertex="1">
          <mxGeometry x="477" y="250" width="30" height="30" as="geometry" />
        </mxCell>
        <mxCell id="Z1-ZFgRToC5Ef57HQQPl-148" value="" style="endArrow=classic;html=1;rounded=0;entryX=0;entryY=0.5;entryDx=0;entryDy=0;exitX=1;exitY=0.5;exitDx=0;exitDy=0;" parent="1" source="Z1-ZFgRToC5Ef57HQQPl-71" target="Z1-ZFgRToC5Ef57HQQPl-149" edge="1">
          <mxGeometry width="50" height="50" relative="1" as="geometry">
            <mxPoint x="92.57" y="130" as="sourcePoint" />
            <mxPoint x="142.57" y="170" as="targetPoint" />
          </mxGeometry>
        </mxCell>
        <mxCell id="Z1-ZFgRToC5Ef57HQQPl-191" value="E" style="edgeLabel;html=1;align=center;verticalAlign=middle;resizable=0;points=[];" parent="Z1-ZFgRToC5Ef57HQQPl-148" vertex="1" connectable="0">
          <mxGeometry x="0.3964" y="-1" relative="1" as="geometry">
            <mxPoint as="offset" />
          </mxGeometry>
        </mxCell>
        <mxCell id="Z1-ZFgRToC5Ef57HQQPl-149" value="&lt;div style=&quot;font-size: 10px;&quot;&gt;&lt;font style=&quot;font-size: 10px;&quot;&gt;S25&lt;/font&gt;&lt;/div&gt;" style="ellipse;whiteSpace=wrap;html=1;aspect=fixed;fontSize=10;" parent="1" vertex="1">
          <mxGeometry x="477" y="330" width="30" height="30" as="geometry" />
        </mxCell>
        <mxCell id="Z1-ZFgRToC5Ef57HQQPl-150" value="" style="endArrow=classic;html=1;rounded=0;entryX=0;entryY=0.5;entryDx=0;entryDy=0;exitX=1;exitY=0.5;exitDx=0;exitDy=0;" parent="1" source="Z1-ZFgRToC5Ef57HQQPl-47" target="Z1-ZFgRToC5Ef57HQQPl-151" edge="1">
          <mxGeometry width="50" height="50" relative="1" as="geometry">
            <mxPoint x="102.57" y="140" as="sourcePoint" />
            <mxPoint x="152.57" y="180" as="targetPoint" />
            <Array as="points" />
          </mxGeometry>
        </mxCell>
        <mxCell id="Z1-ZFgRToC5Ef57HQQPl-164" value="E" style="edgeLabel;html=1;align=center;verticalAlign=middle;resizable=0;points=[];" parent="Z1-ZFgRToC5Ef57HQQPl-150" vertex="1" connectable="0">
          <mxGeometry x="0.5378" relative="1" as="geometry">
            <mxPoint as="offset" />
          </mxGeometry>
        </mxCell>
        <mxCell id="Z1-ZFgRToC5Ef57HQQPl-151" value="&lt;div style=&quot;font-size: 10px;&quot;&gt;&lt;font style=&quot;font-size: 10px;&quot;&gt;S23&lt;/font&gt;&lt;/div&gt;" style="ellipse;whiteSpace=wrap;html=1;aspect=fixed;fontSize=10;" parent="1" vertex="1">
          <mxGeometry x="477" y="150" width="30" height="30" as="geometry" />
        </mxCell>
        <mxCell id="Z1-ZFgRToC5Ef57HQQPl-152" value="" style="endArrow=classic;html=1;rounded=0;entryX=0.5;entryY=0;entryDx=0;entryDy=0;exitX=0.5;exitY=1;exitDx=0;exitDy=0;" parent="1" source="Z1-ZFgRToC5Ef57HQQPl-47" target="Z1-ZFgRToC5Ef57HQQPl-30" edge="1">
          <mxGeometry width="50" height="50" relative="1" as="geometry">
            <mxPoint x="-75.43" y="59.89" as="sourcePoint" />
            <mxPoint x="-17.430000000000007" y="58.89" as="targetPoint" />
          </mxGeometry>
        </mxCell>
        <mxCell id="Z1-ZFgRToC5Ef57HQQPl-159" value="id" style="edgeLabel;html=1;align=center;verticalAlign=middle;resizable=0;points=[];" parent="Z1-ZFgRToC5Ef57HQQPl-152" vertex="1" connectable="0">
          <mxGeometry x="0.0685" y="4" relative="1" as="geometry">
            <mxPoint x="-4" as="offset" />
          </mxGeometry>
        </mxCell>
        <mxCell id="Z1-ZFgRToC5Ef57HQQPl-153" value="" style="endArrow=classic;html=1;rounded=0;entryX=1;entryY=0;entryDx=0;entryDy=0;exitX=0.5;exitY=1;exitDx=0;exitDy=0;" parent="1" source="Z1-ZFgRToC5Ef57HQQPl-47" target="Z1-ZFgRToC5Ef57HQQPl-53" edge="1">
          <mxGeometry width="50" height="50" relative="1" as="geometry">
            <mxPoint x="-65.43" y="70" as="sourcePoint" />
            <mxPoint x="-7.430000000000007" y="68.89" as="targetPoint" />
            <Array as="points">
              <mxPoint x="-107.43" y="20" />
            </Array>
          </mxGeometry>
        </mxCell>
        <mxCell id="Z1-ZFgRToC5Ef57HQQPl-160" value="not" style="edgeLabel;html=1;align=center;verticalAlign=middle;resizable=0;points=[];" parent="Z1-ZFgRToC5Ef57HQQPl-153" vertex="1" connectable="0">
          <mxGeometry x="-0.3117" y="1" relative="1" as="geometry">
            <mxPoint as="offset" />
          </mxGeometry>
        </mxCell>
        <mxCell id="Z1-ZFgRToC5Ef57HQQPl-172" value="not" style="edgeLabel;html=1;align=center;verticalAlign=middle;resizable=0;points=[];" parent="Z1-ZFgRToC5Ef57HQQPl-153" vertex="1" connectable="0">
          <mxGeometry x="0.7284" y="5" relative="1" as="geometry">
            <mxPoint as="offset" />
          </mxGeometry>
        </mxCell>
        <mxCell id="Z1-ZFgRToC5Ef57HQQPl-154" value="" style="endArrow=classic;html=1;rounded=0;entryX=1;entryY=0;entryDx=0;entryDy=0;exitX=0.5;exitY=1;exitDx=0;exitDy=0;" parent="1" source="Z1-ZFgRToC5Ef57HQQPl-47" target="Z1-ZFgRToC5Ef57HQQPl-71" edge="1">
          <mxGeometry width="50" height="50" relative="1" as="geometry">
            <mxPoint x="-55.43000000000001" y="79.89" as="sourcePoint" />
            <mxPoint x="2.569999999999993" y="78.89" as="targetPoint" />
            <Array as="points">
              <mxPoint x="-87.43" y="20" />
            </Array>
          </mxGeometry>
        </mxCell>
        <mxCell id="Z1-ZFgRToC5Ef57HQQPl-161" value="(" style="edgeLabel;html=1;align=center;verticalAlign=middle;resizable=0;points=[];" parent="Z1-ZFgRToC5Ef57HQQPl-154" vertex="1" connectable="0">
          <mxGeometry x="-0.5455" y="-3" relative="1" as="geometry">
            <mxPoint x="10" y="1" as="offset" />
          </mxGeometry>
        </mxCell>
        <mxCell id="Z1-ZFgRToC5Ef57HQQPl-155" value="" style="endArrow=classic;html=1;rounded=0;entryX=1;entryY=0;entryDx=0;entryDy=0;exitX=0.5;exitY=1;exitDx=0;exitDy=0;" parent="1" source="Z1-ZFgRToC5Ef57HQQPl-47" target="Z1-ZFgRToC5Ef57HQQPl-112" edge="1">
          <mxGeometry width="50" height="50" relative="1" as="geometry">
            <mxPoint x="-45.43000000000001" y="89.89" as="sourcePoint" />
            <mxPoint x="12.569999999999993" y="88.89" as="targetPoint" />
            <Array as="points">
              <mxPoint x="-67.43" y="10" />
            </Array>
          </mxGeometry>
        </mxCell>
        <mxCell id="Z1-ZFgRToC5Ef57HQQPl-162" value="True" style="edgeLabel;html=1;align=center;verticalAlign=middle;resizable=0;points=[];" parent="Z1-ZFgRToC5Ef57HQQPl-155" vertex="1" connectable="0">
          <mxGeometry x="-0.6735" y="1" relative="1" as="geometry">
            <mxPoint as="offset" />
          </mxGeometry>
        </mxCell>
        <mxCell id="Z1-ZFgRToC5Ef57HQQPl-156" value="" style="endArrow=classic;html=1;rounded=0;entryX=0;entryY=0;entryDx=0;entryDy=0;exitX=0.5;exitY=1;exitDx=0;exitDy=0;" parent="1" source="Z1-ZFgRToC5Ef57HQQPl-47" target="Z1-ZFgRToC5Ef57HQQPl-114" edge="1">
          <mxGeometry width="50" height="50" relative="1" as="geometry">
            <mxPoint x="-35.43000000000001" y="99.89" as="sourcePoint" />
            <mxPoint x="22.569999999999993" y="98.89" as="targetPoint" />
            <Array as="points">
              <mxPoint x="-167.43" />
              <mxPoint x="-177.43" y="140" />
            </Array>
          </mxGeometry>
        </mxCell>
        <mxCell id="Z1-ZFgRToC5Ef57HQQPl-163" value="False" style="edgeLabel;html=1;align=center;verticalAlign=middle;resizable=0;points=[];" parent="Z1-ZFgRToC5Ef57HQQPl-156" vertex="1" connectable="0">
          <mxGeometry x="-0.7877" y="2" relative="1" as="geometry">
            <mxPoint as="offset" />
          </mxGeometry>
        </mxCell>
        <mxCell id="Z1-ZFgRToC5Ef57HQQPl-157" value="" style="endArrow=classic;html=1;rounded=0;entryX=1;entryY=0;entryDx=0;entryDy=0;exitX=0;exitY=0;exitDx=0;exitDy=0;" parent="1" source="Z1-ZFgRToC5Ef57HQQPl-47" target="Z1-ZFgRToC5Ef57HQQPl-47" edge="1">
          <mxGeometry width="50" height="50" relative="1" as="geometry">
            <mxPoint x="-25.430000000000007" y="109.88999999999999" as="sourcePoint" />
            <mxPoint x="32.56999999999999" y="108.88999999999999" as="targetPoint" />
            <Array as="points">
              <mxPoint x="-132.43" y="-90" />
            </Array>
          </mxGeometry>
        </mxCell>
        <mxCell id="Z1-ZFgRToC5Ef57HQQPl-165" value="-" style="edgeLabel;html=1;align=center;verticalAlign=middle;resizable=0;points=[];" parent="Z1-ZFgRToC5Ef57HQQPl-157" vertex="1" connectable="0">
          <mxGeometry x="-0.4155" y="1" relative="1" as="geometry">
            <mxPoint as="offset" />
          </mxGeometry>
        </mxCell>
        <mxCell id="Z1-ZFgRToC5Ef57HQQPl-158" value="" style="endArrow=classic;html=1;rounded=0;entryX=0;entryY=0.5;entryDx=0;entryDy=0;exitX=0.5;exitY=0;exitDx=0;exitDy=0;" parent="1" source="Z1-ZFgRToC5Ef57HQQPl-53" target="Z1-ZFgRToC5Ef57HQQPl-30" edge="1">
          <mxGeometry width="50" height="50" relative="1" as="geometry">
            <mxPoint x="-15.430000000000007" y="119.88999999999999" as="sourcePoint" />
            <mxPoint x="42.56999999999999" y="118.88999999999999" as="targetPoint" />
          </mxGeometry>
        </mxCell>
        <mxCell id="Z1-ZFgRToC5Ef57HQQPl-170" value="id" style="edgeLabel;html=1;align=center;verticalAlign=middle;resizable=0;points=[];" parent="Z1-ZFgRToC5Ef57HQQPl-158" vertex="1" connectable="0">
          <mxGeometry x="0.0525" y="-1" relative="1" as="geometry">
            <mxPoint as="offset" />
          </mxGeometry>
        </mxCell>
        <mxCell id="Z1-ZFgRToC5Ef57HQQPl-166" value="" style="endArrow=classic;html=1;rounded=0;entryX=0;entryY=0.5;entryDx=0;entryDy=0;exitX=0.5;exitY=0;exitDx=0;exitDy=0;" parent="1" source="Z1-ZFgRToC5Ef57HQQPl-53" target="Z1-ZFgRToC5Ef57HQQPl-47" edge="1">
          <mxGeometry width="50" height="50" relative="1" as="geometry">
            <mxPoint x="-47.43000000000001" y="111" as="sourcePoint" />
            <mxPoint x="10.569999999999993" y="110" as="targetPoint" />
            <Array as="points">
              <mxPoint x="-167.43" y="40" />
            </Array>
          </mxGeometry>
        </mxCell>
        <mxCell id="Z1-ZFgRToC5Ef57HQQPl-171" value="-" style="edgeLabel;html=1;align=center;verticalAlign=middle;resizable=0;points=[];" parent="Z1-ZFgRToC5Ef57HQQPl-166" vertex="1" connectable="0">
          <mxGeometry x="-0.6345" y="-1" relative="1" as="geometry">
            <mxPoint as="offset" />
          </mxGeometry>
        </mxCell>
        <mxCell id="Z1-ZFgRToC5Ef57HQQPl-167" value="" style="endArrow=classic;html=1;rounded=0;entryX=1;entryY=0;entryDx=0;entryDy=0;exitX=0.5;exitY=1;exitDx=0;exitDy=0;" parent="1" source="Z1-ZFgRToC5Ef57HQQPl-53" target="Z1-ZFgRToC5Ef57HQQPl-71" edge="1">
          <mxGeometry width="50" height="50" relative="1" as="geometry">
            <mxPoint x="4.569999999999993" y="139.89" as="sourcePoint" />
            <mxPoint x="62.56999999999999" y="138.89" as="targetPoint" />
          </mxGeometry>
        </mxCell>
        <mxCell id="Z1-ZFgRToC5Ef57HQQPl-173" value="(" style="edgeLabel;html=1;align=center;verticalAlign=middle;resizable=0;points=[];" parent="Z1-ZFgRToC5Ef57HQQPl-167" vertex="1" connectable="0">
          <mxGeometry x="0.1139" y="4" relative="1" as="geometry">
            <mxPoint as="offset" />
          </mxGeometry>
        </mxCell>
        <mxCell id="Z1-ZFgRToC5Ef57HQQPl-168" value="" style="endArrow=classic;html=1;rounded=0;entryX=1;entryY=0;entryDx=0;entryDy=0;exitX=0.5;exitY=1;exitDx=0;exitDy=0;" parent="1" source="Z1-ZFgRToC5Ef57HQQPl-53" target="Z1-ZFgRToC5Ef57HQQPl-112" edge="1">
          <mxGeometry width="50" height="50" relative="1" as="geometry">
            <mxPoint x="14.569999999999993" y="149.89" as="sourcePoint" />
            <mxPoint x="72.57" y="148.89" as="targetPoint" />
            <Array as="points">
              <mxPoint x="-87.43" y="150" />
            </Array>
          </mxGeometry>
        </mxCell>
        <mxCell id="Z1-ZFgRToC5Ef57HQQPl-174" value="True" style="edgeLabel;html=1;align=center;verticalAlign=middle;resizable=0;points=[];" parent="Z1-ZFgRToC5Ef57HQQPl-168" vertex="1" connectable="0">
          <mxGeometry x="-0.5459" relative="1" as="geometry">
            <mxPoint x="15" y="53" as="offset" />
          </mxGeometry>
        </mxCell>
        <mxCell id="Z1-ZFgRToC5Ef57HQQPl-169" value="" style="endArrow=classic;html=1;rounded=0;entryX=1;entryY=0;entryDx=0;entryDy=0;exitX=0.5;exitY=1;exitDx=0;exitDy=0;" parent="1" source="Z1-ZFgRToC5Ef57HQQPl-53" target="Z1-ZFgRToC5Ef57HQQPl-114" edge="1">
          <mxGeometry width="50" height="50" relative="1" as="geometry">
            <mxPoint x="24.569999999999993" y="159.89" as="sourcePoint" />
            <mxPoint x="82.57" y="158.89" as="targetPoint" />
            <Array as="points">
              <mxPoint x="-67.43" y="110" />
            </Array>
          </mxGeometry>
        </mxCell>
        <mxCell id="Z1-ZFgRToC5Ef57HQQPl-175" value="False" style="edgeLabel;html=1;align=center;verticalAlign=middle;resizable=0;points=[];" parent="Z1-ZFgRToC5Ef57HQQPl-169" vertex="1" connectable="0">
          <mxGeometry x="-0.6009" y="-2" relative="1" as="geometry">
            <mxPoint as="offset" />
          </mxGeometry>
        </mxCell>
        <mxCell id="Z1-ZFgRToC5Ef57HQQPl-176" value="" style="endArrow=classic;html=1;rounded=0;exitX=1;exitY=0.5;exitDx=0;exitDy=0;entryX=0;entryY=0.5;entryDx=0;entryDy=0;" parent="1" source="Z1-ZFgRToC5Ef57HQQPl-53" target="Z1-ZFgRToC5Ef57HQQPl-147" edge="1">
          <mxGeometry width="50" height="50" relative="1" as="geometry">
            <mxPoint x="252.56999999999994" y="110" as="sourcePoint" />
            <mxPoint x="-47.43000000000001" y="90" as="targetPoint" />
          </mxGeometry>
        </mxCell>
        <mxCell id="Z1-ZFgRToC5Ef57HQQPl-177" value="E" style="edgeLabel;html=1;align=center;verticalAlign=middle;resizable=0;points=[];" parent="Z1-ZFgRToC5Ef57HQQPl-176" vertex="1" connectable="0">
          <mxGeometry x="0.346" y="-2" relative="1" as="geometry">
            <mxPoint as="offset" />
          </mxGeometry>
        </mxCell>
        <mxCell id="Z1-ZFgRToC5Ef57HQQPl-178" value="" style="endArrow=classic;html=1;rounded=0;exitX=0.5;exitY=0;exitDx=0;exitDy=0;entryX=0;entryY=0.5;entryDx=0;entryDy=0;" parent="1" source="Z1-ZFgRToC5Ef57HQQPl-71" target="Z1-ZFgRToC5Ef57HQQPl-47" edge="1">
          <mxGeometry width="50" height="50" relative="1" as="geometry">
            <mxPoint x="-57.43000000000001" y="155.44" as="sourcePoint" />
            <mxPoint x="-848.911458875868" as="targetPoint" />
            <Array as="points">
              <mxPoint x="-187.43" y="90" />
            </Array>
          </mxGeometry>
        </mxCell>
        <mxCell id="Z1-ZFgRToC5Ef57HQQPl-184" value="-" style="edgeLabel;html=1;align=center;verticalAlign=middle;resizable=0;points=[];" parent="Z1-ZFgRToC5Ef57HQQPl-178" vertex="1" connectable="0">
          <mxGeometry x="-0.6918" y="-3" relative="1" as="geometry">
            <mxPoint as="offset" />
          </mxGeometry>
        </mxCell>
        <mxCell id="Z1-ZFgRToC5Ef57HQQPl-179" value="" style="endArrow=classic;html=1;rounded=0;exitX=0.5;exitY=0;exitDx=0;exitDy=0;entryX=0;entryY=0.5;entryDx=0;entryDy=0;" parent="1" source="Z1-ZFgRToC5Ef57HQQPl-71" target="Z1-ZFgRToC5Ef57HQQPl-30" edge="1">
          <mxGeometry width="50" height="50" relative="1" as="geometry">
            <mxPoint x="-47.43000000000001" y="165.44" as="sourcePoint" />
            <mxPoint x="-157.43" y="80" as="targetPoint" />
            <Array as="points">
              <mxPoint x="-167.43" y="90" />
            </Array>
          </mxGeometry>
        </mxCell>
        <mxCell id="Z1-ZFgRToC5Ef57HQQPl-186" value="id" style="edgeLabel;html=1;align=center;verticalAlign=middle;resizable=0;points=[];" parent="Z1-ZFgRToC5Ef57HQQPl-179" vertex="1" connectable="0">
          <mxGeometry x="-0.4135" y="1" relative="1" as="geometry">
            <mxPoint as="offset" />
          </mxGeometry>
        </mxCell>
        <mxCell id="Z1-ZFgRToC5Ef57HQQPl-180" value="" style="endArrow=classic;html=1;rounded=0;entryX=0;entryY=0.5;entryDx=0;entryDy=0;exitX=0.5;exitY=0;exitDx=0;exitDy=0;" parent="1" source="Z1-ZFgRToC5Ef57HQQPl-71" target="Z1-ZFgRToC5Ef57HQQPl-53" edge="1">
          <mxGeometry width="50" height="50" relative="1" as="geometry">
            <mxPoint x="-37.43000000000001" y="175.44" as="sourcePoint" />
            <mxPoint x="20.569999999999993" y="174.44" as="targetPoint" />
          </mxGeometry>
        </mxCell>
        <mxCell id="Z1-ZFgRToC5Ef57HQQPl-187" value="not" style="edgeLabel;html=1;align=center;verticalAlign=middle;resizable=0;points=[];" parent="Z1-ZFgRToC5Ef57HQQPl-180" vertex="1" connectable="0">
          <mxGeometry x="-0.262" y="1" relative="1" as="geometry">
            <mxPoint as="offset" />
          </mxGeometry>
        </mxCell>
        <mxCell id="Z1-ZFgRToC5Ef57HQQPl-181" value="" style="endArrow=classic;html=1;rounded=0;entryX=0;entryY=0;entryDx=0;entryDy=0;exitX=0;exitY=0.5;exitDx=0;exitDy=0;" parent="1" source="Z1-ZFgRToC5Ef57HQQPl-71" target="Z1-ZFgRToC5Ef57HQQPl-71" edge="1">
          <mxGeometry width="50" height="50" relative="1" as="geometry">
            <mxPoint x="-27.430000000000007" y="185.44" as="sourcePoint" />
            <mxPoint x="30.569999999999993" y="184.44" as="targetPoint" />
            <Array as="points">
              <mxPoint x="-210" y="150" />
            </Array>
          </mxGeometry>
        </mxCell>
        <mxCell id="Z1-ZFgRToC5Ef57HQQPl-188" value="(" style="edgeLabel;html=1;align=center;verticalAlign=middle;resizable=0;points=[];" parent="Z1-ZFgRToC5Ef57HQQPl-181" vertex="1" connectable="0">
          <mxGeometry x="0.2677" y="-1" relative="1" as="geometry">
            <mxPoint as="offset" />
          </mxGeometry>
        </mxCell>
        <mxCell id="Z1-ZFgRToC5Ef57HQQPl-182" value="" style="endArrow=classic;html=1;rounded=0;entryX=1;entryY=0;entryDx=0;entryDy=0;exitX=0.5;exitY=1;exitDx=0;exitDy=0;" parent="1" source="Z1-ZFgRToC5Ef57HQQPl-71" target="Z1-ZFgRToC5Ef57HQQPl-112" edge="1">
          <mxGeometry width="50" height="50" relative="1" as="geometry">
            <mxPoint x="-17.430000000000007" y="195.44" as="sourcePoint" />
            <mxPoint x="40.56999999999999" y="194.44" as="targetPoint" />
          </mxGeometry>
        </mxCell>
        <mxCell id="Z1-ZFgRToC5Ef57HQQPl-189" value="True" style="edgeLabel;html=1;align=center;verticalAlign=middle;resizable=0;points=[];" parent="Z1-ZFgRToC5Ef57HQQPl-182" vertex="1" connectable="0">
          <mxGeometry x="0.091" y="3" relative="1" as="geometry">
            <mxPoint as="offset" />
          </mxGeometry>
        </mxCell>
        <mxCell id="Z1-ZFgRToC5Ef57HQQPl-200" value="" style="endArrow=classic;html=1;rounded=0;entryX=0;entryY=0.5;entryDx=0;entryDy=0;exitX=1;exitY=0.5;exitDx=0;exitDy=0;" parent="1" source="Z1-ZFgRToC5Ef57HQQPl-89" target="Z1-ZFgRToC5Ef57HQQPl-80" edge="1">
          <mxGeometry width="50" height="50" relative="1" as="geometry">
            <mxPoint x="-250" y="40" as="sourcePoint" />
            <mxPoint x="-230" y="200" as="targetPoint" />
          </mxGeometry>
        </mxCell>
        <mxCell id="Z1-ZFgRToC5Ef57HQQPl-229" value="S" style="edgeLabel;html=1;align=center;verticalAlign=middle;resizable=0;points=[];" parent="Z1-ZFgRToC5Ef57HQQPl-200" vertex="1" connectable="0">
          <mxGeometry x="0.0051" y="1" relative="1" as="geometry">
            <mxPoint as="offset" />
          </mxGeometry>
        </mxCell>
        <mxCell id="Z1-ZFgRToC5Ef57HQQPl-201" value="" style="endArrow=classic;html=1;rounded=0;entryX=0;entryY=0.5;entryDx=0;entryDy=0;exitX=1;exitY=0.5;exitDx=0;exitDy=0;" parent="1" source="Z1-ZFgRToC5Ef57HQQPl-86" target="Z1-ZFgRToC5Ef57HQQPl-30" edge="1">
          <mxGeometry width="50" height="50" relative="1" as="geometry">
            <mxPoint x="-405" y="340" as="sourcePoint" />
            <mxPoint x="-445" y="451" as="targetPoint" />
          </mxGeometry>
        </mxCell>
        <mxCell id="Z1-ZFgRToC5Ef57HQQPl-206" value="id" style="edgeLabel;html=1;align=center;verticalAlign=middle;resizable=0;points=[];" parent="Z1-ZFgRToC5Ef57HQQPl-201" vertex="1" connectable="0">
          <mxGeometry x="0.4278" y="-4" relative="1" as="geometry">
            <mxPoint y="-1" as="offset" />
          </mxGeometry>
        </mxCell>
        <mxCell id="Z1-ZFgRToC5Ef57HQQPl-202" value="" style="endArrow=classic;html=1;rounded=0;entryX=0;entryY=0.5;entryDx=0;entryDy=0;exitX=1;exitY=0.5;exitDx=0;exitDy=0;" parent="1" source="Z1-ZFgRToC5Ef57HQQPl-86" target="Z1-ZFgRToC5Ef57HQQPl-53" edge="1">
          <mxGeometry width="50" height="50" relative="1" as="geometry">
            <mxPoint x="-395" y="350" as="sourcePoint" />
            <mxPoint x="-405" y="451" as="targetPoint" />
          </mxGeometry>
        </mxCell>
        <mxCell id="Z1-ZFgRToC5Ef57HQQPl-207" value="not" style="edgeLabel;html=1;align=center;verticalAlign=middle;resizable=0;points=[];" parent="Z1-ZFgRToC5Ef57HQQPl-202" vertex="1" connectable="0">
          <mxGeometry x="0.5337" relative="1" as="geometry">
            <mxPoint as="offset" />
          </mxGeometry>
        </mxCell>
        <mxCell id="Z1-ZFgRToC5Ef57HQQPl-203" value="" style="endArrow=classic;html=1;rounded=0;entryX=0;entryY=0;entryDx=0;entryDy=0;exitX=1;exitY=0.5;exitDx=0;exitDy=0;" parent="1" source="Z1-ZFgRToC5Ef57HQQPl-86" target="Z1-ZFgRToC5Ef57HQQPl-71" edge="1">
          <mxGeometry width="50" height="50" relative="1" as="geometry">
            <mxPoint x="-385" y="360" as="sourcePoint" />
            <mxPoint x="-365" y="451" as="targetPoint" />
          </mxGeometry>
        </mxCell>
        <mxCell id="Z1-ZFgRToC5Ef57HQQPl-208" value="(" style="edgeLabel;html=1;align=center;verticalAlign=middle;resizable=0;points=[];" parent="Z1-ZFgRToC5Ef57HQQPl-203" vertex="1" connectable="0">
          <mxGeometry x="0.6611" y="3" relative="1" as="geometry">
            <mxPoint as="offset" />
          </mxGeometry>
        </mxCell>
        <mxCell id="Z1-ZFgRToC5Ef57HQQPl-204" value="" style="endArrow=classic;html=1;rounded=0;entryX=0;entryY=0;entryDx=0;entryDy=0;exitX=1;exitY=0.5;exitDx=0;exitDy=0;" parent="1" source="Z1-ZFgRToC5Ef57HQQPl-86" target="Z1-ZFgRToC5Ef57HQQPl-112" edge="1">
          <mxGeometry width="50" height="50" relative="1" as="geometry">
            <mxPoint x="-375" y="370" as="sourcePoint" />
            <mxPoint x="-325" y="451" as="targetPoint" />
          </mxGeometry>
        </mxCell>
        <mxCell id="Z1-ZFgRToC5Ef57HQQPl-209" value="True" style="edgeLabel;html=1;align=center;verticalAlign=middle;resizable=0;points=[];" parent="Z1-ZFgRToC5Ef57HQQPl-204" vertex="1" connectable="0">
          <mxGeometry x="0.3014" y="5" relative="1" as="geometry">
            <mxPoint as="offset" />
          </mxGeometry>
        </mxCell>
        <mxCell id="Z1-ZFgRToC5Ef57HQQPl-214" value="" style="endArrow=classic;html=1;rounded=0;exitX=1;exitY=0.5;exitDx=0;exitDy=0;entryX=0;entryY=0;entryDx=0;entryDy=0;" parent="1" source="Z1-ZFgRToC5Ef57HQQPl-86" target="Z1-ZFgRToC5Ef57HQQPl-114" edge="1">
          <mxGeometry width="50" height="50" relative="1" as="geometry">
            <mxPoint x="-380" y="330" as="sourcePoint" />
            <mxPoint x="-284" y="450" as="targetPoint" />
          </mxGeometry>
        </mxCell>
        <mxCell id="Z1-ZFgRToC5Ef57HQQPl-215" value="False" style="edgeLabel;html=1;align=center;verticalAlign=middle;resizable=0;points=[];" parent="Z1-ZFgRToC5Ef57HQQPl-214" vertex="1" connectable="0">
          <mxGeometry x="0.3014" y="5" relative="1" as="geometry">
            <mxPoint as="offset" />
          </mxGeometry>
        </mxCell>
        <mxCell id="Z1-ZFgRToC5Ef57HQQPl-219" value="&lt;div style=&quot;font-size: 10px;&quot;&gt;&lt;font style=&quot;font-size: 10px;&quot;&gt;S26&lt;/font&gt;&lt;/div&gt;" style="ellipse;whiteSpace=wrap;html=1;aspect=fixed;fontSize=10;" parent="1" vertex="1">
          <mxGeometry x="477" y="390" width="30" height="30" as="geometry" />
        </mxCell>
        <mxCell id="Z1-ZFgRToC5Ef57HQQPl-220" value="" style="endArrow=classic;html=1;rounded=0;entryX=0;entryY=0.5;entryDx=0;entryDy=0;exitX=1;exitY=0.5;exitDx=0;exitDy=0;" parent="1" source="Z1-ZFgRToC5Ef57HQQPl-86" target="Z1-ZFgRToC5Ef57HQQPl-219" edge="1">
          <mxGeometry width="50" height="50" relative="1" as="geometry">
            <mxPoint x="-47.43000000000001" y="290" as="sourcePoint" />
            <mxPoint x="-27.430000000000007" y="450" as="targetPoint" />
          </mxGeometry>
        </mxCell>
        <mxCell id="Z1-ZFgRToC5Ef57HQQPl-221" value="E" style="edgeLabel;html=1;align=center;verticalAlign=middle;resizable=0;points=[];" parent="Z1-ZFgRToC5Ef57HQQPl-220" vertex="1" connectable="0">
          <mxGeometry x="0.3676" y="1" relative="1" as="geometry">
            <mxPoint as="offset" />
          </mxGeometry>
        </mxCell>
        <mxCell id="Z1-ZFgRToC5Ef57HQQPl-222" value="" style="endArrow=classic;html=1;rounded=0;exitX=0;exitY=1;exitDx=0;exitDy=0;entryX=1;entryY=0;entryDx=0;entryDy=0;" parent="1" source="Z1-ZFgRToC5Ef57HQQPl-89" target="Z1-ZFgRToC5Ef57HQQPl-6" edge="1">
          <mxGeometry width="50" height="50" relative="1" as="geometry">
            <mxPoint x="-190" y="-100" as="sourcePoint" />
            <mxPoint x="-140" y="-100" as="targetPoint" />
            <Array as="points" />
          </mxGeometry>
        </mxCell>
        <mxCell id="Z1-ZFgRToC5Ef57HQQPl-225" value="id" style="edgeLabel;html=1;align=center;verticalAlign=middle;resizable=0;points=[];" parent="Z1-ZFgRToC5Ef57HQQPl-222" vertex="1" connectable="0">
          <mxGeometry x="0.0202" y="-1" relative="1" as="geometry">
            <mxPoint as="offset" />
          </mxGeometry>
        </mxCell>
        <mxCell id="Z1-ZFgRToC5Ef57HQQPl-223" value="" style="endArrow=classic;html=1;rounded=0;exitX=0;exitY=1;exitDx=0;exitDy=0;entryX=0.5;entryY=0;entryDx=0;entryDy=0;" parent="1" source="Z1-ZFgRToC5Ef57HQQPl-89" target="Z1-ZFgRToC5Ef57HQQPl-11" edge="1">
          <mxGeometry width="50" height="50" relative="1" as="geometry">
            <mxPoint x="-180" y="-90" as="sourcePoint" />
            <mxPoint x="-480" y="20" as="targetPoint" />
            <Array as="points">
              <mxPoint x="-440" y="-270" />
            </Array>
          </mxGeometry>
        </mxCell>
        <mxCell id="Z1-ZFgRToC5Ef57HQQPl-226" value="if" style="edgeLabel;html=1;align=center;verticalAlign=middle;resizable=0;points=[];" parent="Z1-ZFgRToC5Ef57HQQPl-223" vertex="1" connectable="0">
          <mxGeometry x="-0.2507" y="-2" relative="1" as="geometry">
            <mxPoint x="-9" y="17" as="offset" />
          </mxGeometry>
        </mxCell>
        <mxCell id="Z1-ZFgRToC5Ef57HQQPl-227" value="" style="endArrow=classic;html=1;rounded=0;exitX=0;exitY=1;exitDx=0;exitDy=0;entryX=0;entryY=0;entryDx=0;entryDy=0;" parent="1" source="Z1-ZFgRToC5Ef57HQQPl-89" target="Z1-ZFgRToC5Ef57HQQPl-16" edge="1">
          <mxGeometry width="50" height="50" relative="1" as="geometry">
            <mxPoint x="-170" y="-80" as="sourcePoint" />
            <mxPoint x="-120" y="-80" as="targetPoint" />
            <Array as="points">
              <mxPoint x="-420" y="-260" />
            </Array>
          </mxGeometry>
        </mxCell>
        <mxCell id="Z1-ZFgRToC5Ef57HQQPl-244" value="while" style="edgeLabel;html=1;align=center;verticalAlign=middle;resizable=0;points=[];" parent="Z1-ZFgRToC5Ef57HQQPl-227" vertex="1" connectable="0">
          <mxGeometry x="-0.3767" y="1" relative="1" as="geometry">
            <mxPoint y="12" as="offset" />
          </mxGeometry>
        </mxCell>
        <mxCell id="Z1-ZFgRToC5Ef57HQQPl-230" value="&lt;div style=&quot;font-size: 10px;&quot;&gt;&lt;font style=&quot;font-size: 10px;&quot;&gt;S41&lt;/font&gt;&lt;/div&gt;" style="ellipse;whiteSpace=wrap;html=1;aspect=fixed;fontSize=10;" parent="1" vertex="1">
          <mxGeometry x="-159.99999999999994" y="-350" width="30" height="30" as="geometry" />
        </mxCell>
        <mxCell id="Z1-ZFgRToC5Ef57HQQPl-231" value="" style="endArrow=classic;html=1;rounded=0;entryX=1;entryY=0.5;entryDx=0;entryDy=0;exitX=0;exitY=0.5;exitDx=0;exitDy=0;" parent="1" source="Z1-ZFgRToC5Ef57HQQPl-486" target="Z1-ZFgRToC5Ef57HQQPl-230" edge="1">
          <mxGeometry width="50" height="50" relative="1" as="geometry">
            <mxPoint x="292.57000000000005" y="-332.5" as="sourcePoint" />
            <mxPoint x="772.5700000000002" y="-192.5" as="targetPoint" />
          </mxGeometry>
        </mxCell>
        <mxCell id="Z1-ZFgRToC5Ef57HQQPl-489" value="M" style="edgeLabel;html=1;align=center;verticalAlign=middle;resizable=0;points=[];" parent="Z1-ZFgRToC5Ef57HQQPl-231" vertex="1" connectable="0">
          <mxGeometry x="-0.1015" relative="1" as="geometry">
            <mxPoint as="offset" />
          </mxGeometry>
        </mxCell>
        <mxCell id="Z1-ZFgRToC5Ef57HQQPl-233" value="" style="endArrow=classic;html=1;rounded=0;exitX=1;exitY=0.5;exitDx=0;exitDy=0;entryX=0;entryY=0.5;entryDx=0;entryDy=0;" parent="1" source="Z1-ZFgRToC5Ef57HQQPl-126" target="Z1-ZFgRToC5Ef57HQQPl-129" edge="1">
          <mxGeometry width="50" height="50" relative="1" as="geometry">
            <mxPoint x="12.569999999999993" y="-235" as="sourcePoint" />
            <mxPoint x="142.57" y="-230" as="targetPoint" />
          </mxGeometry>
        </mxCell>
        <mxCell id="Z1-ZFgRToC5Ef57HQQPl-234" value="+" style="edgeLabel;html=1;align=center;verticalAlign=middle;resizable=0;points=[];" parent="Z1-ZFgRToC5Ef57HQQPl-233" vertex="1" connectable="0">
          <mxGeometry x="0.187" y="-1" relative="1" as="geometry">
            <mxPoint as="offset" />
          </mxGeometry>
        </mxCell>
        <mxCell id="Z1-ZFgRToC5Ef57HQQPl-235" value="" style="endArrow=classic;html=1;rounded=0;entryX=0;entryY=0.5;entryDx=0;entryDy=0;exitX=1;exitY=0.5;exitDx=0;exitDy=0;fontStyle=1" parent="1" source="Z1-ZFgRToC5Ef57HQQPl-126" target="Z1-ZFgRToC5Ef57HQQPl-132" edge="1">
          <mxGeometry width="50" height="50" relative="1" as="geometry">
            <mxPoint x="-107.43" y="-125" as="sourcePoint" />
            <mxPoint x="272.56999999999994" y="-85" as="targetPoint" />
          </mxGeometry>
        </mxCell>
        <mxCell id="Z1-ZFgRToC5Ef57HQQPl-236" value="*" style="edgeLabel;html=1;align=center;verticalAlign=middle;resizable=0;points=[];" parent="Z1-ZFgRToC5Ef57HQQPl-235" vertex="1" connectable="0">
          <mxGeometry x="0.066" y="2" relative="1" as="geometry">
            <mxPoint as="offset" />
          </mxGeometry>
        </mxCell>
        <mxCell id="Z1-ZFgRToC5Ef57HQQPl-237" value="" style="endArrow=classic;html=1;rounded=0;entryX=0;entryY=0.5;entryDx=0;entryDy=0;exitX=1;exitY=0.5;exitDx=0;exitDy=0;" parent="1" source="Z1-ZFgRToC5Ef57HQQPl-126" target="p_1b_5cENNqRYTXuGcnv-3" edge="1">
          <mxGeometry width="50" height="50" relative="1" as="geometry">
            <mxPoint x="-107.43" y="-125" as="sourcePoint" />
            <mxPoint x="272.56999999999994" y="-45" as="targetPoint" />
          </mxGeometry>
        </mxCell>
        <mxCell id="Z1-ZFgRToC5Ef57HQQPl-238" value="||" style="edgeLabel;html=1;align=center;verticalAlign=middle;resizable=0;points=[];" parent="Z1-ZFgRToC5Ef57HQQPl-237" vertex="1" connectable="0">
          <mxGeometry x="0.0956" y="-1" relative="1" as="geometry">
            <mxPoint as="offset" />
          </mxGeometry>
        </mxCell>
        <mxCell id="Z1-ZFgRToC5Ef57HQQPl-240" value="" style="endArrow=classic;html=1;rounded=0;entryX=0;entryY=0.5;entryDx=0;entryDy=0;exitX=1;exitY=0.5;exitDx=0;exitDy=0;" parent="1" source="Z1-ZFgRToC5Ef57HQQPl-126" target="p_1b_5cENNqRYTXuGcnv-5" edge="1">
          <mxGeometry width="50" height="50" relative="1" as="geometry">
            <mxPoint x="-107.43" y="-125" as="sourcePoint" />
            <mxPoint x="272.56999999999994" y="-5" as="targetPoint" />
          </mxGeometry>
        </mxCell>
        <mxCell id="Z1-ZFgRToC5Ef57HQQPl-241" value="&amp;amp;&amp;amp;" style="edgeLabel;html=1;align=center;verticalAlign=middle;resizable=0;points=[];" parent="Z1-ZFgRToC5Ef57HQQPl-240" vertex="1" connectable="0">
          <mxGeometry x="0.0028" y="2" relative="1" as="geometry">
            <mxPoint x="-1" as="offset" />
          </mxGeometry>
        </mxCell>
        <mxCell id="Z1-ZFgRToC5Ef57HQQPl-242" value="" style="endArrow=classic;html=1;rounded=0;entryX=0;entryY=0.5;entryDx=0;entryDy=0;exitX=1;exitY=0.5;exitDx=0;exitDy=0;" parent="1" source="Z1-ZFgRToC5Ef57HQQPl-126" target="Z1-ZFgRToC5Ef57HQQPl-141" edge="1">
          <mxGeometry width="50" height="50" relative="1" as="geometry">
            <mxPoint x="-107.43" y="-125" as="sourcePoint" />
            <mxPoint x="272.56999999999994" y="35" as="targetPoint" />
          </mxGeometry>
        </mxCell>
        <mxCell id="Z1-ZFgRToC5Ef57HQQPl-243" value="rop" style="edgeLabel;html=1;align=center;verticalAlign=middle;resizable=0;points=[];" parent="Z1-ZFgRToC5Ef57HQQPl-242" vertex="1" connectable="0">
          <mxGeometry x="0.2087" y="-2" relative="1" as="geometry">
            <mxPoint as="offset" />
          </mxGeometry>
        </mxCell>
        <mxCell id="Z1-ZFgRToC5Ef57HQQPl-245" value="&lt;div style=&quot;font-size: 10px;&quot;&gt;&lt;font style=&quot;font-size: 10px;&quot;&gt;S28&lt;/font&gt;&lt;/div&gt;" style="ellipse;whiteSpace=wrap;html=1;aspect=fixed;fontSize=10;" parent="1" vertex="1">
          <mxGeometry x="180" y="-220" width="30" height="30" as="geometry" />
        </mxCell>
        <mxCell id="Z1-ZFgRToC5Ef57HQQPl-246" value="" style="endArrow=classic;html=1;rounded=0;entryX=0;entryY=0.5;entryDx=0;entryDy=0;exitX=1;exitY=0.5;exitDx=0;exitDy=0;" parent="1" source="Z1-ZFgRToC5Ef57HQQPl-144" target="Z1-ZFgRToC5Ef57HQQPl-245" edge="1">
          <mxGeometry width="50" height="50" relative="1" as="geometry">
            <mxPoint x="-140" y="-325" as="sourcePoint" />
            <mxPoint x="-60" y="230" as="targetPoint" />
          </mxGeometry>
        </mxCell>
        <mxCell id="Z1-ZFgRToC5Ef57HQQPl-248" value="M" style="edgeLabel;html=1;align=center;verticalAlign=middle;resizable=0;points=[];" parent="Z1-ZFgRToC5Ef57HQQPl-246" vertex="1" connectable="0">
          <mxGeometry x="0.3765" y="2" relative="1" as="geometry">
            <mxPoint x="1" as="offset" />
          </mxGeometry>
        </mxCell>
        <mxCell id="Z1-ZFgRToC5Ef57HQQPl-250" value="" style="endArrow=classic;html=1;rounded=0;entryX=1;entryY=0;entryDx=0;entryDy=0;exitX=0;exitY=1;exitDx=0;exitDy=0;" parent="1" source="Z1-ZFgRToC5Ef57HQQPl-129" target="Z1-ZFgRToC5Ef57HQQPl-47" edge="1">
          <mxGeometry width="50" height="50" relative="1" as="geometry">
            <mxPoint x="70" y="-230" as="sourcePoint" />
            <mxPoint x="373" y="-630" as="targetPoint" />
          </mxGeometry>
        </mxCell>
        <mxCell id="Z1-ZFgRToC5Ef57HQQPl-251" value="-" style="edgeLabel;html=1;align=center;verticalAlign=middle;resizable=0;points=[];" parent="Z1-ZFgRToC5Ef57HQQPl-250" vertex="1" connectable="0">
          <mxGeometry x="0.3073" relative="1" as="geometry">
            <mxPoint as="offset" />
          </mxGeometry>
        </mxCell>
        <mxCell id="Z1-ZFgRToC5Ef57HQQPl-252" value="" style="endArrow=classic;html=1;rounded=0;entryX=1;entryY=0.5;entryDx=0;entryDy=0;exitX=0;exitY=1;exitDx=0;exitDy=0;" parent="1" source="Z1-ZFgRToC5Ef57HQQPl-129" target="Z1-ZFgRToC5Ef57HQQPl-30" edge="1">
          <mxGeometry width="50" height="50" relative="1" as="geometry">
            <mxPoint x="70" y="-230" as="sourcePoint" />
            <mxPoint x="373" y="-560" as="targetPoint" />
          </mxGeometry>
        </mxCell>
        <mxCell id="Z1-ZFgRToC5Ef57HQQPl-253" value="id" style="edgeLabel;html=1;align=center;verticalAlign=middle;resizable=0;points=[];" parent="Z1-ZFgRToC5Ef57HQQPl-252" vertex="1" connectable="0">
          <mxGeometry x="0.4278" y="-4" relative="1" as="geometry">
            <mxPoint y="-1" as="offset" />
          </mxGeometry>
        </mxCell>
        <mxCell id="Z1-ZFgRToC5Ef57HQQPl-254" value="" style="endArrow=classic;html=1;rounded=0;entryX=1;entryY=0;entryDx=0;entryDy=0;exitX=0;exitY=1;exitDx=0;exitDy=0;" parent="1" source="Z1-ZFgRToC5Ef57HQQPl-129" target="Z1-ZFgRToC5Ef57HQQPl-53" edge="1">
          <mxGeometry width="50" height="50" relative="1" as="geometry">
            <mxPoint x="70" y="-230" as="sourcePoint" />
            <mxPoint x="373" y="-500" as="targetPoint" />
          </mxGeometry>
        </mxCell>
        <mxCell id="Z1-ZFgRToC5Ef57HQQPl-255" value="not" style="edgeLabel;html=1;align=center;verticalAlign=middle;resizable=0;points=[];" parent="Z1-ZFgRToC5Ef57HQQPl-254" vertex="1" connectable="0">
          <mxGeometry x="0.5337" relative="1" as="geometry">
            <mxPoint as="offset" />
          </mxGeometry>
        </mxCell>
        <mxCell id="Z1-ZFgRToC5Ef57HQQPl-256" value="" style="endArrow=classic;html=1;rounded=0;entryX=1;entryY=0;entryDx=0;entryDy=0;exitX=0;exitY=1;exitDx=0;exitDy=0;" parent="1" source="Z1-ZFgRToC5Ef57HQQPl-129" target="Z1-ZFgRToC5Ef57HQQPl-71" edge="1">
          <mxGeometry width="50" height="50" relative="1" as="geometry">
            <mxPoint x="70" y="-230" as="sourcePoint" />
            <mxPoint x="377" y="-431" as="targetPoint" />
          </mxGeometry>
        </mxCell>
        <mxCell id="Z1-ZFgRToC5Ef57HQQPl-257" value="(" style="edgeLabel;html=1;align=center;verticalAlign=middle;resizable=0;points=[];" parent="Z1-ZFgRToC5Ef57HQQPl-256" vertex="1" connectable="0">
          <mxGeometry x="0.6611" y="3" relative="1" as="geometry">
            <mxPoint as="offset" />
          </mxGeometry>
        </mxCell>
        <mxCell id="Z1-ZFgRToC5Ef57HQQPl-258" value="" style="endArrow=classic;html=1;rounded=0;entryX=1;entryY=0;entryDx=0;entryDy=0;exitX=0;exitY=1;exitDx=0;exitDy=0;" parent="1" source="Z1-ZFgRToC5Ef57HQQPl-129" target="Z1-ZFgRToC5Ef57HQQPl-112" edge="1">
          <mxGeometry width="50" height="50" relative="1" as="geometry">
            <mxPoint x="250" y="-170" as="sourcePoint" />
            <mxPoint x="377" y="-361" as="targetPoint" />
          </mxGeometry>
        </mxCell>
        <mxCell id="Z1-ZFgRToC5Ef57HQQPl-259" value="True" style="edgeLabel;html=1;align=center;verticalAlign=middle;resizable=0;points=[];" parent="Z1-ZFgRToC5Ef57HQQPl-258" vertex="1" connectable="0">
          <mxGeometry x="0.3014" y="5" relative="1" as="geometry">
            <mxPoint as="offset" />
          </mxGeometry>
        </mxCell>
        <mxCell id="Z1-ZFgRToC5Ef57HQQPl-260" value="" style="endArrow=classic;html=1;rounded=0;exitX=0;exitY=1;exitDx=0;exitDy=0;entryX=1;entryY=0;entryDx=0;entryDy=0;" parent="1" source="Z1-ZFgRToC5Ef57HQQPl-129" target="Z1-ZFgRToC5Ef57HQQPl-114" edge="1">
          <mxGeometry width="50" height="50" relative="1" as="geometry">
            <mxPoint x="70" y="-230" as="sourcePoint" />
            <mxPoint x="377" y="-301" as="targetPoint" />
          </mxGeometry>
        </mxCell>
        <mxCell id="Z1-ZFgRToC5Ef57HQQPl-261" value="False" style="edgeLabel;html=1;align=center;verticalAlign=middle;resizable=0;points=[];" parent="Z1-ZFgRToC5Ef57HQQPl-260" vertex="1" connectable="0">
          <mxGeometry x="0.3014" y="5" relative="1" as="geometry">
            <mxPoint as="offset" />
          </mxGeometry>
        </mxCell>
        <mxCell id="Z1-ZFgRToC5Ef57HQQPl-262" value="" style="endArrow=classic;html=1;rounded=0;entryX=1;entryY=0;entryDx=0;entryDy=0;exitX=0;exitY=1;exitDx=0;exitDy=0;" parent="1" source="Z1-ZFgRToC5Ef57HQQPl-132" target="Z1-ZFgRToC5Ef57HQQPl-112" edge="1">
          <mxGeometry width="50" height="50" relative="1" as="geometry">
            <mxPoint x="329" y="110" as="sourcePoint" />
            <mxPoint x="-60" y="168" as="targetPoint" />
          </mxGeometry>
        </mxCell>
        <mxCell id="Z1-ZFgRToC5Ef57HQQPl-263" value="-" style="edgeLabel;html=1;align=center;verticalAlign=middle;resizable=0;points=[];" parent="Z1-ZFgRToC5Ef57HQQPl-262" vertex="1" connectable="0">
          <mxGeometry x="0.3073" relative="1" as="geometry">
            <mxPoint as="offset" />
          </mxGeometry>
        </mxCell>
        <mxCell id="Z1-ZFgRToC5Ef57HQQPl-264" value="" style="endArrow=classic;html=1;rounded=0;entryX=1;entryY=0.5;entryDx=0;entryDy=0;exitX=0;exitY=1;exitDx=0;exitDy=0;" parent="1" source="Z1-ZFgRToC5Ef57HQQPl-132" target="Z1-ZFgRToC5Ef57HQQPl-30" edge="1">
          <mxGeometry width="50" height="50" relative="1" as="geometry">
            <mxPoint x="329" y="110" as="sourcePoint" />
            <mxPoint x="-70" y="234" as="targetPoint" />
          </mxGeometry>
        </mxCell>
        <mxCell id="Z1-ZFgRToC5Ef57HQQPl-265" value="id" style="edgeLabel;html=1;align=center;verticalAlign=middle;resizable=0;points=[];" parent="Z1-ZFgRToC5Ef57HQQPl-264" vertex="1" connectable="0">
          <mxGeometry x="0.4278" y="-4" relative="1" as="geometry">
            <mxPoint y="-1" as="offset" />
          </mxGeometry>
        </mxCell>
        <mxCell id="Z1-ZFgRToC5Ef57HQQPl-266" value="" style="endArrow=classic;html=1;rounded=0;entryX=1;entryY=0;entryDx=0;entryDy=0;exitX=0;exitY=1;exitDx=0;exitDy=0;" parent="1" source="Z1-ZFgRToC5Ef57HQQPl-132" target="Z1-ZFgRToC5Ef57HQQPl-53" edge="1">
          <mxGeometry width="50" height="50" relative="1" as="geometry">
            <mxPoint x="329" y="110" as="sourcePoint" />
            <mxPoint x="-60" y="298" as="targetPoint" />
          </mxGeometry>
        </mxCell>
        <mxCell id="Z1-ZFgRToC5Ef57HQQPl-267" value="not" style="edgeLabel;html=1;align=center;verticalAlign=middle;resizable=0;points=[];" parent="Z1-ZFgRToC5Ef57HQQPl-266" vertex="1" connectable="0">
          <mxGeometry x="0.5337" relative="1" as="geometry">
            <mxPoint as="offset" />
          </mxGeometry>
        </mxCell>
        <mxCell id="Z1-ZFgRToC5Ef57HQQPl-268" value="" style="endArrow=classic;html=1;rounded=0;entryX=1;entryY=0;entryDx=0;entryDy=0;exitX=0;exitY=1;exitDx=0;exitDy=0;" parent="1" source="Z1-ZFgRToC5Ef57HQQPl-132" target="Z1-ZFgRToC5Ef57HQQPl-71" edge="1">
          <mxGeometry width="50" height="50" relative="1" as="geometry">
            <mxPoint x="260" y="-80" as="sourcePoint" />
            <mxPoint x="-60" y="378" as="targetPoint" />
          </mxGeometry>
        </mxCell>
        <mxCell id="Z1-ZFgRToC5Ef57HQQPl-269" value="(" style="edgeLabel;html=1;align=center;verticalAlign=middle;resizable=0;points=[];" parent="Z1-ZFgRToC5Ef57HQQPl-268" vertex="1" connectable="0">
          <mxGeometry x="0.6611" y="3" relative="1" as="geometry">
            <mxPoint as="offset" />
          </mxGeometry>
        </mxCell>
        <mxCell id="Z1-ZFgRToC5Ef57HQQPl-270" value="" style="endArrow=classic;html=1;rounded=0;entryX=1;entryY=0;entryDx=0;entryDy=0;exitX=0;exitY=1;exitDx=0;exitDy=0;" parent="1" source="Z1-ZFgRToC5Ef57HQQPl-132" target="Z1-ZFgRToC5Ef57HQQPl-112" edge="1">
          <mxGeometry width="50" height="50" relative="1" as="geometry">
            <mxPoint x="270" y="-80" as="sourcePoint" />
            <mxPoint x="-60" y="448" as="targetPoint" />
          </mxGeometry>
        </mxCell>
        <mxCell id="Z1-ZFgRToC5Ef57HQQPl-271" value="True" style="edgeLabel;html=1;align=center;verticalAlign=middle;resizable=0;points=[];" parent="Z1-ZFgRToC5Ef57HQQPl-270" vertex="1" connectable="0">
          <mxGeometry x="0.3014" y="5" relative="1" as="geometry">
            <mxPoint as="offset" />
          </mxGeometry>
        </mxCell>
        <mxCell id="Z1-ZFgRToC5Ef57HQQPl-272" value="" style="endArrow=classic;html=1;rounded=0;exitX=0;exitY=1;exitDx=0;exitDy=0;entryX=1;entryY=0;entryDx=0;entryDy=0;" parent="1" source="Z1-ZFgRToC5Ef57HQQPl-132" target="Z1-ZFgRToC5Ef57HQQPl-114" edge="1">
          <mxGeometry width="50" height="50" relative="1" as="geometry">
            <mxPoint x="329" y="110" as="sourcePoint" />
            <mxPoint x="-10" y="290" as="targetPoint" />
          </mxGeometry>
        </mxCell>
        <mxCell id="Z1-ZFgRToC5Ef57HQQPl-273" value="False" style="edgeLabel;html=1;align=center;verticalAlign=middle;resizable=0;points=[];" parent="Z1-ZFgRToC5Ef57HQQPl-272" vertex="1" connectable="0">
          <mxGeometry x="0.3014" y="5" relative="1" as="geometry">
            <mxPoint as="offset" />
          </mxGeometry>
        </mxCell>
        <mxCell id="Z1-ZFgRToC5Ef57HQQPl-274" value="" style="endArrow=classic;html=1;rounded=0;entryX=1;entryY=0;entryDx=0;entryDy=0;exitX=0;exitY=1;exitDx=0;exitDy=0;" parent="1" source="Z1-ZFgRToC5Ef57HQQPl-132" target="Z1-ZFgRToC5Ef57HQQPl-47" edge="1">
          <mxGeometry width="50" height="50" relative="1" as="geometry">
            <mxPoint x="277" y="-114" as="sourcePoint" />
            <mxPoint x="-112" y="-56" as="targetPoint" />
          </mxGeometry>
        </mxCell>
        <mxCell id="Z1-ZFgRToC5Ef57HQQPl-275" value="-" style="edgeLabel;html=1;align=center;verticalAlign=middle;resizable=0;points=[];" parent="Z1-ZFgRToC5Ef57HQQPl-274" vertex="1" connectable="0">
          <mxGeometry x="0.3073" relative="1" as="geometry">
            <mxPoint as="offset" />
          </mxGeometry>
        </mxCell>
        <mxCell id="Z1-ZFgRToC5Ef57HQQPl-276" value="" style="endArrow=classic;html=1;rounded=0;entryX=1;entryY=0.5;entryDx=0;entryDy=0;exitX=0;exitY=1;exitDx=0;exitDy=0;" parent="1" source="Z1-ZFgRToC5Ef57HQQPl-134" target="Z1-ZFgRToC5Ef57HQQPl-30" edge="1">
          <mxGeometry width="50" height="50" relative="1" as="geometry">
            <mxPoint x="409" y="126" as="sourcePoint" />
            <mxPoint x="25" y="225" as="targetPoint" />
          </mxGeometry>
        </mxCell>
        <mxCell id="Z1-ZFgRToC5Ef57HQQPl-277" value="id" style="edgeLabel;html=1;align=center;verticalAlign=middle;resizable=0;points=[];" parent="Z1-ZFgRToC5Ef57HQQPl-276" vertex="1" connectable="0">
          <mxGeometry x="0.4278" y="-4" relative="1" as="geometry">
            <mxPoint y="-1" as="offset" />
          </mxGeometry>
        </mxCell>
        <mxCell id="Z1-ZFgRToC5Ef57HQQPl-278" value="" style="endArrow=classic;html=1;rounded=0;entryX=1;entryY=0;entryDx=0;entryDy=0;exitX=0;exitY=1;exitDx=0;exitDy=0;" parent="1" source="Z1-ZFgRToC5Ef57HQQPl-134" target="Z1-ZFgRToC5Ef57HQQPl-53" edge="1">
          <mxGeometry width="50" height="50" relative="1" as="geometry">
            <mxPoint x="409" y="126" as="sourcePoint" />
            <mxPoint x="20" y="274" as="targetPoint" />
          </mxGeometry>
        </mxCell>
        <mxCell id="Z1-ZFgRToC5Ef57HQQPl-279" value="not" style="edgeLabel;html=1;align=center;verticalAlign=middle;resizable=0;points=[];" parent="Z1-ZFgRToC5Ef57HQQPl-278" vertex="1" connectable="0">
          <mxGeometry x="0.5337" relative="1" as="geometry">
            <mxPoint as="offset" />
          </mxGeometry>
        </mxCell>
        <mxCell id="Z1-ZFgRToC5Ef57HQQPl-280" value="" style="endArrow=classic;html=1;rounded=0;entryX=1;entryY=0;entryDx=0;entryDy=0;exitX=0;exitY=1;exitDx=0;exitDy=0;" parent="1" source="Z1-ZFgRToC5Ef57HQQPl-134" target="Z1-ZFgRToC5Ef57HQQPl-71" edge="1">
          <mxGeometry width="50" height="50" relative="1" as="geometry">
            <mxPoint x="409" y="126" as="sourcePoint" />
            <mxPoint x="20" y="354" as="targetPoint" />
          </mxGeometry>
        </mxCell>
        <mxCell id="Z1-ZFgRToC5Ef57HQQPl-281" value="(" style="edgeLabel;html=1;align=center;verticalAlign=middle;resizable=0;points=[];" parent="Z1-ZFgRToC5Ef57HQQPl-280" vertex="1" connectable="0">
          <mxGeometry x="0.6611" y="3" relative="1" as="geometry">
            <mxPoint as="offset" />
          </mxGeometry>
        </mxCell>
        <mxCell id="Z1-ZFgRToC5Ef57HQQPl-282" value="" style="endArrow=classic;html=1;rounded=0;entryX=1;entryY=0;entryDx=0;entryDy=0;exitX=0;exitY=1;exitDx=0;exitDy=0;" parent="1" source="Z1-ZFgRToC5Ef57HQQPl-134" target="Z1-ZFgRToC5Ef57HQQPl-112" edge="1">
          <mxGeometry width="50" height="50" relative="1" as="geometry">
            <mxPoint x="409" y="126" as="sourcePoint" />
            <mxPoint x="20" y="424" as="targetPoint" />
          </mxGeometry>
        </mxCell>
        <mxCell id="Z1-ZFgRToC5Ef57HQQPl-283" value="True" style="edgeLabel;html=1;align=center;verticalAlign=middle;resizable=0;points=[];" parent="Z1-ZFgRToC5Ef57HQQPl-282" vertex="1" connectable="0">
          <mxGeometry x="0.3014" y="5" relative="1" as="geometry">
            <mxPoint as="offset" />
          </mxGeometry>
        </mxCell>
        <mxCell id="Z1-ZFgRToC5Ef57HQQPl-284" value="" style="endArrow=classic;html=1;rounded=0;exitX=0;exitY=1;exitDx=0;exitDy=0;entryX=1;entryY=0;entryDx=0;entryDy=0;" parent="1" source="Z1-ZFgRToC5Ef57HQQPl-134" target="Z1-ZFgRToC5Ef57HQQPl-114" edge="1">
          <mxGeometry width="50" height="50" relative="1" as="geometry">
            <mxPoint x="409" y="126" as="sourcePoint" />
            <mxPoint x="20" y="484" as="targetPoint" />
          </mxGeometry>
        </mxCell>
        <mxCell id="Z1-ZFgRToC5Ef57HQQPl-285" value="False" style="edgeLabel;html=1;align=center;verticalAlign=middle;resizable=0;points=[];" parent="Z1-ZFgRToC5Ef57HQQPl-284" vertex="1" connectable="0">
          <mxGeometry x="0.3014" y="5" relative="1" as="geometry">
            <mxPoint as="offset" />
          </mxGeometry>
        </mxCell>
        <mxCell id="Z1-ZFgRToC5Ef57HQQPl-286" value="" style="endArrow=classic;html=1;rounded=0;entryX=1;entryY=0;entryDx=0;entryDy=0;exitX=0;exitY=1;exitDx=0;exitDy=0;" parent="1" source="Z1-ZFgRToC5Ef57HQQPl-134" target="Z1-ZFgRToC5Ef57HQQPl-47" edge="1">
          <mxGeometry width="50" height="50" relative="1" as="geometry">
            <mxPoint x="409" y="126" as="sourcePoint" />
            <mxPoint x="20" y="144" as="targetPoint" />
          </mxGeometry>
        </mxCell>
        <mxCell id="Z1-ZFgRToC5Ef57HQQPl-287" value="-" style="edgeLabel;html=1;align=center;verticalAlign=middle;resizable=0;points=[];" parent="Z1-ZFgRToC5Ef57HQQPl-286" vertex="1" connectable="0">
          <mxGeometry x="0.3073" relative="1" as="geometry">
            <mxPoint as="offset" />
          </mxGeometry>
        </mxCell>
        <mxCell id="Z1-ZFgRToC5Ef57HQQPl-288" value="" style="endArrow=classic;html=1;rounded=0;entryX=1;entryY=0.5;entryDx=0;entryDy=0;exitX=0;exitY=1;exitDx=0;exitDy=0;" parent="1" source="Z1-ZFgRToC5Ef57HQQPl-138" target="Z1-ZFgRToC5Ef57HQQPl-30" edge="1">
          <mxGeometry width="50" height="50" relative="1" as="geometry">
            <mxPoint x="371.56999999999994" y="210" as="sourcePoint" />
            <mxPoint x="-12.430000000000007" y="309" as="targetPoint" />
          </mxGeometry>
        </mxCell>
        <mxCell id="Z1-ZFgRToC5Ef57HQQPl-289" value="id" style="edgeLabel;html=1;align=center;verticalAlign=middle;resizable=0;points=[];" parent="Z1-ZFgRToC5Ef57HQQPl-288" vertex="1" connectable="0">
          <mxGeometry x="0.4278" y="-4" relative="1" as="geometry">
            <mxPoint y="-1" as="offset" />
          </mxGeometry>
        </mxCell>
        <mxCell id="Z1-ZFgRToC5Ef57HQQPl-290" value="" style="endArrow=classic;html=1;rounded=0;entryX=1;entryY=0;entryDx=0;entryDy=0;exitX=0;exitY=1;exitDx=0;exitDy=0;" parent="1" source="Z1-ZFgRToC5Ef57HQQPl-138" target="Z1-ZFgRToC5Ef57HQQPl-53" edge="1">
          <mxGeometry width="50" height="50" relative="1" as="geometry">
            <mxPoint x="371.56999999999994" y="210" as="sourcePoint" />
            <mxPoint x="-17.430000000000007" y="358" as="targetPoint" />
          </mxGeometry>
        </mxCell>
        <mxCell id="Z1-ZFgRToC5Ef57HQQPl-291" value="not" style="edgeLabel;html=1;align=center;verticalAlign=middle;resizable=0;points=[];" parent="Z1-ZFgRToC5Ef57HQQPl-290" vertex="1" connectable="0">
          <mxGeometry x="0.5337" relative="1" as="geometry">
            <mxPoint as="offset" />
          </mxGeometry>
        </mxCell>
        <mxCell id="Z1-ZFgRToC5Ef57HQQPl-292" value="" style="endArrow=classic;html=1;rounded=0;entryX=1;entryY=0;entryDx=0;entryDy=0;exitX=0;exitY=1;exitDx=0;exitDy=0;" parent="1" source="Z1-ZFgRToC5Ef57HQQPl-138" target="Z1-ZFgRToC5Ef57HQQPl-71" edge="1">
          <mxGeometry width="50" height="50" relative="1" as="geometry">
            <mxPoint x="371.56999999999994" y="210" as="sourcePoint" />
            <mxPoint x="-17.430000000000007" y="438" as="targetPoint" />
          </mxGeometry>
        </mxCell>
        <mxCell id="Z1-ZFgRToC5Ef57HQQPl-293" value="(" style="edgeLabel;html=1;align=center;verticalAlign=middle;resizable=0;points=[];" parent="Z1-ZFgRToC5Ef57HQQPl-292" vertex="1" connectable="0">
          <mxGeometry x="0.6611" y="3" relative="1" as="geometry">
            <mxPoint as="offset" />
          </mxGeometry>
        </mxCell>
        <mxCell id="Z1-ZFgRToC5Ef57HQQPl-294" value="" style="endArrow=classic;html=1;rounded=0;entryX=1;entryY=0;entryDx=0;entryDy=0;exitX=0;exitY=1;exitDx=0;exitDy=0;" parent="1" source="Z1-ZFgRToC5Ef57HQQPl-138" target="Z1-ZFgRToC5Ef57HQQPl-112" edge="1">
          <mxGeometry width="50" height="50" relative="1" as="geometry">
            <mxPoint x="371.56999999999994" y="210" as="sourcePoint" />
            <mxPoint x="-17.430000000000007" y="508" as="targetPoint" />
          </mxGeometry>
        </mxCell>
        <mxCell id="Z1-ZFgRToC5Ef57HQQPl-295" value="True" style="edgeLabel;html=1;align=center;verticalAlign=middle;resizable=0;points=[];" parent="Z1-ZFgRToC5Ef57HQQPl-294" vertex="1" connectable="0">
          <mxGeometry x="0.3014" y="5" relative="1" as="geometry">
            <mxPoint as="offset" />
          </mxGeometry>
        </mxCell>
        <mxCell id="Z1-ZFgRToC5Ef57HQQPl-296" value="" style="endArrow=classic;html=1;rounded=0;exitX=0;exitY=1;exitDx=0;exitDy=0;entryX=1;entryY=0;entryDx=0;entryDy=0;" parent="1" source="Z1-ZFgRToC5Ef57HQQPl-138" target="Z1-ZFgRToC5Ef57HQQPl-114" edge="1">
          <mxGeometry width="50" height="50" relative="1" as="geometry">
            <mxPoint x="371.56999999999994" y="210" as="sourcePoint" />
            <mxPoint x="-17.430000000000007" y="568" as="targetPoint" />
          </mxGeometry>
        </mxCell>
        <mxCell id="Z1-ZFgRToC5Ef57HQQPl-297" value="False" style="edgeLabel;html=1;align=center;verticalAlign=middle;resizable=0;points=[];" parent="Z1-ZFgRToC5Ef57HQQPl-296" vertex="1" connectable="0">
          <mxGeometry x="0.3014" y="5" relative="1" as="geometry">
            <mxPoint as="offset" />
          </mxGeometry>
        </mxCell>
        <mxCell id="Z1-ZFgRToC5Ef57HQQPl-298" value="" style="endArrow=classic;html=1;rounded=0;entryX=1;entryY=0;entryDx=0;entryDy=0;exitX=0;exitY=1;exitDx=0;exitDy=0;" parent="1" source="Z1-ZFgRToC5Ef57HQQPl-138" target="Z1-ZFgRToC5Ef57HQQPl-47" edge="1">
          <mxGeometry width="50" height="50" relative="1" as="geometry">
            <mxPoint x="372" y="210" as="sourcePoint" />
            <mxPoint x="-17.430000000000007" y="228" as="targetPoint" />
          </mxGeometry>
        </mxCell>
        <mxCell id="Z1-ZFgRToC5Ef57HQQPl-299" value="-" style="edgeLabel;html=1;align=center;verticalAlign=middle;resizable=0;points=[];" parent="Z1-ZFgRToC5Ef57HQQPl-298" vertex="1" connectable="0">
          <mxGeometry x="0.3073" relative="1" as="geometry">
            <mxPoint as="offset" />
          </mxGeometry>
        </mxCell>
        <mxCell id="Z1-ZFgRToC5Ef57HQQPl-300" value="&lt;div style=&quot;font-size: 10px;&quot;&gt;&lt;font style=&quot;font-size: 10px;&quot;&gt;S29&lt;/font&gt;&lt;/div&gt;" style="ellipse;whiteSpace=wrap;html=1;aspect=fixed;fontSize=10;" parent="1" vertex="1">
          <mxGeometry x="477" y="-350" width="30" height="30" as="geometry" />
        </mxCell>
        <mxCell id="Z1-ZFgRToC5Ef57HQQPl-301" value="" style="endArrow=classic;html=1;rounded=0;entryX=0;entryY=0.5;entryDx=0;entryDy=0;exitX=1;exitY=0.5;exitDx=0;exitDy=0;" parent="1" source="Z1-ZFgRToC5Ef57HQQPl-129" target="Z1-ZFgRToC5Ef57HQQPl-300" edge="1">
          <mxGeometry width="50" height="50" relative="1" as="geometry">
            <mxPoint x="-140" y="-325" as="sourcePoint" />
            <mxPoint x="-60" y="230" as="targetPoint" />
          </mxGeometry>
        </mxCell>
        <mxCell id="Z1-ZFgRToC5Ef57HQQPl-303" value="E" style="edgeLabel;html=1;align=center;verticalAlign=middle;resizable=0;points=[];" parent="Z1-ZFgRToC5Ef57HQQPl-301" vertex="1" connectable="0">
          <mxGeometry x="-0.0138" y="1" relative="1" as="geometry">
            <mxPoint as="offset" />
          </mxGeometry>
        </mxCell>
        <mxCell id="Z1-ZFgRToC5Ef57HQQPl-304" value="&lt;div style=&quot;font-size: 10px;&quot;&gt;&lt;font style=&quot;font-size: 10px;&quot;&gt;S33&lt;/font&gt;&lt;/div&gt;" style="ellipse;whiteSpace=wrap;html=1;aspect=fixed;fontSize=10;" parent="1" vertex="1">
          <mxGeometry x="477" y="60" width="30" height="30" as="geometry" />
        </mxCell>
        <mxCell id="Z1-ZFgRToC5Ef57HQQPl-305" value="" style="endArrow=classic;html=1;rounded=0;entryX=0;entryY=0.5;entryDx=0;entryDy=0;exitX=1;exitY=0.5;exitDx=0;exitDy=0;" parent="1" source="Z1-ZFgRToC5Ef57HQQPl-141" target="Z1-ZFgRToC5Ef57HQQPl-304" edge="1">
          <mxGeometry width="50" height="50" relative="1" as="geometry">
            <mxPoint x="303" y="-125" as="sourcePoint" />
            <mxPoint x="-50" y="240" as="targetPoint" />
          </mxGeometry>
        </mxCell>
        <mxCell id="Z1-ZFgRToC5Ef57HQQPl-306" value="E" style="edgeLabel;html=1;align=center;verticalAlign=middle;resizable=0;points=[];" parent="Z1-ZFgRToC5Ef57HQQPl-305" vertex="1" connectable="0">
          <mxGeometry x="-0.0138" y="1" relative="1" as="geometry">
            <mxPoint as="offset" />
          </mxGeometry>
        </mxCell>
        <mxCell id="Z1-ZFgRToC5Ef57HQQPl-307" value="&lt;div style=&quot;font-size: 10px;&quot;&gt;&lt;font style=&quot;font-size: 10px;&quot;&gt;S32&lt;/font&gt;&lt;/div&gt;" style="ellipse;whiteSpace=wrap;html=1;aspect=fixed;fontSize=10;" parent="1" vertex="1">
          <mxGeometry x="477" y="-40" width="30" height="30" as="geometry" />
        </mxCell>
        <mxCell id="Z1-ZFgRToC5Ef57HQQPl-308" value="" style="endArrow=classic;html=1;rounded=0;entryX=0;entryY=0.5;entryDx=0;entryDy=0;exitX=1;exitY=0.5;exitDx=0;exitDy=0;" parent="1" source="Z1-ZFgRToC5Ef57HQQPl-138" target="Z1-ZFgRToC5Ef57HQQPl-307" edge="1">
          <mxGeometry width="50" height="50" relative="1" as="geometry">
            <mxPoint x="313" y="-115" as="sourcePoint" />
            <mxPoint x="-40" y="250" as="targetPoint" />
          </mxGeometry>
        </mxCell>
        <mxCell id="Z1-ZFgRToC5Ef57HQQPl-309" value="E" style="edgeLabel;html=1;align=center;verticalAlign=middle;resizable=0;points=[];" parent="Z1-ZFgRToC5Ef57HQQPl-308" vertex="1" connectable="0">
          <mxGeometry x="-0.0138" y="1" relative="1" as="geometry">
            <mxPoint as="offset" />
          </mxGeometry>
        </mxCell>
        <mxCell id="Z1-ZFgRToC5Ef57HQQPl-316" value="&lt;div style=&quot;font-size: 10px;&quot;&gt;&lt;font style=&quot;font-size: 10px;&quot;&gt;S30&lt;/font&gt;&lt;/div&gt;" style="ellipse;whiteSpace=wrap;html=1;aspect=fixed;fontSize=10;" parent="1" vertex="1">
          <mxGeometry x="477" y="-240" width="30" height="30" as="geometry" />
        </mxCell>
        <mxCell id="Z1-ZFgRToC5Ef57HQQPl-317" value="" style="endArrow=classic;html=1;rounded=0;entryX=0;entryY=0.5;entryDx=0;entryDy=0;exitX=1;exitY=0.5;exitDx=0;exitDy=0;" parent="1" source="Z1-ZFgRToC5Ef57HQQPl-132" target="Z1-ZFgRToC5Ef57HQQPl-316" edge="1">
          <mxGeometry width="50" height="50" relative="1" as="geometry">
            <mxPoint x="343" y="-85" as="sourcePoint" />
            <mxPoint x="-10" y="280" as="targetPoint" />
          </mxGeometry>
        </mxCell>
        <mxCell id="Z1-ZFgRToC5Ef57HQQPl-318" value="E" style="edgeLabel;html=1;align=center;verticalAlign=middle;resizable=0;points=[];" parent="Z1-ZFgRToC5Ef57HQQPl-317" vertex="1" connectable="0">
          <mxGeometry x="-0.0138" y="1" relative="1" as="geometry">
            <mxPoint as="offset" />
          </mxGeometry>
        </mxCell>
        <mxCell id="Z1-ZFgRToC5Ef57HQQPl-319" value="&lt;div style=&quot;font-size: 10px;&quot;&gt;&lt;font style=&quot;font-size: 10px;&quot;&gt;S31&lt;/font&gt;&lt;/div&gt;" style="ellipse;whiteSpace=wrap;html=1;aspect=fixed;fontSize=10;" parent="1" vertex="1">
          <mxGeometry x="477" y="-160" width="30" height="30" as="geometry" />
        </mxCell>
        <mxCell id="Z1-ZFgRToC5Ef57HQQPl-320" value="" style="endArrow=classic;html=1;rounded=0;entryX=0;entryY=0.5;entryDx=0;entryDy=0;exitX=1;exitY=0.5;exitDx=0;exitDy=0;" parent="1" source="Z1-ZFgRToC5Ef57HQQPl-134" target="Z1-ZFgRToC5Ef57HQQPl-319" edge="1">
          <mxGeometry width="50" height="50" relative="1" as="geometry">
            <mxPoint x="353" y="-75" as="sourcePoint" />
            <mxPoint y="290" as="targetPoint" />
          </mxGeometry>
        </mxCell>
        <mxCell id="Z1-ZFgRToC5Ef57HQQPl-321" value="E" style="edgeLabel;html=1;align=center;verticalAlign=middle;resizable=0;points=[];" parent="Z1-ZFgRToC5Ef57HQQPl-320" vertex="1" connectable="0">
          <mxGeometry x="-0.0138" y="1" relative="1" as="geometry">
            <mxPoint as="offset" />
          </mxGeometry>
        </mxCell>
        <mxCell id="Z1-ZFgRToC5Ef57HQQPl-326" value="" style="endArrow=classic;html=1;rounded=0;entryX=1;entryY=0.5;entryDx=0;entryDy=0;exitX=0;exitY=1;exitDx=0;exitDy=0;" parent="1" source="Z1-ZFgRToC5Ef57HQQPl-141" target="Z1-ZFgRToC5Ef57HQQPl-30" edge="1">
          <mxGeometry width="50" height="50" relative="1" as="geometry">
            <mxPoint x="381.56999999999994" y="220" as="sourcePoint" />
            <mxPoint x="-2.430000000000007" y="319" as="targetPoint" />
          </mxGeometry>
        </mxCell>
        <mxCell id="Z1-ZFgRToC5Ef57HQQPl-327" value="id" style="edgeLabel;html=1;align=center;verticalAlign=middle;resizable=0;points=[];" parent="Z1-ZFgRToC5Ef57HQQPl-326" vertex="1" connectable="0">
          <mxGeometry x="0.4278" y="-4" relative="1" as="geometry">
            <mxPoint y="-1" as="offset" />
          </mxGeometry>
        </mxCell>
        <mxCell id="Z1-ZFgRToC5Ef57HQQPl-328" value="" style="endArrow=classic;html=1;rounded=0;entryX=1;entryY=0;entryDx=0;entryDy=0;exitX=0;exitY=1;exitDx=0;exitDy=0;" parent="1" source="Z1-ZFgRToC5Ef57HQQPl-141" target="Z1-ZFgRToC5Ef57HQQPl-53" edge="1">
          <mxGeometry width="50" height="50" relative="1" as="geometry">
            <mxPoint x="160" y="190" as="sourcePoint" />
            <mxPoint x="-7.430000000000007" y="368" as="targetPoint" />
          </mxGeometry>
        </mxCell>
        <mxCell id="Z1-ZFgRToC5Ef57HQQPl-329" value="not" style="edgeLabel;html=1;align=center;verticalAlign=middle;resizable=0;points=[];" parent="Z1-ZFgRToC5Ef57HQQPl-328" vertex="1" connectable="0">
          <mxGeometry x="0.5337" relative="1" as="geometry">
            <mxPoint as="offset" />
          </mxGeometry>
        </mxCell>
        <mxCell id="Z1-ZFgRToC5Ef57HQQPl-332" value="" style="endArrow=classic;html=1;rounded=0;entryX=1;entryY=0;entryDx=0;entryDy=0;exitX=0;exitY=1;exitDx=0;exitDy=0;" parent="1" source="Z1-ZFgRToC5Ef57HQQPl-141" target="Z1-ZFgRToC5Ef57HQQPl-112" edge="1">
          <mxGeometry width="50" height="50" relative="1" as="geometry">
            <mxPoint x="381.56999999999994" y="220" as="sourcePoint" />
            <mxPoint x="-7.430000000000007" y="518" as="targetPoint" />
          </mxGeometry>
        </mxCell>
        <mxCell id="Z1-ZFgRToC5Ef57HQQPl-333" value="True" style="edgeLabel;html=1;align=center;verticalAlign=middle;resizable=0;points=[];" parent="Z1-ZFgRToC5Ef57HQQPl-332" vertex="1" connectable="0">
          <mxGeometry x="0.3014" y="5" relative="1" as="geometry">
            <mxPoint as="offset" />
          </mxGeometry>
        </mxCell>
        <mxCell id="Z1-ZFgRToC5Ef57HQQPl-334" value="" style="endArrow=classic;html=1;rounded=0;exitX=0;exitY=1;exitDx=0;exitDy=0;entryX=1;entryY=0;entryDx=0;entryDy=0;" parent="1" source="Z1-ZFgRToC5Ef57HQQPl-141" target="Z1-ZFgRToC5Ef57HQQPl-114" edge="1">
          <mxGeometry width="50" height="50" relative="1" as="geometry">
            <mxPoint x="381.56999999999994" y="220" as="sourcePoint" />
            <mxPoint x="-7.430000000000007" y="578" as="targetPoint" />
          </mxGeometry>
        </mxCell>
        <mxCell id="Z1-ZFgRToC5Ef57HQQPl-335" value="False" style="edgeLabel;html=1;align=center;verticalAlign=middle;resizable=0;points=[];" parent="Z1-ZFgRToC5Ef57HQQPl-334" vertex="1" connectable="0">
          <mxGeometry x="0.3014" y="5" relative="1" as="geometry">
            <mxPoint as="offset" />
          </mxGeometry>
        </mxCell>
        <mxCell id="Z1-ZFgRToC5Ef57HQQPl-336" value="" style="endArrow=classic;html=1;rounded=0;entryX=1;entryY=0;entryDx=0;entryDy=0;exitX=0;exitY=1;exitDx=0;exitDy=0;" parent="1" source="Z1-ZFgRToC5Ef57HQQPl-141" target="Z1-ZFgRToC5Ef57HQQPl-47" edge="1">
          <mxGeometry width="50" height="50" relative="1" as="geometry">
            <mxPoint x="382" y="220" as="sourcePoint" />
            <mxPoint x="-7.430000000000007" y="238" as="targetPoint" />
          </mxGeometry>
        </mxCell>
        <mxCell id="Z1-ZFgRToC5Ef57HQQPl-337" value="-" style="edgeLabel;html=1;align=center;verticalAlign=middle;resizable=0;points=[];" parent="Z1-ZFgRToC5Ef57HQQPl-336" vertex="1" connectable="0">
          <mxGeometry x="0.3073" relative="1" as="geometry">
            <mxPoint as="offset" />
          </mxGeometry>
        </mxCell>
        <mxCell id="Z1-ZFgRToC5Ef57HQQPl-339" value="" style="endArrow=classic;html=1;rounded=0;entryX=1;entryY=0;entryDx=0;entryDy=0;exitX=0;exitY=1;exitDx=0;exitDy=0;" parent="1" source="Z1-ZFgRToC5Ef57HQQPl-141" target="Z1-ZFgRToC5Ef57HQQPl-71" edge="1">
          <mxGeometry width="50" height="50" relative="1" as="geometry">
            <mxPoint x="277" y="6" as="sourcePoint" />
            <mxPoint x="-112" y="154" as="targetPoint" />
          </mxGeometry>
        </mxCell>
        <mxCell id="Z1-ZFgRToC5Ef57HQQPl-340" value="(" style="edgeLabel;html=1;align=center;verticalAlign=middle;resizable=0;points=[];" parent="Z1-ZFgRToC5Ef57HQQPl-339" vertex="1" connectable="0">
          <mxGeometry x="0.6611" y="3" relative="1" as="geometry">
            <mxPoint as="offset" />
          </mxGeometry>
        </mxCell>
        <mxCell id="Z1-ZFgRToC5Ef57HQQPl-345" value="" style="endArrow=classic;html=1;rounded=0;exitX=0;exitY=0;exitDx=0;exitDy=0;entryX=0.5;entryY=0;entryDx=0;entryDy=0;" parent="1" source="Z1-ZFgRToC5Ef57HQQPl-80" target="Z1-ZFgRToC5Ef57HQQPl-19" edge="1">
          <mxGeometry width="50" height="50" relative="1" as="geometry">
            <mxPoint x="-110" y="70" as="sourcePoint" />
            <mxPoint x="-60" y="20" as="targetPoint" />
            <Array as="points" />
          </mxGeometry>
        </mxCell>
        <mxCell id="Z1-ZFgRToC5Ef57HQQPl-346" value="；" style="edgeLabel;html=1;align=center;verticalAlign=middle;resizable=0;points=[];" parent="Z1-ZFgRToC5Ef57HQQPl-345" vertex="1" connectable="0">
          <mxGeometry x="-0.1071" y="1" relative="1" as="geometry">
            <mxPoint x="-1" as="offset" />
          </mxGeometry>
        </mxCell>
        <mxCell id="Z1-ZFgRToC5Ef57HQQPl-347" value="" style="endArrow=classic;html=1;rounded=0;entryX=1;entryY=1;entryDx=0;entryDy=0;exitX=0;exitY=0;exitDx=0;exitDy=0;" parent="1" source="Z1-ZFgRToC5Ef57HQQPl-219" target="Z1-ZFgRToC5Ef57HQQPl-129" edge="1">
          <mxGeometry width="50" height="50" relative="1" as="geometry">
            <mxPoint x="254" y="310" as="sourcePoint" />
            <mxPoint x="677" y="350" as="targetPoint" />
          </mxGeometry>
        </mxCell>
        <mxCell id="Z1-ZFgRToC5Ef57HQQPl-348" value="+" style="edgeLabel;html=1;align=center;verticalAlign=middle;resizable=0;points=[];" parent="Z1-ZFgRToC5Ef57HQQPl-347" vertex="1" connectable="0">
          <mxGeometry x="-0.0769" y="1" relative="1" as="geometry">
            <mxPoint as="offset" />
          </mxGeometry>
        </mxCell>
        <mxCell id="Z1-ZFgRToC5Ef57HQQPl-349" value="" style="endArrow=classic;html=1;rounded=0;entryX=1;entryY=1;entryDx=0;entryDy=0;exitX=0;exitY=0;exitDx=0;exitDy=0;fontStyle=1" parent="1" source="Z1-ZFgRToC5Ef57HQQPl-219" target="Z1-ZFgRToC5Ef57HQQPl-132" edge="1">
          <mxGeometry width="50" height="50" relative="1" as="geometry">
            <mxPoint x="254" y="310" as="sourcePoint" />
            <mxPoint x="677" y="390" as="targetPoint" />
          </mxGeometry>
        </mxCell>
        <mxCell id="Z1-ZFgRToC5Ef57HQQPl-350" value="*" style="edgeLabel;html=1;align=center;verticalAlign=middle;resizable=0;points=[];" parent="Z1-ZFgRToC5Ef57HQQPl-349" vertex="1" connectable="0">
          <mxGeometry x="0.066" y="2" relative="1" as="geometry">
            <mxPoint as="offset" />
          </mxGeometry>
        </mxCell>
        <mxCell id="Z1-ZFgRToC5Ef57HQQPl-351" value="" style="endArrow=classic;html=1;rounded=0;entryX=1;entryY=1;entryDx=0;entryDy=0;exitX=0;exitY=0;exitDx=0;exitDy=0;" parent="1" source="Z1-ZFgRToC5Ef57HQQPl-219" target="p_1b_5cENNqRYTXuGcnv-3" edge="1">
          <mxGeometry width="50" height="50" relative="1" as="geometry">
            <mxPoint x="254" y="310" as="sourcePoint" />
            <mxPoint x="677" y="430" as="targetPoint" />
          </mxGeometry>
        </mxCell>
        <mxCell id="Z1-ZFgRToC5Ef57HQQPl-352" value="||" style="edgeLabel;html=1;align=center;verticalAlign=middle;resizable=0;points=[];" parent="Z1-ZFgRToC5Ef57HQQPl-351" vertex="1" connectable="0">
          <mxGeometry x="0.0956" y="-1" relative="1" as="geometry">
            <mxPoint as="offset" />
          </mxGeometry>
        </mxCell>
        <mxCell id="Z1-ZFgRToC5Ef57HQQPl-353" value="" style="endArrow=classic;html=1;rounded=0;entryX=1;entryY=0.5;entryDx=0;entryDy=0;exitX=0;exitY=0;exitDx=0;exitDy=0;" parent="1" source="Z1-ZFgRToC5Ef57HQQPl-219" target="p_1b_5cENNqRYTXuGcnv-5" edge="1">
          <mxGeometry width="50" height="50" relative="1" as="geometry">
            <mxPoint x="254" y="310" as="sourcePoint" />
            <mxPoint x="677" y="470" as="targetPoint" />
          </mxGeometry>
        </mxCell>
        <mxCell id="Z1-ZFgRToC5Ef57HQQPl-354" value="&amp;amp;&amp;amp;" style="edgeLabel;html=1;align=center;verticalAlign=middle;resizable=0;points=[];" parent="Z1-ZFgRToC5Ef57HQQPl-353" vertex="1" connectable="0">
          <mxGeometry x="0.0028" y="2" relative="1" as="geometry">
            <mxPoint x="-1" as="offset" />
          </mxGeometry>
        </mxCell>
        <mxCell id="Z1-ZFgRToC5Ef57HQQPl-355" value="" style="endArrow=classic;html=1;rounded=0;entryX=1;entryY=1;entryDx=0;entryDy=0;exitX=0;exitY=0;exitDx=0;exitDy=0;" parent="1" source="Z1-ZFgRToC5Ef57HQQPl-219" target="Z1-ZFgRToC5Ef57HQQPl-141" edge="1">
          <mxGeometry width="50" height="50" relative="1" as="geometry">
            <mxPoint x="254" y="310" as="sourcePoint" />
            <mxPoint x="677" y="510" as="targetPoint" />
          </mxGeometry>
        </mxCell>
        <mxCell id="Z1-ZFgRToC5Ef57HQQPl-356" value="rop" style="edgeLabel;html=1;align=center;verticalAlign=middle;resizable=0;points=[];" parent="Z1-ZFgRToC5Ef57HQQPl-355" vertex="1" connectable="0">
          <mxGeometry x="0.2087" y="-2" relative="1" as="geometry">
            <mxPoint as="offset" />
          </mxGeometry>
        </mxCell>
        <mxCell id="Z1-ZFgRToC5Ef57HQQPl-357" value="" style="endArrow=classic;html=1;rounded=0;entryX=1;entryY=1;entryDx=0;entryDy=0;exitX=0;exitY=0;exitDx=0;exitDy=0;" parent="1" source="Z1-ZFgRToC5Ef57HQQPl-149" target="Z1-ZFgRToC5Ef57HQQPl-129" edge="1">
          <mxGeometry width="50" height="50" relative="1" as="geometry">
            <mxPoint x="869.5699999999999" y="320" as="sourcePoint" />
            <mxPoint x="292.57000000000005" y="-248" as="targetPoint" />
          </mxGeometry>
        </mxCell>
        <mxCell id="Z1-ZFgRToC5Ef57HQQPl-358" value="+" style="edgeLabel;html=1;align=center;verticalAlign=middle;resizable=0;points=[];" parent="Z1-ZFgRToC5Ef57HQQPl-357" vertex="1" connectable="0">
          <mxGeometry x="-0.0769" y="1" relative="1" as="geometry">
            <mxPoint as="offset" />
          </mxGeometry>
        </mxCell>
        <mxCell id="Z1-ZFgRToC5Ef57HQQPl-359" value="" style="endArrow=classic;html=1;rounded=0;entryX=1;entryY=1;entryDx=0;entryDy=0;exitX=0;exitY=0;exitDx=0;exitDy=0;fontStyle=1" parent="1" source="Z1-ZFgRToC5Ef57HQQPl-149" target="Z1-ZFgRToC5Ef57HQQPl-132" edge="1">
          <mxGeometry width="50" height="50" relative="1" as="geometry">
            <mxPoint x="869.5699999999999" y="320" as="sourcePoint" />
            <mxPoint x="292.57000000000005" y="-208" as="targetPoint" />
          </mxGeometry>
        </mxCell>
        <mxCell id="Z1-ZFgRToC5Ef57HQQPl-360" value="*" style="edgeLabel;html=1;align=center;verticalAlign=middle;resizable=0;points=[];" parent="Z1-ZFgRToC5Ef57HQQPl-359" vertex="1" connectable="0">
          <mxGeometry x="0.066" y="2" relative="1" as="geometry">
            <mxPoint as="offset" />
          </mxGeometry>
        </mxCell>
        <mxCell id="Z1-ZFgRToC5Ef57HQQPl-361" value="" style="endArrow=classic;html=1;rounded=0;entryX=1;entryY=1;entryDx=0;entryDy=0;exitX=0;exitY=0;exitDx=0;exitDy=0;" parent="1" source="Z1-ZFgRToC5Ef57HQQPl-149" target="p_1b_5cENNqRYTXuGcnv-3" edge="1">
          <mxGeometry width="50" height="50" relative="1" as="geometry">
            <mxPoint x="869.5699999999999" y="320" as="sourcePoint" />
            <mxPoint x="292.57000000000005" y="-168" as="targetPoint" />
          </mxGeometry>
        </mxCell>
        <mxCell id="Z1-ZFgRToC5Ef57HQQPl-362" value="||" style="edgeLabel;html=1;align=center;verticalAlign=middle;resizable=0;points=[];" parent="Z1-ZFgRToC5Ef57HQQPl-361" vertex="1" connectable="0">
          <mxGeometry x="0.0956" y="-1" relative="1" as="geometry">
            <mxPoint as="offset" />
          </mxGeometry>
        </mxCell>
        <mxCell id="Z1-ZFgRToC5Ef57HQQPl-363" value="" style="endArrow=classic;html=1;rounded=0;entryX=1;entryY=0.5;entryDx=0;entryDy=0;exitX=0;exitY=0;exitDx=0;exitDy=0;" parent="1" source="Z1-ZFgRToC5Ef57HQQPl-149" target="p_1b_5cENNqRYTXuGcnv-5" edge="1">
          <mxGeometry width="50" height="50" relative="1" as="geometry">
            <mxPoint x="869.5699999999999" y="320" as="sourcePoint" />
            <mxPoint x="292.57000000000005" y="-128" as="targetPoint" />
          </mxGeometry>
        </mxCell>
        <mxCell id="Z1-ZFgRToC5Ef57HQQPl-364" value="&amp;amp;&amp;amp;" style="edgeLabel;html=1;align=center;verticalAlign=middle;resizable=0;points=[];" parent="Z1-ZFgRToC5Ef57HQQPl-363" vertex="1" connectable="0">
          <mxGeometry x="0.0028" y="2" relative="1" as="geometry">
            <mxPoint x="-1" as="offset" />
          </mxGeometry>
        </mxCell>
        <mxCell id="Z1-ZFgRToC5Ef57HQQPl-365" value="" style="endArrow=classic;html=1;rounded=0;entryX=1;entryY=1;entryDx=0;entryDy=0;exitX=0;exitY=0;exitDx=0;exitDy=0;" parent="1" source="Z1-ZFgRToC5Ef57HQQPl-149" target="Z1-ZFgRToC5Ef57HQQPl-141" edge="1">
          <mxGeometry width="50" height="50" relative="1" as="geometry">
            <mxPoint x="869.5699999999999" y="320" as="sourcePoint" />
            <mxPoint x="292.57000000000005" y="-88" as="targetPoint" />
          </mxGeometry>
        </mxCell>
        <mxCell id="Z1-ZFgRToC5Ef57HQQPl-366" value="rop" style="edgeLabel;html=1;align=center;verticalAlign=middle;resizable=0;points=[];" parent="Z1-ZFgRToC5Ef57HQQPl-365" vertex="1" connectable="0">
          <mxGeometry x="0.2087" y="-2" relative="1" as="geometry">
            <mxPoint as="offset" />
          </mxGeometry>
        </mxCell>
        <mxCell id="Z1-ZFgRToC5Ef57HQQPl-367" value="" style="endArrow=classic;html=1;rounded=0;entryX=1;entryY=1;entryDx=0;entryDy=0;exitX=0;exitY=0;exitDx=0;exitDy=0;" parent="1" source="Z1-ZFgRToC5Ef57HQQPl-147" target="Z1-ZFgRToC5Ef57HQQPl-129" edge="1">
          <mxGeometry width="50" height="50" relative="1" as="geometry">
            <mxPoint x="857" y="138" as="sourcePoint" />
            <mxPoint x="280" y="-430" as="targetPoint" />
          </mxGeometry>
        </mxCell>
        <mxCell id="Z1-ZFgRToC5Ef57HQQPl-368" value="+" style="edgeLabel;html=1;align=center;verticalAlign=middle;resizable=0;points=[];" parent="Z1-ZFgRToC5Ef57HQQPl-367" vertex="1" connectable="0">
          <mxGeometry x="-0.0769" y="1" relative="1" as="geometry">
            <mxPoint as="offset" />
          </mxGeometry>
        </mxCell>
        <mxCell id="Z1-ZFgRToC5Ef57HQQPl-369" value="" style="endArrow=classic;html=1;rounded=0;entryX=1;entryY=1;entryDx=0;entryDy=0;exitX=0;exitY=0;exitDx=0;exitDy=0;fontStyle=1" parent="1" source="Z1-ZFgRToC5Ef57HQQPl-147" target="Z1-ZFgRToC5Ef57HQQPl-132" edge="1">
          <mxGeometry width="50" height="50" relative="1" as="geometry">
            <mxPoint x="857" y="138" as="sourcePoint" />
            <mxPoint x="280" y="-390" as="targetPoint" />
          </mxGeometry>
        </mxCell>
        <mxCell id="Z1-ZFgRToC5Ef57HQQPl-370" value="*" style="edgeLabel;html=1;align=center;verticalAlign=middle;resizable=0;points=[];" parent="Z1-ZFgRToC5Ef57HQQPl-369" vertex="1" connectable="0">
          <mxGeometry x="0.066" y="2" relative="1" as="geometry">
            <mxPoint as="offset" />
          </mxGeometry>
        </mxCell>
        <mxCell id="Z1-ZFgRToC5Ef57HQQPl-371" value="" style="endArrow=classic;html=1;rounded=0;entryX=1;entryY=1;entryDx=0;entryDy=0;exitX=0;exitY=0;exitDx=0;exitDy=0;" parent="1" source="Z1-ZFgRToC5Ef57HQQPl-147" target="p_1b_5cENNqRYTXuGcnv-3" edge="1">
          <mxGeometry width="50" height="50" relative="1" as="geometry">
            <mxPoint x="857" y="138" as="sourcePoint" />
            <mxPoint x="280" y="-350" as="targetPoint" />
          </mxGeometry>
        </mxCell>
        <mxCell id="Z1-ZFgRToC5Ef57HQQPl-372" value="||" style="edgeLabel;html=1;align=center;verticalAlign=middle;resizable=0;points=[];" parent="Z1-ZFgRToC5Ef57HQQPl-371" vertex="1" connectable="0">
          <mxGeometry x="0.0956" y="-1" relative="1" as="geometry">
            <mxPoint as="offset" />
          </mxGeometry>
        </mxCell>
        <mxCell id="Z1-ZFgRToC5Ef57HQQPl-373" value="" style="endArrow=classic;html=1;rounded=0;entryX=1;entryY=0.5;entryDx=0;entryDy=0;exitX=0;exitY=0;exitDx=0;exitDy=0;" parent="1" source="Z1-ZFgRToC5Ef57HQQPl-147" target="p_1b_5cENNqRYTXuGcnv-5" edge="1">
          <mxGeometry width="50" height="50" relative="1" as="geometry">
            <mxPoint x="857" y="138" as="sourcePoint" />
            <mxPoint x="280" y="-310" as="targetPoint" />
          </mxGeometry>
        </mxCell>
        <mxCell id="Z1-ZFgRToC5Ef57HQQPl-374" value="&amp;amp;&amp;amp;" style="edgeLabel;html=1;align=center;verticalAlign=middle;resizable=0;points=[];" parent="Z1-ZFgRToC5Ef57HQQPl-373" vertex="1" connectable="0">
          <mxGeometry x="0.0028" y="2" relative="1" as="geometry">
            <mxPoint x="-1" as="offset" />
          </mxGeometry>
        </mxCell>
        <mxCell id="Z1-ZFgRToC5Ef57HQQPl-375" value="" style="endArrow=classic;html=1;rounded=0;entryX=1;entryY=1;entryDx=0;entryDy=0;exitX=0;exitY=0;exitDx=0;exitDy=0;" parent="1" source="Z1-ZFgRToC5Ef57HQQPl-147" target="Z1-ZFgRToC5Ef57HQQPl-141" edge="1">
          <mxGeometry width="50" height="50" relative="1" as="geometry">
            <mxPoint x="857" y="138" as="sourcePoint" />
            <mxPoint x="280" y="-270" as="targetPoint" />
          </mxGeometry>
        </mxCell>
        <mxCell id="Z1-ZFgRToC5Ef57HQQPl-376" value="rop" style="edgeLabel;html=1;align=center;verticalAlign=middle;resizable=0;points=[];" parent="Z1-ZFgRToC5Ef57HQQPl-375" vertex="1" connectable="0">
          <mxGeometry x="0.2087" y="-2" relative="1" as="geometry">
            <mxPoint as="offset" />
          </mxGeometry>
        </mxCell>
        <mxCell id="Z1-ZFgRToC5Ef57HQQPl-377" value="&lt;div style=&quot;font-size: 10px;&quot;&gt;S34&lt;/div&gt;" style="ellipse;whiteSpace=wrap;html=1;aspect=fixed;fontSize=10;" parent="1" vertex="1">
          <mxGeometry x="179.99999999999994" y="290" width="30" height="30" as="geometry" />
        </mxCell>
        <mxCell id="Z1-ZFgRToC5Ef57HQQPl-378" value="" style="endArrow=classic;html=1;rounded=0;entryX=1;entryY=0.5;entryDx=0;entryDy=0;exitX=0;exitY=0;exitDx=0;exitDy=0;" parent="1" source="Z1-ZFgRToC5Ef57HQQPl-149" target="Z1-ZFgRToC5Ef57HQQPl-377" edge="1">
          <mxGeometry width="50" height="50" relative="1" as="geometry">
            <mxPoint x="1020" y="162.5" as="sourcePoint" />
            <mxPoint x="1490" y="340" as="targetPoint" />
          </mxGeometry>
        </mxCell>
        <mxCell id="Z1-ZFgRToC5Ef57HQQPl-380" value="（" style="edgeLabel;html=1;align=center;verticalAlign=middle;resizable=0;points=[];" parent="Z1-ZFgRToC5Ef57HQQPl-378" vertex="1" connectable="0">
          <mxGeometry x="-0.0276" relative="1" as="geometry">
            <mxPoint as="offset" />
          </mxGeometry>
        </mxCell>
        <mxCell id="Z1-ZFgRToC5Ef57HQQPl-381" value="&lt;div style=&quot;font-size: 10px;&quot;&gt;&lt;font style=&quot;font-size: 10px;&quot;&gt;S35&lt;/font&gt;&lt;/div&gt;" style="ellipse;whiteSpace=wrap;html=1;aspect=fixed;fontSize=10;" parent="1" vertex="1">
          <mxGeometry x="100" y="340" width="30" height="30" as="geometry" />
        </mxCell>
        <mxCell id="Z1-ZFgRToC5Ef57HQQPl-382" value="" style="endArrow=classic;html=1;rounded=0;exitX=0;exitY=0;exitDx=0;exitDy=0;entryX=1;entryY=0.5;entryDx=0;entryDy=0;" parent="1" source="Z1-ZFgRToC5Ef57HQQPl-219" target="Z1-ZFgRToC5Ef57HQQPl-381" edge="1">
          <mxGeometry width="50" height="50" relative="1" as="geometry">
            <mxPoint x="940" y="410" as="sourcePoint" />
            <mxPoint x="140" y="445" as="targetPoint" />
          </mxGeometry>
        </mxCell>
        <mxCell id="Z1-ZFgRToC5Ef57HQQPl-383" value="do" style="edgeLabel;html=1;align=center;verticalAlign=middle;resizable=0;points=[];" parent="Z1-ZFgRToC5Ef57HQQPl-382" vertex="1" connectable="0">
          <mxGeometry x="-0.1285" y="-1" relative="1" as="geometry">
            <mxPoint as="offset" />
          </mxGeometry>
        </mxCell>
        <mxCell id="Z1-ZFgRToC5Ef57HQQPl-384" value="" style="endArrow=classic;html=1;rounded=0;entryX=1;entryY=1;entryDx=0;entryDy=0;exitX=0;exitY=0;exitDx=0;exitDy=0;" parent="1" source="Z1-ZFgRToC5Ef57HQQPl-304" target="Z1-ZFgRToC5Ef57HQQPl-129" edge="1">
          <mxGeometry width="50" height="50" relative="1" as="geometry">
            <mxPoint x="857" y="60" as="sourcePoint" />
            <mxPoint x="280" y="-328" as="targetPoint" />
          </mxGeometry>
        </mxCell>
        <mxCell id="Z1-ZFgRToC5Ef57HQQPl-385" value="+" style="edgeLabel;html=1;align=center;verticalAlign=middle;resizable=0;points=[];" parent="Z1-ZFgRToC5Ef57HQQPl-384" vertex="1" connectable="0">
          <mxGeometry x="-0.0769" y="1" relative="1" as="geometry">
            <mxPoint as="offset" />
          </mxGeometry>
        </mxCell>
        <mxCell id="Z1-ZFgRToC5Ef57HQQPl-386" value="" style="endArrow=classic;html=1;rounded=0;entryX=1;entryY=1;entryDx=0;entryDy=0;exitX=0;exitY=0;exitDx=0;exitDy=0;fontStyle=1" parent="1" source="Z1-ZFgRToC5Ef57HQQPl-304" target="Z1-ZFgRToC5Ef57HQQPl-132" edge="1">
          <mxGeometry width="50" height="50" relative="1" as="geometry">
            <mxPoint x="857" y="60" as="sourcePoint" />
            <mxPoint x="280" y="-288" as="targetPoint" />
          </mxGeometry>
        </mxCell>
        <mxCell id="Z1-ZFgRToC5Ef57HQQPl-387" value="*" style="edgeLabel;html=1;align=center;verticalAlign=middle;resizable=0;points=[];" parent="Z1-ZFgRToC5Ef57HQQPl-386" vertex="1" connectable="0">
          <mxGeometry x="0.066" y="2" relative="1" as="geometry">
            <mxPoint as="offset" />
          </mxGeometry>
        </mxCell>
        <mxCell id="Z1-ZFgRToC5Ef57HQQPl-388" value="" style="endArrow=classic;html=1;rounded=0;entryX=1;entryY=1;entryDx=0;entryDy=0;exitX=0;exitY=0;exitDx=0;exitDy=0;" parent="1" source="Z1-ZFgRToC5Ef57HQQPl-304" target="p_1b_5cENNqRYTXuGcnv-3" edge="1">
          <mxGeometry width="50" height="50" relative="1" as="geometry">
            <mxPoint x="857" y="60" as="sourcePoint" />
            <mxPoint x="280" y="-248" as="targetPoint" />
          </mxGeometry>
        </mxCell>
        <mxCell id="Z1-ZFgRToC5Ef57HQQPl-389" value="||" style="edgeLabel;html=1;align=center;verticalAlign=middle;resizable=0;points=[];" parent="Z1-ZFgRToC5Ef57HQQPl-388" vertex="1" connectable="0">
          <mxGeometry x="0.0956" y="-1" relative="1" as="geometry">
            <mxPoint as="offset" />
          </mxGeometry>
        </mxCell>
        <mxCell id="Z1-ZFgRToC5Ef57HQQPl-390" value="" style="endArrow=classic;html=1;rounded=0;entryX=1;entryY=0.5;entryDx=0;entryDy=0;exitX=0;exitY=0;exitDx=0;exitDy=0;" parent="1" source="Z1-ZFgRToC5Ef57HQQPl-304" target="p_1b_5cENNqRYTXuGcnv-5" edge="1">
          <mxGeometry width="50" height="50" relative="1" as="geometry">
            <mxPoint x="857" y="60" as="sourcePoint" />
            <mxPoint x="280" y="-208" as="targetPoint" />
          </mxGeometry>
        </mxCell>
        <mxCell id="Z1-ZFgRToC5Ef57HQQPl-391" value="&amp;amp;&amp;amp;" style="edgeLabel;html=1;align=center;verticalAlign=middle;resizable=0;points=[];" parent="Z1-ZFgRToC5Ef57HQQPl-390" vertex="1" connectable="0">
          <mxGeometry x="0.0028" y="2" relative="1" as="geometry">
            <mxPoint x="-1" as="offset" />
          </mxGeometry>
        </mxCell>
        <mxCell id="Z1-ZFgRToC5Ef57HQQPl-392" value="" style="endArrow=classic;html=1;rounded=0;entryX=1;entryY=1;entryDx=0;entryDy=0;exitX=0;exitY=0;exitDx=0;exitDy=0;" parent="1" source="Z1-ZFgRToC5Ef57HQQPl-304" target="Z1-ZFgRToC5Ef57HQQPl-141" edge="1">
          <mxGeometry width="50" height="50" relative="1" as="geometry">
            <mxPoint x="857" y="60" as="sourcePoint" />
            <mxPoint x="280" y="-168" as="targetPoint" />
          </mxGeometry>
        </mxCell>
        <mxCell id="Z1-ZFgRToC5Ef57HQQPl-393" value="rop" style="edgeLabel;html=1;align=center;verticalAlign=middle;resizable=0;points=[];" parent="Z1-ZFgRToC5Ef57HQQPl-392" vertex="1" connectable="0">
          <mxGeometry x="0.2087" y="-2" relative="1" as="geometry">
            <mxPoint as="offset" />
          </mxGeometry>
        </mxCell>
        <mxCell id="Z1-ZFgRToC5Ef57HQQPl-394" value="" style="endArrow=classic;html=1;rounded=0;exitX=0;exitY=0;exitDx=0;exitDy=0;entryX=0.5;entryY=0;entryDx=0;entryDy=0;" parent="1" source="Z1-ZFgRToC5Ef57HQQPl-245" target="Z1-ZFgRToC5Ef57HQQPl-11" edge="1">
          <mxGeometry width="50" height="50" relative="1" as="geometry">
            <mxPoint x="100" y="-270" as="sourcePoint" />
            <mxPoint x="150" y="-320" as="targetPoint" />
          </mxGeometry>
        </mxCell>
        <mxCell id="Z1-ZFgRToC5Ef57HQQPl-399" value="if" style="edgeLabel;html=1;align=center;verticalAlign=middle;resizable=0;points=[];" parent="Z1-ZFgRToC5Ef57HQQPl-394" vertex="1" connectable="0">
          <mxGeometry x="-0.0959" relative="1" as="geometry">
            <mxPoint x="-1" as="offset" />
          </mxGeometry>
        </mxCell>
        <mxCell id="Z1-ZFgRToC5Ef57HQQPl-395" value="" style="endArrow=classic;html=1;rounded=0;exitX=0;exitY=0;exitDx=0;exitDy=0;entryX=1;entryY=0;entryDx=0;entryDy=0;" parent="1" source="Z1-ZFgRToC5Ef57HQQPl-245" target="Z1-ZFgRToC5Ef57HQQPl-6" edge="1">
          <mxGeometry width="50" height="50" relative="1" as="geometry">
            <mxPoint x="110" y="-260" as="sourcePoint" />
            <mxPoint x="90" y="-320" as="targetPoint" />
          </mxGeometry>
        </mxCell>
        <mxCell id="Z1-ZFgRToC5Ef57HQQPl-398" value="id" style="edgeLabel;html=1;align=center;verticalAlign=middle;resizable=0;points=[];" parent="Z1-ZFgRToC5Ef57HQQPl-395" vertex="1" connectable="0">
          <mxGeometry x="0.3054" y="1" relative="1" as="geometry">
            <mxPoint as="offset" />
          </mxGeometry>
        </mxCell>
        <mxCell id="Z1-ZFgRToC5Ef57HQQPl-396" value="" style="endArrow=classic;html=1;rounded=0;exitX=1;exitY=0.5;exitDx=0;exitDy=0;entryX=1;entryY=1;entryDx=0;entryDy=0;" parent="1" source="Z1-ZFgRToC5Ef57HQQPl-245" target="Z1-ZFgRToC5Ef57HQQPl-401" edge="1">
          <mxGeometry width="50" height="50" relative="1" as="geometry">
            <mxPoint x="120" y="-250" as="sourcePoint" />
            <mxPoint x="540" y="-290" as="targetPoint" />
          </mxGeometry>
        </mxCell>
        <mxCell id="Z1-ZFgRToC5Ef57HQQPl-402" value="S" style="edgeLabel;html=1;align=center;verticalAlign=middle;resizable=0;points=[];" parent="Z1-ZFgRToC5Ef57HQQPl-396" vertex="1" connectable="0">
          <mxGeometry x="0.1623" y="-2" relative="1" as="geometry">
            <mxPoint as="offset" />
          </mxGeometry>
        </mxCell>
        <mxCell id="Z1-ZFgRToC5Ef57HQQPl-397" value="" style="endArrow=classic;html=1;rounded=0;exitX=0;exitY=0;exitDx=0;exitDy=0;entryX=0;entryY=0;entryDx=0;entryDy=0;" parent="1" source="Z1-ZFgRToC5Ef57HQQPl-245" target="Z1-ZFgRToC5Ef57HQQPl-16" edge="1">
          <mxGeometry width="50" height="50" relative="1" as="geometry">
            <mxPoint x="230" y="-210" as="sourcePoint" />
            <mxPoint x="150" y="-250" as="targetPoint" />
          </mxGeometry>
        </mxCell>
        <mxCell id="Z1-ZFgRToC5Ef57HQQPl-400" value="while" style="edgeLabel;html=1;align=center;verticalAlign=middle;resizable=0;points=[];" parent="Z1-ZFgRToC5Ef57HQQPl-397" vertex="1" connectable="0">
          <mxGeometry x="0.6911" y="2" relative="1" as="geometry">
            <mxPoint as="offset" />
          </mxGeometry>
        </mxCell>
        <mxCell id="Z1-ZFgRToC5Ef57HQQPl-401" value="&lt;div style=&quot;font-size: 10px;&quot;&gt;&lt;font style=&quot;font-size: 10px;&quot;&gt;S36&lt;/font&gt;&lt;/div&gt;" style="ellipse;whiteSpace=wrap;html=1;aspect=fixed;fontSize=10;direction=south;" parent="1" vertex="1">
          <mxGeometry x="300" y="-270" width="30" height="30" as="geometry" />
        </mxCell>
        <mxCell id="Z1-ZFgRToC5Ef57HQQPl-404" value="" style="endArrow=classic;html=1;rounded=0;entryX=1;entryY=1;entryDx=0;entryDy=0;exitX=0;exitY=0;exitDx=0;exitDy=0;" parent="1" source="Z1-ZFgRToC5Ef57HQQPl-151" target="Z1-ZFgRToC5Ef57HQQPl-129" edge="1">
          <mxGeometry width="50" height="50" relative="1" as="geometry">
            <mxPoint x="921" y="-96" as="sourcePoint" />
            <mxPoint x="344" y="-294" as="targetPoint" />
          </mxGeometry>
        </mxCell>
        <mxCell id="Z1-ZFgRToC5Ef57HQQPl-405" value="+" style="edgeLabel;html=1;align=center;verticalAlign=middle;resizable=0;points=[];" parent="Z1-ZFgRToC5Ef57HQQPl-404" vertex="1" connectable="0">
          <mxGeometry x="-0.0769" y="1" relative="1" as="geometry">
            <mxPoint as="offset" />
          </mxGeometry>
        </mxCell>
        <mxCell id="Z1-ZFgRToC5Ef57HQQPl-406" value="" style="endArrow=classic;html=1;rounded=0;entryX=1;entryY=1;entryDx=0;entryDy=0;exitX=0;exitY=0;exitDx=0;exitDy=0;fontStyle=1" parent="1" source="Z1-ZFgRToC5Ef57HQQPl-151" target="Z1-ZFgRToC5Ef57HQQPl-132" edge="1">
          <mxGeometry width="50" height="50" relative="1" as="geometry">
            <mxPoint x="921" y="-96" as="sourcePoint" />
            <mxPoint x="344" y="-254" as="targetPoint" />
          </mxGeometry>
        </mxCell>
        <mxCell id="Z1-ZFgRToC5Ef57HQQPl-407" value="*" style="edgeLabel;html=1;align=center;verticalAlign=middle;resizable=0;points=[];" parent="Z1-ZFgRToC5Ef57HQQPl-406" vertex="1" connectable="0">
          <mxGeometry x="0.066" y="2" relative="1" as="geometry">
            <mxPoint as="offset" />
          </mxGeometry>
        </mxCell>
        <mxCell id="Z1-ZFgRToC5Ef57HQQPl-408" value="" style="endArrow=classic;html=1;rounded=0;entryX=1;entryY=1;entryDx=0;entryDy=0;exitX=0;exitY=0;exitDx=0;exitDy=0;" parent="1" source="Z1-ZFgRToC5Ef57HQQPl-151" target="p_1b_5cENNqRYTXuGcnv-3" edge="1">
          <mxGeometry width="50" height="50" relative="1" as="geometry">
            <mxPoint x="921" y="-96" as="sourcePoint" />
            <mxPoint x="344" y="-214" as="targetPoint" />
          </mxGeometry>
        </mxCell>
        <mxCell id="Z1-ZFgRToC5Ef57HQQPl-409" value="||" style="edgeLabel;html=1;align=center;verticalAlign=middle;resizable=0;points=[];" parent="Z1-ZFgRToC5Ef57HQQPl-408" vertex="1" connectable="0">
          <mxGeometry x="0.0956" y="-1" relative="1" as="geometry">
            <mxPoint as="offset" />
          </mxGeometry>
        </mxCell>
        <mxCell id="Z1-ZFgRToC5Ef57HQQPl-410" value="" style="endArrow=classic;html=1;rounded=0;entryX=1;entryY=0.5;entryDx=0;entryDy=0;exitX=0;exitY=0;exitDx=0;exitDy=0;" parent="1" source="Z1-ZFgRToC5Ef57HQQPl-151" target="p_1b_5cENNqRYTXuGcnv-5" edge="1">
          <mxGeometry width="50" height="50" relative="1" as="geometry">
            <mxPoint x="921" y="-96" as="sourcePoint" />
            <mxPoint x="349" y="-185" as="targetPoint" />
          </mxGeometry>
        </mxCell>
        <mxCell id="Z1-ZFgRToC5Ef57HQQPl-411" value="&amp;amp;&amp;amp;" style="edgeLabel;html=1;align=center;verticalAlign=middle;resizable=0;points=[];" parent="Z1-ZFgRToC5Ef57HQQPl-410" vertex="1" connectable="0">
          <mxGeometry x="0.0028" y="2" relative="1" as="geometry">
            <mxPoint x="-1" as="offset" />
          </mxGeometry>
        </mxCell>
        <mxCell id="Z1-ZFgRToC5Ef57HQQPl-412" value="" style="endArrow=classic;html=1;rounded=0;entryX=1;entryY=1;entryDx=0;entryDy=0;exitX=0;exitY=0;exitDx=0;exitDy=0;" parent="1" source="Z1-ZFgRToC5Ef57HQQPl-151" target="Z1-ZFgRToC5Ef57HQQPl-141" edge="1">
          <mxGeometry width="50" height="50" relative="1" as="geometry">
            <mxPoint x="921" y="-96" as="sourcePoint" />
            <mxPoint x="344" y="-134" as="targetPoint" />
          </mxGeometry>
        </mxCell>
        <mxCell id="Z1-ZFgRToC5Ef57HQQPl-413" value="rop" style="edgeLabel;html=1;align=center;verticalAlign=middle;resizable=0;points=[];" parent="Z1-ZFgRToC5Ef57HQQPl-412" vertex="1" connectable="0">
          <mxGeometry x="0.2087" y="-2" relative="1" as="geometry">
            <mxPoint as="offset" />
          </mxGeometry>
        </mxCell>
        <mxCell id="Z1-ZFgRToC5Ef57HQQPl-414" value="" style="endArrow=classic;html=1;rounded=0;entryX=1;entryY=1;entryDx=0;entryDy=0;exitX=0;exitY=1;exitDx=0;exitDy=0;" parent="1" source="Z1-ZFgRToC5Ef57HQQPl-307" target="Z1-ZFgRToC5Ef57HQQPl-129" edge="1">
          <mxGeometry width="50" height="50" relative="1" as="geometry">
            <mxPoint x="877" y="-82" as="sourcePoint" />
            <mxPoint x="300" y="-280" as="targetPoint" />
          </mxGeometry>
        </mxCell>
        <mxCell id="Z1-ZFgRToC5Ef57HQQPl-415" value="+" style="edgeLabel;html=1;align=center;verticalAlign=middle;resizable=0;points=[];" parent="Z1-ZFgRToC5Ef57HQQPl-414" vertex="1" connectable="0">
          <mxGeometry x="-0.0769" y="1" relative="1" as="geometry">
            <mxPoint as="offset" />
          </mxGeometry>
        </mxCell>
        <mxCell id="Z1-ZFgRToC5Ef57HQQPl-416" value="" style="endArrow=classic;html=1;rounded=0;entryX=1;entryY=1;entryDx=0;entryDy=0;exitX=0;exitY=1;exitDx=0;exitDy=0;fontStyle=1" parent="1" source="Z1-ZFgRToC5Ef57HQQPl-307" target="Z1-ZFgRToC5Ef57HQQPl-132" edge="1">
          <mxGeometry width="50" height="50" relative="1" as="geometry">
            <mxPoint x="877" y="-82" as="sourcePoint" />
            <mxPoint x="300" y="-240" as="targetPoint" />
          </mxGeometry>
        </mxCell>
        <mxCell id="Z1-ZFgRToC5Ef57HQQPl-417" value="*" style="edgeLabel;html=1;align=center;verticalAlign=middle;resizable=0;points=[];" parent="Z1-ZFgRToC5Ef57HQQPl-416" vertex="1" connectable="0">
          <mxGeometry x="0.066" y="2" relative="1" as="geometry">
            <mxPoint as="offset" />
          </mxGeometry>
        </mxCell>
        <mxCell id="Z1-ZFgRToC5Ef57HQQPl-418" value="" style="endArrow=classic;html=1;rounded=0;entryX=1;entryY=1;entryDx=0;entryDy=0;exitX=0;exitY=1;exitDx=0;exitDy=0;" parent="1" source="Z1-ZFgRToC5Ef57HQQPl-307" target="p_1b_5cENNqRYTXuGcnv-3" edge="1">
          <mxGeometry width="50" height="50" relative="1" as="geometry">
            <mxPoint x="877" y="-82" as="sourcePoint" />
            <mxPoint x="300" y="-200" as="targetPoint" />
          </mxGeometry>
        </mxCell>
        <mxCell id="Z1-ZFgRToC5Ef57HQQPl-419" value="||" style="edgeLabel;html=1;align=center;verticalAlign=middle;resizable=0;points=[];" parent="Z1-ZFgRToC5Ef57HQQPl-418" vertex="1" connectable="0">
          <mxGeometry x="0.0956" y="-1" relative="1" as="geometry">
            <mxPoint as="offset" />
          </mxGeometry>
        </mxCell>
        <mxCell id="Z1-ZFgRToC5Ef57HQQPl-420" value="" style="endArrow=classic;html=1;rounded=0;entryX=1;entryY=0.5;entryDx=0;entryDy=0;exitX=0;exitY=1;exitDx=0;exitDy=0;" parent="1" source="Z1-ZFgRToC5Ef57HQQPl-307" target="p_1b_5cENNqRYTXuGcnv-5" edge="1">
          <mxGeometry width="50" height="50" relative="1" as="geometry">
            <mxPoint x="877" y="-82" as="sourcePoint" />
            <mxPoint x="305" y="-171" as="targetPoint" />
          </mxGeometry>
        </mxCell>
        <mxCell id="Z1-ZFgRToC5Ef57HQQPl-421" value="&amp;amp;&amp;amp;" style="edgeLabel;html=1;align=center;verticalAlign=middle;resizable=0;points=[];" parent="Z1-ZFgRToC5Ef57HQQPl-420" vertex="1" connectable="0">
          <mxGeometry x="0.0028" y="2" relative="1" as="geometry">
            <mxPoint x="-1" as="offset" />
          </mxGeometry>
        </mxCell>
        <mxCell id="Z1-ZFgRToC5Ef57HQQPl-422" value="" style="endArrow=classic;html=1;rounded=0;entryX=1;entryY=1;entryDx=0;entryDy=0;exitX=0;exitY=1;exitDx=0;exitDy=0;" parent="1" source="Z1-ZFgRToC5Ef57HQQPl-307" target="Z1-ZFgRToC5Ef57HQQPl-141" edge="1">
          <mxGeometry width="50" height="50" relative="1" as="geometry">
            <mxPoint x="877" y="-82" as="sourcePoint" />
            <mxPoint x="300" y="-120" as="targetPoint" />
          </mxGeometry>
        </mxCell>
        <mxCell id="Z1-ZFgRToC5Ef57HQQPl-423" value="rop" style="edgeLabel;html=1;align=center;verticalAlign=middle;resizable=0;points=[];" parent="Z1-ZFgRToC5Ef57HQQPl-422" vertex="1" connectable="0">
          <mxGeometry x="0.2087" y="-2" relative="1" as="geometry">
            <mxPoint as="offset" />
          </mxGeometry>
        </mxCell>
        <mxCell id="Z1-ZFgRToC5Ef57HQQPl-424" value="" style="endArrow=classic;html=1;rounded=0;entryX=1;entryY=0;entryDx=0;entryDy=0;exitX=0;exitY=1;exitDx=0;exitDy=0;" parent="1" source="Z1-ZFgRToC5Ef57HQQPl-319" target="Z1-ZFgRToC5Ef57HQQPl-129" edge="1">
          <mxGeometry width="50" height="50" relative="1" as="geometry">
            <mxPoint x="869.5699999999999" y="-146" as="sourcePoint" />
            <mxPoint x="292.57000000000005" y="-344" as="targetPoint" />
          </mxGeometry>
        </mxCell>
        <mxCell id="Z1-ZFgRToC5Ef57HQQPl-425" value="+" style="edgeLabel;html=1;align=center;verticalAlign=middle;resizable=0;points=[];" parent="Z1-ZFgRToC5Ef57HQQPl-424" vertex="1" connectable="0">
          <mxGeometry x="-0.0769" y="1" relative="1" as="geometry">
            <mxPoint as="offset" />
          </mxGeometry>
        </mxCell>
        <mxCell id="Z1-ZFgRToC5Ef57HQQPl-426" value="" style="endArrow=classic;html=1;rounded=0;entryX=1;entryY=0;entryDx=0;entryDy=0;exitX=0;exitY=1;exitDx=0;exitDy=0;fontStyle=1" parent="1" source="Z1-ZFgRToC5Ef57HQQPl-319" target="Z1-ZFgRToC5Ef57HQQPl-132" edge="1">
          <mxGeometry width="50" height="50" relative="1" as="geometry">
            <mxPoint x="869.5699999999999" y="-146" as="sourcePoint" />
            <mxPoint x="292.57000000000005" y="-304" as="targetPoint" />
          </mxGeometry>
        </mxCell>
        <mxCell id="Z1-ZFgRToC5Ef57HQQPl-427" value="*" style="edgeLabel;html=1;align=center;verticalAlign=middle;resizable=0;points=[];" parent="Z1-ZFgRToC5Ef57HQQPl-426" vertex="1" connectable="0">
          <mxGeometry x="0.066" y="2" relative="1" as="geometry">
            <mxPoint as="offset" />
          </mxGeometry>
        </mxCell>
        <mxCell id="Z1-ZFgRToC5Ef57HQQPl-428" value="" style="endArrow=classic;html=1;rounded=0;entryX=1;entryY=1;entryDx=0;entryDy=0;exitX=0;exitY=1;exitDx=0;exitDy=0;" parent="1" source="Z1-ZFgRToC5Ef57HQQPl-319" target="p_1b_5cENNqRYTXuGcnv-3" edge="1">
          <mxGeometry width="50" height="50" relative="1" as="geometry">
            <mxPoint x="869.5699999999999" y="-146" as="sourcePoint" />
            <mxPoint x="292.57000000000005" y="-264" as="targetPoint" />
          </mxGeometry>
        </mxCell>
        <mxCell id="Z1-ZFgRToC5Ef57HQQPl-429" value="||" style="edgeLabel;html=1;align=center;verticalAlign=middle;resizable=0;points=[];" parent="Z1-ZFgRToC5Ef57HQQPl-428" vertex="1" connectable="0">
          <mxGeometry x="0.0956" y="-1" relative="1" as="geometry">
            <mxPoint as="offset" />
          </mxGeometry>
        </mxCell>
        <mxCell id="Z1-ZFgRToC5Ef57HQQPl-430" value="" style="endArrow=classic;html=1;rounded=0;entryX=1;entryY=0.5;entryDx=0;entryDy=0;exitX=0;exitY=1;exitDx=0;exitDy=0;" parent="1" source="Z1-ZFgRToC5Ef57HQQPl-319" target="p_1b_5cENNqRYTXuGcnv-5" edge="1">
          <mxGeometry width="50" height="50" relative="1" as="geometry">
            <mxPoint x="869.5699999999999" y="-146" as="sourcePoint" />
            <mxPoint x="297.57000000000005" y="-235" as="targetPoint" />
          </mxGeometry>
        </mxCell>
        <mxCell id="Z1-ZFgRToC5Ef57HQQPl-431" value="&amp;amp;&amp;amp;" style="edgeLabel;html=1;align=center;verticalAlign=middle;resizable=0;points=[];" parent="Z1-ZFgRToC5Ef57HQQPl-430" vertex="1" connectable="0">
          <mxGeometry x="0.0028" y="2" relative="1" as="geometry">
            <mxPoint x="-1" as="offset" />
          </mxGeometry>
        </mxCell>
        <mxCell id="Z1-ZFgRToC5Ef57HQQPl-432" value="" style="endArrow=classic;html=1;rounded=0;entryX=1;entryY=0;entryDx=0;entryDy=0;exitX=0;exitY=1;exitDx=0;exitDy=0;" parent="1" source="Z1-ZFgRToC5Ef57HQQPl-319" target="Z1-ZFgRToC5Ef57HQQPl-141" edge="1">
          <mxGeometry width="50" height="50" relative="1" as="geometry">
            <mxPoint x="869.5699999999999" y="-146" as="sourcePoint" />
            <mxPoint x="292.57000000000005" y="-184" as="targetPoint" />
          </mxGeometry>
        </mxCell>
        <mxCell id="Z1-ZFgRToC5Ef57HQQPl-433" value="rop" style="edgeLabel;html=1;align=center;verticalAlign=middle;resizable=0;points=[];" parent="Z1-ZFgRToC5Ef57HQQPl-432" vertex="1" connectable="0">
          <mxGeometry x="0.2087" y="-2" relative="1" as="geometry">
            <mxPoint as="offset" />
          </mxGeometry>
        </mxCell>
        <mxCell id="Z1-ZFgRToC5Ef57HQQPl-434" value="" style="endArrow=classic;html=1;rounded=0;entryX=1;entryY=0;entryDx=0;entryDy=0;exitX=0;exitY=1;exitDx=0;exitDy=0;" parent="1" source="Z1-ZFgRToC5Ef57HQQPl-316" target="Z1-ZFgRToC5Ef57HQQPl-129" edge="1">
          <mxGeometry width="50" height="50" relative="1" as="geometry">
            <mxPoint x="890" y="-250" as="sourcePoint" />
            <mxPoint x="313.28999999999996" y="-448" as="targetPoint" />
          </mxGeometry>
        </mxCell>
        <mxCell id="Z1-ZFgRToC5Ef57HQQPl-435" value="+" style="edgeLabel;html=1;align=center;verticalAlign=middle;resizable=0;points=[];" parent="Z1-ZFgRToC5Ef57HQQPl-434" vertex="1" connectable="0">
          <mxGeometry x="-0.0769" y="1" relative="1" as="geometry">
            <mxPoint as="offset" />
          </mxGeometry>
        </mxCell>
        <mxCell id="Z1-ZFgRToC5Ef57HQQPl-436" value="" style="endArrow=classic;html=1;rounded=0;exitX=0;exitY=1;exitDx=0;exitDy=0;fontStyle=1;entryX=1;entryY=0;entryDx=0;entryDy=0;" parent="1" source="Z1-ZFgRToC5Ef57HQQPl-316" target="Z1-ZFgRToC5Ef57HQQPl-132" edge="1">
          <mxGeometry width="50" height="50" relative="1" as="geometry">
            <mxPoint x="890.29" y="-250" as="sourcePoint" />
            <mxPoint x="320" y="-310" as="targetPoint" />
          </mxGeometry>
        </mxCell>
        <mxCell id="Z1-ZFgRToC5Ef57HQQPl-437" value="*" style="edgeLabel;html=1;align=center;verticalAlign=middle;resizable=0;points=[];" parent="Z1-ZFgRToC5Ef57HQQPl-436" vertex="1" connectable="0">
          <mxGeometry x="0.066" y="2" relative="1" as="geometry">
            <mxPoint as="offset" />
          </mxGeometry>
        </mxCell>
        <mxCell id="Z1-ZFgRToC5Ef57HQQPl-438" value="" style="endArrow=classic;html=1;rounded=0;entryX=1;entryY=1;entryDx=0;entryDy=0;exitX=0;exitY=1;exitDx=0;exitDy=0;" parent="1" source="Z1-ZFgRToC5Ef57HQQPl-316" target="p_1b_5cENNqRYTXuGcnv-3" edge="1">
          <mxGeometry width="50" height="50" relative="1" as="geometry">
            <mxPoint x="890.29" y="-250" as="sourcePoint" />
            <mxPoint x="313.28999999999996" y="-368" as="targetPoint" />
          </mxGeometry>
        </mxCell>
        <mxCell id="Z1-ZFgRToC5Ef57HQQPl-439" value="||" style="edgeLabel;html=1;align=center;verticalAlign=middle;resizable=0;points=[];" parent="Z1-ZFgRToC5Ef57HQQPl-438" vertex="1" connectable="0">
          <mxGeometry x="0.0956" y="-1" relative="1" as="geometry">
            <mxPoint as="offset" />
          </mxGeometry>
        </mxCell>
        <mxCell id="Z1-ZFgRToC5Ef57HQQPl-440" value="" style="endArrow=classic;html=1;rounded=0;entryX=1;entryY=0.5;entryDx=0;entryDy=0;exitX=0;exitY=1;exitDx=0;exitDy=0;" parent="1" source="Z1-ZFgRToC5Ef57HQQPl-316" target="p_1b_5cENNqRYTXuGcnv-5" edge="1">
          <mxGeometry width="50" height="50" relative="1" as="geometry">
            <mxPoint x="890.29" y="-250" as="sourcePoint" />
            <mxPoint x="318.28999999999996" y="-339" as="targetPoint" />
          </mxGeometry>
        </mxCell>
        <mxCell id="Z1-ZFgRToC5Ef57HQQPl-441" value="&amp;amp;&amp;amp;" style="edgeLabel;html=1;align=center;verticalAlign=middle;resizable=0;points=[];" parent="Z1-ZFgRToC5Ef57HQQPl-440" vertex="1" connectable="0">
          <mxGeometry x="0.0028" y="2" relative="1" as="geometry">
            <mxPoint x="-1" as="offset" />
          </mxGeometry>
        </mxCell>
        <mxCell id="Z1-ZFgRToC5Ef57HQQPl-442" value="" style="endArrow=classic;html=1;rounded=0;entryX=1;entryY=0;entryDx=0;entryDy=0;exitX=0;exitY=1;exitDx=0;exitDy=0;" parent="1" source="Z1-ZFgRToC5Ef57HQQPl-316" target="Z1-ZFgRToC5Ef57HQQPl-141" edge="1">
          <mxGeometry width="50" height="50" relative="1" as="geometry">
            <mxPoint x="890.29" y="-250" as="sourcePoint" />
            <mxPoint x="313.28999999999996" y="-288" as="targetPoint" />
          </mxGeometry>
        </mxCell>
        <mxCell id="Z1-ZFgRToC5Ef57HQQPl-443" value="rop" style="edgeLabel;html=1;align=center;verticalAlign=middle;resizable=0;points=[];" parent="Z1-ZFgRToC5Ef57HQQPl-442" vertex="1" connectable="0">
          <mxGeometry x="0.2087" y="-2" relative="1" as="geometry">
            <mxPoint as="offset" />
          </mxGeometry>
        </mxCell>
        <mxCell id="Z1-ZFgRToC5Ef57HQQPl-444" value="" style="endArrow=classic;html=1;rounded=0;entryX=1;entryY=0;entryDx=0;entryDy=0;exitX=0;exitY=1;exitDx=0;exitDy=0;" parent="1" source="Z1-ZFgRToC5Ef57HQQPl-300" target="Z1-ZFgRToC5Ef57HQQPl-129" edge="1">
          <mxGeometry width="50" height="50" relative="1" as="geometry">
            <mxPoint x="907" y="-256" as="sourcePoint" />
            <mxPoint x="330" y="-454" as="targetPoint" />
          </mxGeometry>
        </mxCell>
        <mxCell id="Z1-ZFgRToC5Ef57HQQPl-445" value="+" style="edgeLabel;html=1;align=center;verticalAlign=middle;resizable=0;points=[];" parent="Z1-ZFgRToC5Ef57HQQPl-444" vertex="1" connectable="0">
          <mxGeometry x="-0.0769" y="1" relative="1" as="geometry">
            <mxPoint as="offset" />
          </mxGeometry>
        </mxCell>
        <mxCell id="Z1-ZFgRToC5Ef57HQQPl-446" value="" style="endArrow=classic;html=1;rounded=0;entryX=1;entryY=0;entryDx=0;entryDy=0;exitX=0;exitY=1;exitDx=0;exitDy=0;fontStyle=1" parent="1" source="Z1-ZFgRToC5Ef57HQQPl-300" target="Z1-ZFgRToC5Ef57HQQPl-132" edge="1">
          <mxGeometry width="50" height="50" relative="1" as="geometry">
            <mxPoint x="907" y="-256" as="sourcePoint" />
            <mxPoint x="330" y="-414" as="targetPoint" />
          </mxGeometry>
        </mxCell>
        <mxCell id="Z1-ZFgRToC5Ef57HQQPl-447" value="*" style="edgeLabel;html=1;align=center;verticalAlign=middle;resizable=0;points=[];" parent="Z1-ZFgRToC5Ef57HQQPl-446" vertex="1" connectable="0">
          <mxGeometry x="0.066" y="2" relative="1" as="geometry">
            <mxPoint as="offset" />
          </mxGeometry>
        </mxCell>
        <mxCell id="Z1-ZFgRToC5Ef57HQQPl-448" value="" style="endArrow=classic;html=1;rounded=0;entryX=1;entryY=1;entryDx=0;entryDy=0;exitX=0;exitY=1;exitDx=0;exitDy=0;" parent="1" source="Z1-ZFgRToC5Ef57HQQPl-300" target="p_1b_5cENNqRYTXuGcnv-3" edge="1">
          <mxGeometry width="50" height="50" relative="1" as="geometry">
            <mxPoint x="907" y="-256" as="sourcePoint" />
            <mxPoint x="330" y="-374" as="targetPoint" />
          </mxGeometry>
        </mxCell>
        <mxCell id="Z1-ZFgRToC5Ef57HQQPl-449" value="||" style="edgeLabel;html=1;align=center;verticalAlign=middle;resizable=0;points=[];" parent="Z1-ZFgRToC5Ef57HQQPl-448" vertex="1" connectable="0">
          <mxGeometry x="0.0956" y="-1" relative="1" as="geometry">
            <mxPoint as="offset" />
          </mxGeometry>
        </mxCell>
        <mxCell id="Z1-ZFgRToC5Ef57HQQPl-450" value="" style="endArrow=classic;html=1;rounded=0;entryX=1;entryY=0.5;entryDx=0;entryDy=0;exitX=0;exitY=1;exitDx=0;exitDy=0;" parent="1" source="Z1-ZFgRToC5Ef57HQQPl-300" target="p_1b_5cENNqRYTXuGcnv-5" edge="1">
          <mxGeometry width="50" height="50" relative="1" as="geometry">
            <mxPoint x="907" y="-256" as="sourcePoint" />
            <mxPoint x="335" y="-345" as="targetPoint" />
          </mxGeometry>
        </mxCell>
        <mxCell id="Z1-ZFgRToC5Ef57HQQPl-451" value="&amp;amp;&amp;amp;" style="edgeLabel;html=1;align=center;verticalAlign=middle;resizable=0;points=[];" parent="Z1-ZFgRToC5Ef57HQQPl-450" vertex="1" connectable="0">
          <mxGeometry x="0.0028" y="2" relative="1" as="geometry">
            <mxPoint x="-1" as="offset" />
          </mxGeometry>
        </mxCell>
        <mxCell id="Z1-ZFgRToC5Ef57HQQPl-452" value="" style="endArrow=classic;html=1;rounded=0;entryX=1;entryY=0;entryDx=0;entryDy=0;exitX=0;exitY=1;exitDx=0;exitDy=0;" parent="1" source="Z1-ZFgRToC5Ef57HQQPl-300" target="Z1-ZFgRToC5Ef57HQQPl-141" edge="1">
          <mxGeometry width="50" height="50" relative="1" as="geometry">
            <mxPoint x="907" y="-256" as="sourcePoint" />
            <mxPoint x="330" y="-294" as="targetPoint" />
          </mxGeometry>
        </mxCell>
        <mxCell id="Z1-ZFgRToC5Ef57HQQPl-453" value="rop" style="edgeLabel;html=1;align=center;verticalAlign=middle;resizable=0;points=[];" parent="Z1-ZFgRToC5Ef57HQQPl-452" vertex="1" connectable="0">
          <mxGeometry x="0.2087" y="-2" relative="1" as="geometry">
            <mxPoint as="offset" />
          </mxGeometry>
        </mxCell>
        <mxCell id="Z1-ZFgRToC5Ef57HQQPl-454" value="&lt;div style=&quot;font-size: 10px;&quot;&gt;&lt;font style=&quot;font-size: 10px;&quot;&gt;S42&lt;/font&gt;&lt;/div&gt;" style="ellipse;whiteSpace=wrap;html=1;aspect=fixed;fontSize=10;" parent="1" vertex="1">
          <mxGeometry x="-220" y="-430" width="30" height="30" as="geometry" />
        </mxCell>
        <mxCell id="Z1-ZFgRToC5Ef57HQQPl-455" value="" style="endArrow=classic;html=1;rounded=0;entryX=0.5;entryY=1;entryDx=0;entryDy=0;exitX=1;exitY=0;exitDx=0;exitDy=0;" parent="1" source="Z1-ZFgRToC5Ef57HQQPl-230" target="Z1-ZFgRToC5Ef57HQQPl-454" edge="1">
          <mxGeometry width="50" height="50" relative="1" as="geometry">
            <mxPoint x="302.57000000000005" y="-370" as="sourcePoint" />
            <mxPoint x="772.5700000000002" y="-192.5" as="targetPoint" />
          </mxGeometry>
        </mxCell>
        <mxCell id="Z1-ZFgRToC5Ef57HQQPl-490" value="S" style="edgeLabel;html=1;align=center;verticalAlign=middle;resizable=0;points=[];" parent="Z1-ZFgRToC5Ef57HQQPl-455" vertex="1" connectable="0">
          <mxGeometry x="-0.3155" relative="1" as="geometry">
            <mxPoint as="offset" />
          </mxGeometry>
        </mxCell>
        <mxCell id="Z1-ZFgRToC5Ef57HQQPl-456" value="&lt;div style=&quot;font-size: 10px;&quot;&gt;&lt;font style=&quot;font-size: 10px;&quot;&gt;S37&lt;/font&gt;&lt;/div&gt;" style="ellipse;whiteSpace=wrap;html=1;aspect=fixed;fontSize=10;" parent="1" vertex="1">
          <mxGeometry x="-150" y="330" width="30" height="30" as="geometry" />
        </mxCell>
        <mxCell id="Z1-ZFgRToC5Ef57HQQPl-457" value="" style="endArrow=classic;html=1;rounded=0;entryX=1;entryY=0.5;entryDx=0;entryDy=0;exitX=0;exitY=0.5;exitDx=0;exitDy=0;" parent="1" source="Z1-ZFgRToC5Ef57HQQPl-381" target="Z1-ZFgRToC5Ef57HQQPl-456" edge="1">
          <mxGeometry width="50" height="50" relative="1" as="geometry">
            <mxPoint x="110" y="445" as="sourcePoint" />
            <mxPoint x="1547" y="567.5" as="targetPoint" />
          </mxGeometry>
        </mxCell>
        <mxCell id="Z1-ZFgRToC5Ef57HQQPl-460" value="M" style="edgeLabel;html=1;align=center;verticalAlign=middle;resizable=0;points=[];" parent="Z1-ZFgRToC5Ef57HQQPl-457" vertex="1" connectable="0">
          <mxGeometry x="-0.1993" y="-4" relative="1" as="geometry">
            <mxPoint as="offset" />
          </mxGeometry>
        </mxCell>
        <mxCell id="Z1-ZFgRToC5Ef57HQQPl-467" value="&lt;div style=&quot;font-size: 10px;&quot;&gt;&lt;font style=&quot;font-size: 10px;&quot;&gt;S38&lt;/font&gt;&lt;/div&gt;" style="ellipse;whiteSpace=wrap;html=1;aspect=fixed;fontSize=10;" parent="1" vertex="1">
          <mxGeometry x="170" y="-330" width="30" height="30" as="geometry" />
        </mxCell>
        <mxCell id="Z1-ZFgRToC5Ef57HQQPl-468" value="" style="endArrow=classic;html=1;rounded=0;entryX=1;entryY=1;entryDx=0;entryDy=0;exitX=0.5;exitY=1;exitDx=0;exitDy=0;" parent="1" source="Z1-ZFgRToC5Ef57HQQPl-401" target="Z1-ZFgRToC5Ef57HQQPl-467" edge="1">
          <mxGeometry width="50" height="50" relative="1" as="geometry">
            <mxPoint x="460" y="-365" as="sourcePoint" />
            <mxPoint x="930" y="-187.5" as="targetPoint" />
            <Array as="points" />
          </mxGeometry>
        </mxCell>
        <mxCell id="Z1-ZFgRToC5Ef57HQQPl-469" value="N" style="edgeLabel;html=1;align=center;verticalAlign=middle;resizable=0;points=[];" parent="Z1-ZFgRToC5Ef57HQQPl-468" vertex="1" connectable="0">
          <mxGeometry x="-0.0368" y="-4" relative="1" as="geometry">
            <mxPoint x="1" as="offset" />
          </mxGeometry>
        </mxCell>
        <mxCell id="Z1-ZFgRToC5Ef57HQQPl-470" value="" style="endArrow=classic;html=1;rounded=0;exitX=0.5;exitY=1;exitDx=0;exitDy=0;entryX=1;entryY=1;entryDx=0;entryDy=0;" parent="1" source="Z1-ZFgRToC5Ef57HQQPl-401" target="Z1-ZFgRToC5Ef57HQQPl-19" edge="1">
          <mxGeometry width="50" height="50" relative="1" as="geometry">
            <mxPoint x="-80" y="-140" as="sourcePoint" />
            <mxPoint x="-30" y="-190" as="targetPoint" />
          </mxGeometry>
        </mxCell>
        <mxCell id="Z1-ZFgRToC5Ef57HQQPl-471" value=";" style="edgeLabel;html=1;align=center;verticalAlign=middle;resizable=0;points=[];" parent="Z1-ZFgRToC5Ef57HQQPl-470" vertex="1" connectable="0">
          <mxGeometry x="-0.3674" y="-4" relative="1" as="geometry">
            <mxPoint y="1" as="offset" />
          </mxGeometry>
        </mxCell>
        <mxCell id="Z1-ZFgRToC5Ef57HQQPl-473" value="" style="endArrow=classic;html=1;rounded=0;entryX=1;entryY=0;entryDx=0;entryDy=0;exitX=0.5;exitY=0;exitDx=0;exitDy=0;" parent="1" source="Z1-ZFgRToC5Ef57HQQPl-456" target="Z1-ZFgRToC5Ef57HQQPl-6" edge="1">
          <mxGeometry width="50" height="50" relative="1" as="geometry">
            <mxPoint x="-310" y="440" as="sourcePoint" />
            <mxPoint x="-260" y="390" as="targetPoint" />
          </mxGeometry>
        </mxCell>
        <mxCell id="Z1-ZFgRToC5Ef57HQQPl-477" value="id" style="edgeLabel;html=1;align=center;verticalAlign=middle;resizable=0;points=[];" parent="Z1-ZFgRToC5Ef57HQQPl-473" vertex="1" connectable="0">
          <mxGeometry x="-0.7169" y="-1" relative="1" as="geometry">
            <mxPoint x="-1" as="offset" />
          </mxGeometry>
        </mxCell>
        <mxCell id="Z1-ZFgRToC5Ef57HQQPl-474" value="" style="endArrow=classic;html=1;rounded=0;entryX=0;entryY=0;entryDx=0;entryDy=0;exitX=0.5;exitY=0;exitDx=0;exitDy=0;" parent="1" source="Z1-ZFgRToC5Ef57HQQPl-456" target="Z1-ZFgRToC5Ef57HQQPl-16" edge="1">
          <mxGeometry width="50" height="50" relative="1" as="geometry">
            <mxPoint x="-300" y="450" as="sourcePoint" />
            <mxPoint x="-250" y="400" as="targetPoint" />
          </mxGeometry>
        </mxCell>
        <mxCell id="Z1-ZFgRToC5Ef57HQQPl-478" value="while" style="edgeLabel;html=1;align=center;verticalAlign=middle;resizable=0;points=[];" parent="Z1-ZFgRToC5Ef57HQQPl-474" vertex="1" connectable="0">
          <mxGeometry x="-0.59" y="1" relative="1" as="geometry">
            <mxPoint as="offset" />
          </mxGeometry>
        </mxCell>
        <mxCell id="Z1-ZFgRToC5Ef57HQQPl-475" value="" style="endArrow=classic;html=1;rounded=0;exitX=0.5;exitY=0;exitDx=0;exitDy=0;entryX=1;entryY=1;entryDx=0;entryDy=0;" parent="1" source="Z1-ZFgRToC5Ef57HQQPl-456" target="Z1-ZFgRToC5Ef57HQQPl-11" edge="1">
          <mxGeometry width="50" height="50" relative="1" as="geometry">
            <mxPoint x="-290" y="460" as="sourcePoint" />
            <mxPoint x="-240" y="410" as="targetPoint" />
          </mxGeometry>
        </mxCell>
        <mxCell id="Z1-ZFgRToC5Ef57HQQPl-476" value="if" style="edgeLabel;html=1;align=center;verticalAlign=middle;resizable=0;points=[];" parent="Z1-ZFgRToC5Ef57HQQPl-475" vertex="1" connectable="0">
          <mxGeometry x="0.5315" y="-1" relative="1" as="geometry">
            <mxPoint as="offset" />
          </mxGeometry>
        </mxCell>
        <mxCell id="Z1-ZFgRToC5Ef57HQQPl-479" value="&lt;div style=&quot;font-size: 10px;&quot;&gt;&lt;font style=&quot;font-size: 10px;&quot;&gt;S39&lt;/font&gt;&lt;/div&gt;" style="ellipse;whiteSpace=wrap;html=1;aspect=fixed;fontSize=10;" parent="1" vertex="1">
          <mxGeometry x="-30" y="300" width="30" height="30" as="geometry" />
        </mxCell>
        <mxCell id="Z1-ZFgRToC5Ef57HQQPl-482" value="" style="endArrow=classic;html=1;rounded=0;exitX=0.5;exitY=0;exitDx=0;exitDy=0;entryX=0;entryY=0.5;entryDx=0;entryDy=0;" parent="1" source="Z1-ZFgRToC5Ef57HQQPl-456" target="Z1-ZFgRToC5Ef57HQQPl-479" edge="1">
          <mxGeometry width="50" height="50" relative="1" as="geometry">
            <mxPoint x="-340" y="450" as="sourcePoint" />
            <mxPoint x="-270" y="495" as="targetPoint" />
          </mxGeometry>
        </mxCell>
        <mxCell id="Z1-ZFgRToC5Ef57HQQPl-483" value="S" style="edgeLabel;html=1;align=center;verticalAlign=middle;resizable=0;points=[];" parent="Z1-ZFgRToC5Ef57HQQPl-482" vertex="1" connectable="0">
          <mxGeometry x="0.3126" relative="1" as="geometry">
            <mxPoint as="offset" />
          </mxGeometry>
        </mxCell>
        <mxCell id="Z1-ZFgRToC5Ef57HQQPl-486" value="&lt;div style=&quot;font-size: 10px;&quot;&gt;&lt;font style=&quot;font-size: 10px;&quot;&gt;S40&lt;/font&gt;&lt;/div&gt;" style="ellipse;whiteSpace=wrap;html=1;aspect=fixed;fontSize=10;" parent="1" vertex="1">
          <mxGeometry x="70" y="-360" width="30" height="30" as="geometry" />
        </mxCell>
        <mxCell id="Z1-ZFgRToC5Ef57HQQPl-487" value="" style="endArrow=classic;html=1;rounded=0;entryX=1;entryY=0.5;entryDx=0;entryDy=0;exitX=0;exitY=0.5;exitDx=0;exitDy=0;" parent="1" source="Z1-ZFgRToC5Ef57HQQPl-467" target="Z1-ZFgRToC5Ef57HQQPl-486" edge="1">
          <mxGeometry width="50" height="50" relative="1" as="geometry">
            <mxPoint x="560" y="-352.5" as="sourcePoint" />
            <mxPoint x="1040" y="-212.5" as="targetPoint" />
          </mxGeometry>
        </mxCell>
        <mxCell id="Z1-ZFgRToC5Ef57HQQPl-488" value="else" style="edgeLabel;html=1;align=center;verticalAlign=middle;resizable=0;points=[];" parent="Z1-ZFgRToC5Ef57HQQPl-487" vertex="1" connectable="0">
          <mxGeometry x="-0.1538" relative="1" as="geometry">
            <mxPoint as="offset" />
          </mxGeometry>
        </mxCell>
        <mxCell id="Z1-ZFgRToC5Ef57HQQPl-491" value="" style="endArrow=classic;html=1;rounded=0;exitX=0;exitY=1;exitDx=0;exitDy=0;entryX=0.5;entryY=0;entryDx=0;entryDy=0;" parent="1" source="Z1-ZFgRToC5Ef57HQQPl-454" target="Z1-ZFgRToC5Ef57HQQPl-19" edge="1">
          <mxGeometry width="50" height="50" relative="1" as="geometry">
            <mxPoint x="234" y="-466" as="sourcePoint" />
            <mxPoint x="-415" y="-360" as="targetPoint" />
            <Array as="points" />
          </mxGeometry>
        </mxCell>
        <mxCell id="Z1-ZFgRToC5Ef57HQQPl-492" value="；" style="edgeLabel;html=1;align=center;verticalAlign=middle;resizable=0;points=[];" parent="Z1-ZFgRToC5Ef57HQQPl-491" vertex="1" connectable="0">
          <mxGeometry x="-0.1071" y="1" relative="1" as="geometry">
            <mxPoint x="-1" as="offset" />
          </mxGeometry>
        </mxCell>
        <mxCell id="Z1-ZFgRToC5Ef57HQQPl-493" value="" style="endArrow=classic;html=1;rounded=0;exitX=0;exitY=0.5;exitDx=0;exitDy=0;entryX=1;entryY=0;entryDx=0;entryDy=0;" parent="1" source="Z1-ZFgRToC5Ef57HQQPl-230" target="Z1-ZFgRToC5Ef57HQQPl-6" edge="1">
          <mxGeometry width="50" height="50" relative="1" as="geometry">
            <mxPoint x="-326" y="-334" as="sourcePoint" />
            <mxPoint x="-534" y="-206" as="targetPoint" />
            <Array as="points" />
          </mxGeometry>
        </mxCell>
        <mxCell id="Z1-ZFgRToC5Ef57HQQPl-494" value="id" style="edgeLabel;html=1;align=center;verticalAlign=middle;resizable=0;points=[];" parent="Z1-ZFgRToC5Ef57HQQPl-493" vertex="1" connectable="0">
          <mxGeometry x="0.0202" y="-1" relative="1" as="geometry">
            <mxPoint as="offset" />
          </mxGeometry>
        </mxCell>
        <mxCell id="Z1-ZFgRToC5Ef57HQQPl-495" value="" style="endArrow=classic;html=1;rounded=0;exitX=0;exitY=1;exitDx=0;exitDy=0;entryX=0.5;entryY=0;entryDx=0;entryDy=0;" parent="1" source="Z1-ZFgRToC5Ef57HQQPl-230" target="Z1-ZFgRToC5Ef57HQQPl-11" edge="1">
          <mxGeometry width="50" height="50" relative="1" as="geometry">
            <mxPoint x="-290" y="-120" as="sourcePoint" />
            <mxPoint x="-240" y="-170" as="targetPoint" />
          </mxGeometry>
        </mxCell>
        <mxCell id="Z1-ZFgRToC5Ef57HQQPl-496" value="if" style="edgeLabel;html=1;align=center;verticalAlign=middle;resizable=0;points=[];" parent="Z1-ZFgRToC5Ef57HQQPl-495" vertex="1" connectable="0">
          <mxGeometry x="0.1287" relative="1" as="geometry">
            <mxPoint as="offset" />
          </mxGeometry>
        </mxCell>
        <mxCell id="Z1-ZFgRToC5Ef57HQQPl-497" value="" style="endArrow=classic;html=1;rounded=0;exitX=0;exitY=1;exitDx=0;exitDy=0;entryX=0;entryY=0;entryDx=0;entryDy=0;" parent="1" source="Z1-ZFgRToC5Ef57HQQPl-230" target="Z1-ZFgRToC5Ef57HQQPl-16" edge="1">
          <mxGeometry width="50" height="50" relative="1" as="geometry">
            <mxPoint x="-290" y="-50" as="sourcePoint" />
            <mxPoint x="-240" y="-100" as="targetPoint" />
          </mxGeometry>
        </mxCell>
        <mxCell id="Z1-ZFgRToC5Ef57HQQPl-498" value="while" style="edgeLabel;html=1;align=center;verticalAlign=middle;resizable=0;points=[];" parent="Z1-ZFgRToC5Ef57HQQPl-497" vertex="1" connectable="0">
          <mxGeometry x="-0.2904" y="-1" relative="1" as="geometry">
            <mxPoint as="offset" />
          </mxGeometry>
        </mxCell>
        <mxCell id="p_1b_5cENNqRYTXuGcnv-3" value="&lt;div style=&quot;font-size: 10px;&quot;&gt;&lt;font style=&quot;font-size: 10px;&quot;&gt;S43&lt;/font&gt;&lt;/div&gt;" style="ellipse;whiteSpace=wrap;html=1;aspect=fixed;fontSize=10;" parent="1" vertex="1">
          <mxGeometry x="180" y="40" width="30" height="30" as="geometry" />
        </mxCell>
        <mxCell id="p_1b_5cENNqRYTXuGcnv-5" value="&lt;div style=&quot;font-size: 10px;&quot;&gt;&lt;font style=&quot;font-size: 10px;&quot;&gt;S44&lt;/font&gt;&lt;/div&gt;" style="ellipse;whiteSpace=wrap;html=1;aspect=fixed;fontSize=10;" parent="1" vertex="1">
          <mxGeometry x="180" y="80" width="30" height="30" as="geometry" />
        </mxCell>
        <mxCell id="p_1b_5cENNqRYTXuGcnv-6" value="" style="endArrow=classic;html=1;rounded=0;exitX=0.5;exitY=0;exitDx=0;exitDy=0;entryX=0.5;entryY=1;entryDx=0;entryDy=0;" parent="1" source="p_1b_5cENNqRYTXuGcnv-3" target="Z1-ZFgRToC5Ef57HQQPl-134" edge="1">
          <mxGeometry width="50" height="50" relative="1" as="geometry">
            <mxPoint x="330" y="70" as="sourcePoint" />
            <mxPoint x="380" y="20" as="targetPoint" />
          </mxGeometry>
        </mxCell>
        <mxCell id="p_1b_5cENNqRYTXuGcnv-8" value="M" style="edgeLabel;html=1;align=center;verticalAlign=middle;resizable=0;points=[];" parent="p_1b_5cENNqRYTXuGcnv-6" vertex="1" connectable="0">
          <mxGeometry x="-0.1" relative="1" as="geometry">
            <mxPoint as="offset" />
          </mxGeometry>
        </mxCell>
        <mxCell id="p_1b_5cENNqRYTXuGcnv-7" value="" style="endArrow=classic;html=1;rounded=0;exitX=0.5;exitY=1;exitDx=0;exitDy=0;entryX=0.5;entryY=0;entryDx=0;entryDy=0;" parent="1" source="p_1b_5cENNqRYTXuGcnv-5" target="Z1-ZFgRToC5Ef57HQQPl-138" edge="1">
          <mxGeometry width="50" height="50" relative="1" as="geometry">
            <mxPoint x="288" y="60" as="sourcePoint" />
            <mxPoint x="288" y="40" as="targetPoint" />
          </mxGeometry>
        </mxCell>
        <mxCell id="p_1b_5cENNqRYTXuGcnv-9" value="M" style="edgeLabel;html=1;align=center;verticalAlign=middle;resizable=0;points=[];" parent="p_1b_5cENNqRYTXuGcnv-7" vertex="1" connectable="0">
          <mxGeometry x="-0.5143" y="2" relative="1" as="geometry">
            <mxPoint as="offset" />
          </mxGeometry>
        </mxCell>
      </root>
    </mxGraphModel>
  </diagram>
</mxfile>
